<svg width="711" height="300" viewBox="0 0 711 300" fill="none" xmlns="http://www.w3.org/2000/svg">
<path d="M187.86 172.85L183.41 187H182.49L178.31 174.72C178.257 174.553 178.21 174.38 178.17 174.2C178.13 174.38 178.083 174.553 178.03 174.72L173.84 187H172.93L168.47 172.85H169.32C169.513 172.85 169.637 172.94 169.69 173.12L173.26 184.75C173.333 185.017 173.4 185.32 173.46 185.66C173.493 185.487 173.527 185.327 173.56 185.18C173.593 185.027 173.633 184.883 173.68 184.75L177.68 173.12C177.707 173.047 177.753 172.983 177.82 172.93C177.887 172.877 177.967 172.85 178.06 172.85H178.34C178.433 172.85 178.51 172.877 178.57 172.93C178.63 172.977 178.677 173.04 178.71 173.12L182.71 184.75C182.757 184.877 182.797 185.017 182.83 185.17C182.87 185.323 182.907 185.483 182.94 185.65C182.973 185.483 183.003 185.327 183.03 185.18C183.063 185.027 183.097 184.883 183.13 184.75L186.7 173.12C186.72 173.047 186.763 172.983 186.83 172.93C186.903 172.877 186.987 172.85 187.08 172.85H187.86ZM195.936 181.02C195.936 180.487 195.86 180.01 195.706 179.59C195.56 179.163 195.35 178.803 195.076 178.51C194.803 178.217 194.476 177.993 194.096 177.84C193.723 177.68 193.31 177.6 192.856 177.6C192.343 177.6 191.883 177.68 191.476 177.84C191.07 178 190.716 178.23 190.416 178.53C190.123 178.83 189.886 179.19 189.706 179.61C189.526 180.03 189.406 180.5 189.346 181.02H195.936ZM189.296 181.63V181.82C189.296 182.567 189.383 183.223 189.556 183.79C189.73 184.357 189.976 184.833 190.296 185.22C190.616 185.6 191.003 185.887 191.456 186.08C191.91 186.273 192.416 186.37 192.976 186.37C193.476 186.37 193.91 186.317 194.276 186.21C194.643 186.097 194.95 185.973 195.196 185.84C195.45 185.7 195.65 185.577 195.796 185.47C195.943 185.357 196.05 185.3 196.116 185.3C196.203 185.3 196.27 185.333 196.316 185.4L196.576 185.72C196.416 185.92 196.203 186.107 195.936 186.28C195.676 186.453 195.383 186.603 195.056 186.73C194.736 186.85 194.39 186.947 194.016 187.02C193.65 187.093 193.28 187.13 192.906 187.13C192.226 187.13 191.606 187.013 191.046 186.78C190.486 186.54 190.006 186.193 189.606 185.74C189.206 185.287 188.896 184.733 188.676 184.08C188.463 183.42 188.356 182.667 188.356 181.82C188.356 181.107 188.456 180.45 188.656 179.85C188.863 179.243 189.156 178.723 189.536 178.29C189.923 177.85 190.393 177.507 190.946 177.26C191.506 177.013 192.14 176.89 192.846 176.89C193.406 176.89 193.926 176.987 194.406 177.18C194.886 177.373 195.303 177.657 195.656 178.03C196.01 178.397 196.286 178.85 196.486 179.39C196.693 179.93 196.796 180.55 196.796 181.25C196.796 181.397 196.776 181.497 196.736 181.55C196.696 181.603 196.63 181.63 196.536 181.63H189.296ZM204.816 187V177.05H205.346C205.512 177.05 205.609 177.133 205.636 177.3L205.726 178.74C206.112 178.187 206.556 177.74 207.056 177.4C207.556 177.06 208.119 176.89 208.746 176.89C209.472 176.89 210.052 177.1 210.486 177.52C210.926 177.94 211.222 178.523 211.376 179.27C211.496 178.863 211.662 178.51 211.876 178.21C212.096 177.91 212.346 177.663 212.626 177.47C212.906 177.27 213.209 177.123 213.536 177.03C213.869 176.937 214.209 176.89 214.556 176.89C215.049 176.89 215.492 176.973 215.886 177.14C216.279 177.3 216.612 177.54 216.886 177.86C217.159 178.18 217.369 178.573 217.516 179.04C217.662 179.507 217.736 180.04 217.736 180.64V187H216.786V180.64C216.786 179.667 216.576 178.927 216.156 178.42C215.736 177.907 215.136 177.65 214.356 177.65C214.009 177.65 213.676 177.713 213.356 177.84C213.042 177.967 212.762 178.157 212.516 178.41C212.276 178.657 212.082 178.967 211.936 179.34C211.796 179.713 211.726 180.147 211.726 180.64V187H210.766V180.64C210.766 179.673 210.572 178.933 210.186 178.42C209.806 177.907 209.246 177.65 208.506 177.65C207.966 177.65 207.466 177.81 207.006 178.13C206.546 178.45 206.136 178.893 205.776 179.46V187H204.816ZM226.48 182.19C225.533 182.223 224.716 182.3 224.03 182.42C223.35 182.533 222.786 182.69 222.34 182.89C221.9 183.09 221.573 183.33 221.36 183.61C221.146 183.883 221.04 184.197 221.04 184.55C221.04 184.883 221.093 185.173 221.2 185.42C221.313 185.66 221.46 185.86 221.64 186.02C221.826 186.173 222.04 186.287 222.28 186.36C222.52 186.433 222.77 186.47 223.03 186.47C223.416 186.47 223.77 186.43 224.09 186.35C224.416 186.263 224.716 186.147 224.99 186C225.27 185.847 225.53 185.667 225.77 185.46C226.01 185.253 226.246 185.03 226.48 184.79V182.19ZM220.63 178.46C221.15 177.94 221.696 177.547 222.27 177.28C222.843 177.013 223.493 176.88 224.22 176.88C224.753 176.88 225.22 176.967 225.62 177.14C226.02 177.307 226.35 177.55 226.61 177.87C226.876 178.183 227.076 178.567 227.21 179.02C227.343 179.467 227.41 179.967 227.41 180.52V187H227.03C226.83 187 226.706 186.907 226.66 186.72L226.52 185.44C226.246 185.707 225.973 185.947 225.7 186.16C225.433 186.373 225.153 186.553 224.86 186.7C224.566 186.847 224.25 186.96 223.91 187.04C223.57 187.12 223.196 187.16 222.79 187.16C222.45 187.16 222.12 187.11 221.8 187.01C221.48 186.91 221.193 186.757 220.94 186.55C220.693 186.343 220.493 186.08 220.34 185.76C220.193 185.433 220.12 185.043 220.12 184.59C220.12 184.17 220.24 183.78 220.48 183.42C220.72 183.06 221.096 182.747 221.61 182.48C222.123 182.213 222.78 182 223.58 181.84C224.386 181.68 225.353 181.587 226.48 181.56V180.52C226.48 179.6 226.28 178.893 225.88 178.4C225.486 177.9 224.9 177.65 224.12 177.65C223.64 177.65 223.23 177.717 222.89 177.85C222.556 177.983 222.273 178.13 222.04 178.29C221.806 178.45 221.616 178.597 221.47 178.73C221.323 178.863 221.2 178.93 221.1 178.93C221.026 178.93 220.966 178.913 220.92 178.88C220.873 178.847 220.833 178.803 220.8 178.75L220.63 178.46ZM231.557 172.45V181.32H232.017C232.11 181.32 232.197 181.307 232.277 181.28C232.364 181.253 232.457 181.19 232.557 181.09L236.547 177.3C236.614 177.22 236.687 177.16 236.767 177.12C236.847 177.073 236.947 177.05 237.067 177.05H237.907L233.517 181.22C233.397 181.36 233.267 181.47 233.127 181.55C233.234 181.603 233.324 181.667 233.397 181.74C233.477 181.807 233.554 181.887 233.627 181.98L238.237 187H237.407C237.314 187 237.227 186.987 237.147 186.96C237.074 186.927 237.004 186.863 236.937 186.77L232.757 182.29C232.704 182.23 232.65 182.18 232.597 182.14C232.55 182.1 232.5 182.07 232.447 182.05C232.394 182.023 232.33 182.007 232.257 182C232.19 181.987 232.107 181.98 232.007 181.98H231.557V187H230.597V172.45H231.557ZM246.444 181.02C246.444 180.487 246.368 180.01 246.214 179.59C246.068 179.163 245.858 178.803 245.584 178.51C245.311 178.217 244.984 177.993 244.604 177.84C244.231 177.68 243.818 177.6 243.364 177.6C242.851 177.6 242.391 177.68 241.984 177.84C241.578 178 241.224 178.23 240.924 178.53C240.631 178.83 240.394 179.19 240.214 179.61C240.034 180.03 239.914 180.5 239.854 181.02H246.444ZM239.804 181.63V181.82C239.804 182.567 239.891 183.223 240.064 183.79C240.238 184.357 240.484 184.833 240.804 185.22C241.124 185.6 241.511 185.887 241.964 186.08C242.418 186.273 242.924 186.37 243.484 186.37C243.984 186.37 244.418 186.317 244.784 186.21C245.151 186.097 245.458 185.973 245.704 185.84C245.958 185.7 246.158 185.577 246.304 185.47C246.451 185.357 246.558 185.3 246.624 185.3C246.711 185.3 246.778 185.333 246.824 185.4L247.084 185.72C246.924 185.92 246.711 186.107 246.444 186.28C246.184 186.453 245.891 186.603 245.564 186.73C245.244 186.85 244.898 186.947 244.524 187.02C244.158 187.093 243.788 187.13 243.414 187.13C242.734 187.13 242.114 187.013 241.554 186.78C240.994 186.54 240.514 186.193 240.114 185.74C239.714 185.287 239.404 184.733 239.184 184.08C238.971 183.42 238.864 182.667 238.864 181.82C238.864 181.107 238.964 180.45 239.164 179.85C239.371 179.243 239.664 178.723 240.044 178.29C240.431 177.85 240.901 177.507 241.454 177.26C242.014 177.013 242.648 176.89 243.354 176.89C243.914 176.89 244.434 176.987 244.914 177.18C245.394 177.373 245.811 177.657 246.164 178.03C246.518 178.397 246.794 178.85 246.994 179.39C247.201 179.93 247.304 180.55 247.304 181.25C247.304 181.397 247.284 181.497 247.244 181.55C247.204 181.603 247.138 181.63 247.044 181.63H239.804ZM260.794 178.28C260.74 178.373 260.664 178.42 260.564 178.42C260.49 178.42 260.397 178.38 260.284 178.3C260.17 178.213 260.017 178.12 259.824 178.02C259.637 177.913 259.404 177.82 259.124 177.74C258.844 177.653 258.504 177.61 258.104 177.61C257.744 177.61 257.414 177.663 257.114 177.77C256.82 177.87 256.567 178.007 256.354 178.18C256.147 178.353 255.987 178.557 255.874 178.79C255.76 179.017 255.704 179.257 255.704 179.51C255.704 179.823 255.784 180.083 255.944 180.29C256.104 180.497 256.31 180.673 256.564 180.82C256.824 180.967 257.12 181.093 257.454 181.2C257.787 181.307 258.124 181.413 258.464 181.52C258.81 181.627 259.15 181.747 259.484 181.88C259.817 182.007 260.11 182.167 260.364 182.36C260.624 182.553 260.834 182.79 260.994 183.07C261.154 183.35 261.234 183.69 261.234 184.09C261.234 184.523 261.157 184.927 261.004 185.3C260.85 185.673 260.624 185.997 260.324 186.27C260.03 186.543 259.667 186.76 259.234 186.92C258.8 187.08 258.304 187.16 257.744 187.16C257.044 187.16 256.44 187.05 255.934 186.83C255.427 186.603 254.974 186.31 254.574 185.95L254.794 185.61C254.827 185.557 254.864 185.517 254.904 185.49C254.95 185.463 255.01 185.45 255.084 185.45C255.17 185.45 255.274 185.503 255.394 185.61C255.52 185.717 255.687 185.833 255.894 185.96C256.1 186.08 256.354 186.193 256.654 186.3C256.96 186.407 257.337 186.46 257.784 186.46C258.204 186.46 258.574 186.403 258.894 186.29C259.214 186.17 259.48 186.01 259.694 185.81C259.907 185.61 260.067 185.377 260.174 185.11C260.287 184.837 260.344 184.55 260.344 184.25C260.344 183.917 260.264 183.64 260.104 183.42C259.944 183.2 259.734 183.013 259.474 182.86C259.214 182.707 258.917 182.577 258.584 182.47C258.257 182.363 257.92 182.257 257.574 182.15C257.227 182.043 256.887 181.927 256.554 181.8C256.227 181.673 255.934 181.513 255.674 181.32C255.414 181.127 255.204 180.893 255.044 180.62C254.884 180.34 254.804 179.993 254.804 179.58C254.804 179.227 254.88 178.887 255.034 178.56C255.187 178.233 255.404 177.947 255.684 177.7C255.97 177.453 256.317 177.257 256.724 177.11C257.13 176.963 257.587 176.89 258.094 176.89C258.7 176.89 259.237 176.977 259.704 177.15C260.177 177.323 260.607 177.59 260.994 177.95L260.794 178.28ZM271.54 177.05V187H271.01C270.843 187 270.746 186.913 270.72 186.74L270.63 185.26C270.17 185.833 269.636 186.293 269.03 186.64C268.43 186.987 267.76 187.16 267.02 187.16C266.466 187.16 265.983 187.073 265.57 186.9C265.156 186.727 264.813 186.477 264.54 186.15C264.266 185.823 264.06 185.43 263.92 184.97C263.78 184.51 263.71 183.99 263.71 183.41V177.05H264.67V183.41C264.67 184.343 264.883 185.077 265.31 185.61C265.736 186.137 266.386 186.4 267.26 186.4C267.906 186.4 268.51 186.237 269.07 185.91C269.636 185.577 270.14 185.117 270.58 184.53V177.05H271.54ZM275.726 179.45C275.879 179.043 276.052 178.683 276.246 178.37C276.446 178.05 276.672 177.78 276.926 177.56C277.186 177.34 277.472 177.173 277.786 177.06C278.106 176.94 278.459 176.88 278.846 176.88C279.052 176.88 279.256 176.9 279.456 176.94C279.656 176.973 279.832 177.037 279.986 177.13L279.906 177.79C279.872 177.897 279.809 177.95 279.716 177.95C279.636 177.95 279.512 177.927 279.346 177.88C279.186 177.833 278.972 177.81 278.706 177.81C278.319 177.81 277.976 177.87 277.676 177.99C277.382 178.103 277.116 178.277 276.876 178.51C276.642 178.743 276.436 179.033 276.256 179.38C276.082 179.72 275.922 180.113 275.776 180.56V187H274.816V177.05H275.326C275.439 177.05 275.519 177.073 275.566 177.12C275.612 177.167 275.642 177.247 275.656 177.36L275.726 179.45ZM288.3 181.02C288.3 180.487 288.223 180.01 288.07 179.59C287.923 179.163 287.713 178.803 287.44 178.51C287.166 178.217 286.84 177.993 286.46 177.84C286.086 177.68 285.673 177.6 285.22 177.6C284.706 177.6 284.246 177.68 283.84 177.84C283.433 178 283.08 178.23 282.78 178.53C282.486 178.83 282.25 179.19 282.07 179.61C281.89 180.03 281.77 180.5 281.71 181.02H288.3ZM281.66 181.63V181.82C281.66 182.567 281.746 183.223 281.92 183.79C282.093 184.357 282.34 184.833 282.66 185.22C282.98 185.6 283.366 185.887 283.82 186.08C284.273 186.273 284.78 186.37 285.34 186.37C285.84 186.37 286.273 186.317 286.64 186.21C287.006 186.097 287.313 185.973 287.56 185.84C287.813 185.7 288.013 185.577 288.16 185.47C288.306 185.357 288.413 185.3 288.48 185.3C288.566 185.3 288.633 185.333 288.68 185.4L288.94 185.72C288.78 185.92 288.566 186.107 288.3 186.28C288.04 186.453 287.746 186.603 287.42 186.73C287.1 186.85 286.753 186.947 286.38 187.02C286.013 187.093 285.643 187.13 285.27 187.13C284.59 187.13 283.97 187.013 283.41 186.78C282.85 186.54 282.37 186.193 281.97 185.74C281.57 185.287 281.26 184.733 281.04 184.08C280.826 183.42 280.72 182.667 280.72 181.82C280.72 181.107 280.82 180.45 281.02 179.85C281.226 179.243 281.52 178.723 281.9 178.29C282.286 177.85 282.756 177.507 283.31 177.26C283.87 177.013 284.503 176.89 285.21 176.89C285.77 176.89 286.29 176.987 286.77 177.18C287.25 177.373 287.666 177.657 288.02 178.03C288.373 178.397 288.65 178.85 288.85 179.39C289.056 179.93 289.16 180.55 289.16 181.25C289.16 181.397 289.14 181.497 289.1 181.55C289.06 181.603 288.993 181.63 288.9 181.63H281.66ZM299.899 187.16C299.226 187.16 298.699 186.973 298.319 186.6C297.946 186.227 297.759 185.65 297.759 184.87V178.07H296.329C296.256 178.07 296.196 178.05 296.149 178.01C296.102 177.97 296.079 177.913 296.079 177.84V177.47L297.779 177.35L298.019 173.79C298.032 173.73 298.059 173.677 298.099 173.63C298.139 173.583 298.196 173.56 298.269 173.56H298.719V177.36H301.859V178.07H298.719V184.82C298.719 185.093 298.752 185.33 298.819 185.53C298.892 185.723 298.989 185.883 299.109 186.01C299.236 186.137 299.382 186.23 299.549 186.29C299.716 186.35 299.896 186.38 300.089 186.38C300.329 186.38 300.536 186.347 300.709 186.28C300.882 186.207 301.032 186.13 301.159 186.05C301.286 185.963 301.389 185.887 301.469 185.82C301.549 185.747 301.612 185.71 301.659 185.71C301.712 185.71 301.766 185.743 301.819 185.81L302.079 186.23C301.826 186.51 301.502 186.737 301.109 186.91C300.722 187.077 300.319 187.16 299.899 187.16ZM304.995 178.73C305.455 178.17 305.978 177.723 306.565 177.39C307.158 177.057 307.821 176.89 308.555 176.89C309.101 176.89 309.581 176.977 309.995 177.15C310.415 177.323 310.761 177.573 311.035 177.9C311.308 178.227 311.515 178.62 311.655 179.08C311.795 179.54 311.865 180.06 311.865 180.64V187H310.905V180.64C310.905 179.707 310.691 178.977 310.265 178.45C309.838 177.917 309.188 177.65 308.315 177.65C307.668 177.65 307.061 177.817 306.495 178.15C305.935 178.477 305.435 178.933 304.995 179.52V187H304.035V172.45H304.995V178.73ZM320.601 182.19C319.654 182.223 318.837 182.3 318.151 182.42C317.471 182.533 316.907 182.69 316.461 182.89C316.021 183.09 315.694 183.33 315.481 183.61C315.267 183.883 315.161 184.197 315.161 184.55C315.161 184.883 315.214 185.173 315.321 185.42C315.434 185.66 315.581 185.86 315.761 186.02C315.947 186.173 316.161 186.287 316.401 186.36C316.641 186.433 316.891 186.47 317.151 186.47C317.537 186.47 317.891 186.43 318.211 186.35C318.537 186.263 318.837 186.147 319.111 186C319.391 185.847 319.651 185.667 319.891 185.46C320.131 185.253 320.367 185.03 320.601 184.79V182.19ZM314.751 178.46C315.271 177.94 315.817 177.547 316.391 177.28C316.964 177.013 317.614 176.88 318.341 176.88C318.874 176.88 319.341 176.967 319.741 177.14C320.141 177.307 320.471 177.55 320.731 177.87C320.997 178.183 321.197 178.567 321.331 179.02C321.464 179.467 321.531 179.967 321.531 180.52V187H321.151C320.951 187 320.827 186.907 320.781 186.72L320.641 185.44C320.367 185.707 320.094 185.947 319.821 186.16C319.554 186.373 319.274 186.553 318.981 186.7C318.687 186.847 318.371 186.96 318.031 187.04C317.691 187.12 317.317 187.16 316.911 187.16C316.571 187.16 316.241 187.11 315.921 187.01C315.601 186.91 315.314 186.757 315.061 186.55C314.814 186.343 314.614 186.08 314.461 185.76C314.314 185.433 314.241 185.043 314.241 184.59C314.241 184.17 314.361 183.78 314.601 183.42C314.841 183.06 315.217 182.747 315.731 182.48C316.244 182.213 316.901 182 317.701 181.84C318.507 181.68 319.474 181.587 320.601 181.56V180.52C320.601 179.6 320.401 178.893 320.001 178.4C319.607 177.9 319.021 177.65 318.241 177.65C317.761 177.65 317.351 177.717 317.011 177.85C316.677 177.983 316.394 178.13 316.161 178.29C315.927 178.45 315.737 178.597 315.591 178.73C315.444 178.863 315.321 178.93 315.221 178.93C315.147 178.93 315.087 178.913 315.041 178.88C314.994 178.847 314.954 178.803 314.921 178.75L314.751 178.46ZM327.321 187.16C326.648 187.16 326.121 186.973 325.741 186.6C325.368 186.227 325.181 185.65 325.181 184.87V178.07H323.751C323.678 178.07 323.618 178.05 323.571 178.01C323.524 177.97 323.501 177.913 323.501 177.84V177.47L325.201 177.35L325.441 173.79C325.454 173.73 325.481 173.677 325.521 173.63C325.561 173.583 325.618 173.56 325.691 173.56H326.141V177.36H329.281V178.07H326.141V184.82C326.141 185.093 326.174 185.33 326.241 185.53C326.314 185.723 326.411 185.883 326.531 186.01C326.658 186.137 326.804 186.23 326.971 186.29C327.138 186.35 327.318 186.38 327.511 186.38C327.751 186.38 327.958 186.347 328.131 186.28C328.304 186.207 328.454 186.13 328.581 186.05C328.708 185.963 328.811 185.887 328.891 185.82C328.971 185.747 329.034 185.71 329.081 185.71C329.134 185.71 329.188 185.743 329.241 185.81L329.501 186.23C329.248 186.51 328.924 186.737 328.531 186.91C328.144 187.077 327.741 187.16 327.321 187.16ZM340.826 176.89C341.539 176.89 342.176 177.013 342.736 177.26C343.303 177.5 343.779 177.843 344.166 178.29C344.553 178.737 344.846 179.277 345.046 179.91C345.253 180.537 345.356 181.24 345.356 182.02C345.356 182.8 345.253 183.503 345.046 184.13C344.846 184.757 344.553 185.293 344.166 185.74C343.779 186.187 343.303 186.53 342.736 186.77C342.176 187.01 341.539 187.13 340.826 187.13C340.113 187.13 339.473 187.01 338.906 186.77C338.346 186.53 337.869 186.187 337.476 185.74C337.089 185.293 336.793 184.757 336.586 184.13C336.386 183.503 336.286 182.8 336.286 182.02C336.286 181.24 336.386 180.537 336.586 179.91C336.793 179.277 337.089 178.737 337.476 178.29C337.869 177.843 338.346 177.5 338.906 177.26C339.473 177.013 340.113 176.89 340.826 176.89ZM340.826 186.38C341.419 186.38 341.936 186.28 342.376 186.08C342.823 185.873 343.193 185.58 343.486 185.2C343.786 184.82 344.009 184.363 344.156 183.83C344.303 183.29 344.376 182.687 344.376 182.02C344.376 181.36 344.303 180.76 344.156 180.22C344.009 179.68 343.786 179.22 343.486 178.84C343.193 178.453 342.823 178.157 342.376 177.95C341.936 177.743 341.419 177.64 340.826 177.64C340.233 177.64 339.713 177.743 339.266 177.95C338.826 178.157 338.456 178.453 338.156 178.84C337.863 179.22 337.639 179.68 337.486 180.22C337.339 180.76 337.266 181.36 337.266 182.02C337.266 182.687 337.339 183.29 337.486 183.83C337.639 184.363 337.863 184.82 338.156 185.2C338.456 185.58 338.826 185.873 339.266 186.08C339.713 186.28 340.233 186.38 340.826 186.38ZM355.758 177.05V187H355.228C355.062 187 354.965 186.913 354.938 186.74L354.848 185.26C354.388 185.833 353.855 186.293 353.248 186.64C352.648 186.987 351.978 187.16 351.238 187.16C350.685 187.16 350.202 187.073 349.788 186.9C349.375 186.727 349.032 186.477 348.758 186.15C348.485 185.823 348.278 185.43 348.138 184.97C347.998 184.51 347.928 183.99 347.928 183.41V177.05H348.888V183.41C348.888 184.343 349.102 185.077 349.528 185.61C349.955 186.137 350.605 186.4 351.478 186.4C352.125 186.4 352.728 186.237 353.288 185.91C353.855 185.577 354.358 185.117 354.798 184.53V177.05H355.758ZM359.945 179.45C360.098 179.043 360.271 178.683 360.465 178.37C360.665 178.05 360.891 177.78 361.145 177.56C361.405 177.34 361.691 177.173 362.005 177.06C362.325 176.94 362.678 176.88 363.065 176.88C363.271 176.88 363.475 176.9 363.675 176.94C363.875 176.973 364.051 177.037 364.205 177.13L364.125 177.79C364.091 177.897 364.028 177.95 363.935 177.95C363.855 177.95 363.731 177.927 363.565 177.88C363.405 177.833 363.191 177.81 362.925 177.81C362.538 177.81 362.195 177.87 361.895 177.99C361.601 178.103 361.335 178.277 361.095 178.51C360.861 178.743 360.655 179.033 360.475 179.38C360.301 179.72 360.141 180.113 359.995 180.56V187H359.035V177.05H359.545C359.658 177.05 359.738 177.073 359.785 177.12C359.831 177.167 359.861 177.247 359.875 177.36L359.945 179.45ZM371.105 187V177.05H371.635C371.802 177.05 371.898 177.133 371.925 177.3L372.015 178.74C372.402 178.187 372.845 177.74 373.345 177.4C373.845 177.06 374.408 176.89 375.035 176.89C375.762 176.89 376.342 177.1 376.775 177.52C377.215 177.94 377.512 178.523 377.665 179.27C377.785 178.863 377.952 178.51 378.165 178.21C378.385 177.91 378.635 177.663 378.915 177.47C379.195 177.27 379.498 177.123 379.825 177.03C380.158 176.937 380.498 176.89 380.845 176.89C381.338 176.89 381.782 176.973 382.175 177.14C382.568 177.3 382.902 177.54 383.175 177.86C383.448 178.18 383.658 178.573 383.805 179.04C383.952 179.507 384.025 180.04 384.025 180.64V187H383.075V180.64C383.075 179.667 382.865 178.927 382.445 178.42C382.025 177.907 381.425 177.65 380.645 177.65C380.298 177.65 379.965 177.713 379.645 177.84C379.332 177.967 379.052 178.157 378.805 178.41C378.565 178.657 378.372 178.967 378.225 179.34C378.085 179.713 378.015 180.147 378.015 180.64V187H377.055V180.64C377.055 179.673 376.862 178.933 376.475 178.42C376.095 177.907 375.535 177.65 374.795 177.65C374.255 177.65 373.755 177.81 373.295 178.13C372.835 178.45 372.425 178.893 372.065 179.46V187H371.105ZM391.139 176.89C391.852 176.89 392.489 177.013 393.049 177.26C393.615 177.5 394.092 177.843 394.479 178.29C394.865 178.737 395.159 179.277 395.359 179.91C395.565 180.537 395.669 181.24 395.669 182.02C395.669 182.8 395.565 183.503 395.359 184.13C395.159 184.757 394.865 185.293 394.479 185.74C394.092 186.187 393.615 186.53 393.049 186.77C392.489 187.01 391.852 187.13 391.139 187.13C390.425 187.13 389.785 187.01 389.219 186.77C388.659 186.53 388.182 186.187 387.789 185.74C387.402 185.293 387.105 184.757 386.899 184.13C386.699 183.503 386.599 182.8 386.599 182.02C386.599 181.24 386.699 180.537 386.899 179.91C387.105 179.277 387.402 178.737 387.789 178.29C388.182 177.843 388.659 177.5 389.219 177.26C389.785 177.013 390.425 176.89 391.139 176.89ZM391.139 186.38C391.732 186.38 392.249 186.28 392.689 186.08C393.135 185.873 393.505 185.58 393.799 185.2C394.099 184.82 394.322 184.363 394.469 183.83C394.615 183.29 394.689 182.687 394.689 182.02C394.689 181.36 394.615 180.76 394.469 180.22C394.322 179.68 394.099 179.22 393.799 178.84C393.505 178.453 393.135 178.157 392.689 177.95C392.249 177.743 391.732 177.64 391.139 177.64C390.545 177.64 390.025 177.743 389.579 177.95C389.139 178.157 388.769 178.453 388.469 178.84C388.175 179.22 387.952 179.68 387.799 180.22C387.652 180.76 387.579 181.36 387.579 182.02C387.579 182.687 387.652 183.29 387.799 183.83C387.952 184.363 388.175 184.82 388.469 185.2C388.769 185.58 389.139 185.873 389.579 186.08C390.025 186.28 390.545 186.38 391.139 186.38ZM405.141 179.19C404.761 178.617 404.338 178.213 403.871 177.98C403.411 177.747 402.884 177.63 402.291 177.63C401.704 177.63 401.191 177.737 400.751 177.95C400.311 178.163 399.941 178.467 399.641 178.86C399.348 179.247 399.124 179.713 398.971 180.26C398.824 180.8 398.751 181.397 398.751 182.05C398.751 183.53 399.021 184.62 399.561 185.32C400.108 186.013 400.894 186.36 401.921 186.36C402.574 186.36 403.171 186.19 403.711 185.85C404.251 185.51 404.728 185.033 405.141 184.42V179.19ZM406.091 172.45V187H405.571C405.398 187 405.298 186.913 405.271 186.74L405.171 185.17C404.731 185.77 404.218 186.247 403.631 186.6C403.044 186.953 402.384 187.13 401.651 187.13C400.424 187.13 399.471 186.707 398.791 185.86C398.111 185.013 397.771 183.743 397.771 182.05C397.771 181.323 397.864 180.647 398.051 180.02C398.244 179.387 398.524 178.84 398.891 178.38C399.258 177.913 399.708 177.547 400.241 177.28C400.781 177.013 401.401 176.88 402.101 176.88C402.774 176.88 403.358 177.003 403.851 177.25C404.344 177.497 404.774 177.863 405.141 178.35V172.45H406.091ZM416.347 181.02C416.347 180.487 416.27 180.01 416.117 179.59C415.97 179.163 415.76 178.803 415.487 178.51C415.213 178.217 414.887 177.993 414.507 177.84C414.133 177.68 413.72 177.6 413.267 177.6C412.753 177.6 412.293 177.68 411.887 177.84C411.48 178 411.127 178.23 410.827 178.53C410.533 178.83 410.297 179.19 410.117 179.61C409.937 180.03 409.817 180.5 409.757 181.02H416.347ZM409.707 181.63V181.82C409.707 182.567 409.793 183.223 409.967 183.79C410.14 184.357 410.387 184.833 410.707 185.22C411.027 185.6 411.413 185.887 411.867 186.08C412.32 186.273 412.827 186.37 413.387 186.37C413.887 186.37 414.32 186.317 414.687 186.21C415.053 186.097 415.36 185.973 415.607 185.84C415.86 185.7 416.06 185.577 416.207 185.47C416.353 185.357 416.46 185.3 416.527 185.3C416.613 185.3 416.68 185.333 416.727 185.4L416.987 185.72C416.827 185.92 416.613 186.107 416.347 186.28C416.087 186.453 415.793 186.603 415.467 186.73C415.147 186.85 414.8 186.947 414.427 187.02C414.06 187.093 413.69 187.13 413.317 187.13C412.637 187.13 412.017 187.013 411.457 186.78C410.897 186.54 410.417 186.193 410.017 185.74C409.617 185.287 409.307 184.733 409.087 184.08C408.873 183.42 408.767 182.667 408.767 181.82C408.767 181.107 408.867 180.45 409.067 179.85C409.273 179.243 409.567 178.723 409.947 178.29C410.333 177.85 410.803 177.507 411.357 177.26C411.917 177.013 412.55 176.89 413.257 176.89C413.817 176.89 414.337 176.987 414.817 177.18C415.297 177.373 415.713 177.657 416.067 178.03C416.42 178.397 416.697 178.85 416.897 179.39C417.103 179.93 417.207 180.55 417.207 181.25C417.207 181.397 417.187 181.497 417.147 181.55C417.107 181.603 417.04 181.63 416.947 181.63H409.707ZM420.846 172.45V187H419.886V172.45H420.846ZM429.68 178.28C429.627 178.373 429.55 178.42 429.45 178.42C429.377 178.42 429.284 178.38 429.17 178.3C429.057 178.213 428.904 178.12 428.71 178.02C428.524 177.913 428.29 177.82 428.01 177.74C427.73 177.653 427.39 177.61 426.99 177.61C426.63 177.61 426.3 177.663 426 177.77C425.707 177.87 425.454 178.007 425.24 178.18C425.034 178.353 424.874 178.557 424.76 178.79C424.647 179.017 424.59 179.257 424.59 179.51C424.59 179.823 424.67 180.083 424.83 180.29C424.99 180.497 425.197 180.673 425.45 180.82C425.71 180.967 426.007 181.093 426.34 181.2C426.674 181.307 427.01 181.413 427.35 181.52C427.697 181.627 428.037 181.747 428.37 181.88C428.704 182.007 428.997 182.167 429.25 182.36C429.51 182.553 429.72 182.79 429.88 183.07C430.04 183.35 430.12 183.69 430.12 184.09C430.12 184.523 430.044 184.927 429.89 185.3C429.737 185.673 429.51 185.997 429.21 186.27C428.917 186.543 428.554 186.76 428.12 186.92C427.687 187.08 427.19 187.16 426.63 187.16C425.93 187.16 425.327 187.05 424.82 186.83C424.314 186.603 423.86 186.31 423.46 185.95L423.68 185.61C423.714 185.557 423.75 185.517 423.79 185.49C423.837 185.463 423.897 185.45 423.97 185.45C424.057 185.45 424.16 185.503 424.28 185.61C424.407 185.717 424.574 185.833 424.78 185.96C424.987 186.08 425.24 186.193 425.54 186.3C425.847 186.407 426.224 186.46 426.67 186.46C427.09 186.46 427.46 186.403 427.78 186.29C428.1 186.17 428.367 186.01 428.58 185.81C428.794 185.61 428.954 185.377 429.06 185.11C429.174 184.837 429.23 184.55 429.23 184.25C429.23 183.917 429.15 183.64 428.99 183.42C428.83 183.2 428.62 183.013 428.36 182.86C428.1 182.707 427.804 182.577 427.47 182.47C427.144 182.363 426.807 182.257 426.46 182.15C426.114 182.043 425.774 181.927 425.44 181.8C425.114 181.673 424.82 181.513 424.56 181.32C424.3 181.127 424.09 180.893 423.93 180.62C423.77 180.34 423.69 179.993 423.69 179.58C423.69 179.227 423.767 178.887 423.92 178.56C424.074 178.233 424.29 177.947 424.57 177.7C424.857 177.453 425.204 177.257 425.61 177.11C426.017 176.963 426.474 176.89 426.98 176.89C427.587 176.89 428.124 176.977 428.59 177.15C429.064 177.323 429.494 177.59 429.88 177.95L429.68 178.28ZM443.706 182.19C442.759 182.223 441.943 182.3 441.256 182.42C440.576 182.533 440.013 182.69 439.566 182.89C439.126 183.09 438.799 183.33 438.586 183.61C438.373 183.883 438.266 184.197 438.266 184.55C438.266 184.883 438.319 185.173 438.426 185.42C438.539 185.66 438.686 185.86 438.866 186.02C439.053 186.173 439.266 186.287 439.506 186.36C439.746 186.433 439.996 186.47 440.256 186.47C440.643 186.47 440.996 186.43 441.316 186.35C441.643 186.263 441.943 186.147 442.216 186C442.496 185.847 442.756 185.667 442.996 185.46C443.236 185.253 443.473 185.03 443.706 184.79V182.19ZM437.856 178.46C438.376 177.94 438.923 177.547 439.496 177.28C440.069 177.013 440.719 176.88 441.446 176.88C441.979 176.88 442.446 176.967 442.846 177.14C443.246 177.307 443.576 177.55 443.836 177.87C444.103 178.183 444.303 178.567 444.436 179.02C444.569 179.467 444.636 179.967 444.636 180.52V187H444.256C444.056 187 443.933 186.907 443.886 186.72L443.746 185.44C443.473 185.707 443.199 185.947 442.926 186.16C442.659 186.373 442.379 186.553 442.086 186.7C441.793 186.847 441.476 186.96 441.136 187.04C440.796 187.12 440.423 187.16 440.016 187.16C439.676 187.16 439.346 187.11 439.026 187.01C438.706 186.91 438.419 186.757 438.166 186.55C437.919 186.343 437.719 186.08 437.566 185.76C437.419 185.433 437.346 185.043 437.346 184.59C437.346 184.17 437.466 183.78 437.706 183.42C437.946 183.06 438.323 182.747 438.836 182.48C439.349 182.213 440.006 182 440.806 181.84C441.613 181.68 442.579 181.587 443.706 181.56V180.52C443.706 179.6 443.506 178.893 443.106 178.4C442.713 177.9 442.126 177.65 441.346 177.65C440.866 177.65 440.456 177.717 440.116 177.85C439.783 177.983 439.499 178.13 439.266 178.29C439.033 178.45 438.843 178.597 438.696 178.73C438.549 178.863 438.426 178.93 438.326 178.93C438.253 178.93 438.193 178.913 438.146 178.88C438.099 178.847 438.059 178.803 438.026 178.75L437.856 178.46ZM448.734 179.45C448.887 179.043 449.06 178.683 449.254 178.37C449.454 178.05 449.68 177.78 449.934 177.56C450.194 177.34 450.48 177.173 450.794 177.06C451.114 176.94 451.467 176.88 451.854 176.88C452.06 176.88 452.264 176.9 452.464 176.94C452.664 176.973 452.84 177.037 452.994 177.13L452.914 177.79C452.88 177.897 452.817 177.95 452.724 177.95C452.644 177.95 452.52 177.927 452.354 177.88C452.194 177.833 451.98 177.81 451.714 177.81C451.327 177.81 450.984 177.87 450.684 177.99C450.39 178.103 450.124 178.277 449.884 178.51C449.65 178.743 449.444 179.033 449.264 179.38C449.09 179.72 448.93 180.113 448.784 180.56V187H447.824V177.05H448.334C448.447 177.05 448.527 177.073 448.574 177.12C448.62 177.167 448.65 177.247 448.664 177.36L448.734 179.45ZM461.308 181.02C461.308 180.487 461.231 180.01 461.078 179.59C460.931 179.163 460.721 178.803 460.448 178.51C460.174 178.217 459.848 177.993 459.468 177.84C459.094 177.68 458.681 177.6 458.228 177.6C457.714 177.6 457.254 177.68 456.848 177.84C456.441 178 456.088 178.23 455.788 178.53C455.494 178.83 455.258 179.19 455.078 179.61C454.898 180.03 454.778 180.5 454.718 181.02H461.308ZM454.668 181.63V181.82C454.668 182.567 454.754 183.223 454.928 183.79C455.101 184.357 455.348 184.833 455.668 185.22C455.988 185.6 456.374 185.887 456.828 186.08C457.281 186.273 457.788 186.37 458.348 186.37C458.848 186.37 459.281 186.317 459.648 186.21C460.014 186.097 460.321 185.973 460.568 185.84C460.821 185.7 461.021 185.577 461.168 185.47C461.314 185.357 461.421 185.3 461.488 185.3C461.574 185.3 461.641 185.333 461.688 185.4L461.948 185.72C461.788 185.92 461.574 186.107 461.308 186.28C461.048 186.453 460.754 186.603 460.428 186.73C460.108 186.85 459.761 186.947 459.388 187.02C459.021 187.093 458.651 187.13 458.278 187.13C457.598 187.13 456.978 187.013 456.418 186.78C455.858 186.54 455.378 186.193 454.978 185.74C454.578 185.287 454.268 184.733 454.048 184.08C453.834 183.42 453.728 182.667 453.728 181.82C453.728 181.107 453.828 180.45 454.028 179.85C454.234 179.243 454.528 178.723 454.908 178.29C455.294 177.85 455.764 177.507 456.318 177.26C456.878 177.013 457.511 176.89 458.218 176.89C458.778 176.89 459.298 176.987 459.778 177.18C460.258 177.373 460.674 177.657 461.028 178.03C461.381 178.397 461.658 178.85 461.858 179.39C462.064 179.93 462.168 180.55 462.168 181.25C462.168 181.397 462.148 181.497 462.108 181.55C462.068 181.603 462.001 181.63 461.908 181.63H454.668ZM472.907 187.16C472.234 187.16 471.707 186.973 471.327 186.6C470.954 186.227 470.767 185.65 470.767 184.87V178.07H469.337C469.264 178.07 469.204 178.05 469.157 178.01C469.11 177.97 469.087 177.913 469.087 177.84V177.47L470.787 177.35L471.027 173.79C471.04 173.73 471.067 173.677 471.107 173.63C471.147 173.583 471.204 173.56 471.277 173.56H471.727V177.36H474.867V178.07H471.727V184.82C471.727 185.093 471.76 185.33 471.827 185.53C471.9 185.723 471.997 185.883 472.117 186.01C472.244 186.137 472.39 186.23 472.557 186.29C472.724 186.35 472.904 186.38 473.097 186.38C473.337 186.38 473.544 186.347 473.717 186.28C473.89 186.207 474.04 186.13 474.167 186.05C474.294 185.963 474.397 185.887 474.477 185.82C474.557 185.747 474.62 185.71 474.667 185.71C474.72 185.71 474.774 185.743 474.827 185.81L475.087 186.23C474.834 186.51 474.51 186.737 474.117 186.91C473.73 187.077 473.327 187.16 472.907 187.16ZM478.002 178.73C478.462 178.17 478.986 177.723 479.572 177.39C480.166 177.057 480.829 176.89 481.562 176.89C482.109 176.89 482.589 176.977 483.002 177.15C483.422 177.323 483.769 177.573 484.042 177.9C484.316 178.227 484.522 178.62 484.662 179.08C484.802 179.54 484.872 180.06 484.872 180.64V187H483.912V180.64C483.912 179.707 483.699 178.977 483.272 178.45C482.846 177.917 482.196 177.65 481.322 177.65C480.676 177.65 480.069 177.817 479.502 178.15C478.942 178.477 478.442 178.933 478.002 179.52V187H477.042V172.45H478.002V178.73ZM495.018 181.02C495.018 180.487 494.942 180.01 494.788 179.59C494.642 179.163 494.432 178.803 494.158 178.51C493.885 178.217 493.558 177.993 493.178 177.84C492.805 177.68 492.392 177.6 491.938 177.6C491.425 177.6 490.965 177.68 490.558 177.84C490.152 178 489.798 178.23 489.498 178.53C489.205 178.83 488.968 179.19 488.788 179.61C488.608 180.03 488.488 180.5 488.428 181.02H495.018ZM488.378 181.63V181.82C488.378 182.567 488.465 183.223 488.638 183.79C488.812 184.357 489.058 184.833 489.378 185.22C489.698 185.6 490.085 185.887 490.538 186.08C490.992 186.273 491.498 186.37 492.058 186.37C492.558 186.37 492.992 186.317 493.358 186.21C493.725 186.097 494.032 185.973 494.278 185.84C494.532 185.7 494.732 185.577 494.878 185.47C495.025 185.357 495.132 185.3 495.198 185.3C495.285 185.3 495.352 185.333 495.398 185.4L495.658 185.72C495.498 185.92 495.285 186.107 495.018 186.28C494.758 186.453 494.465 186.603 494.138 186.73C493.818 186.85 493.472 186.947 493.098 187.02C492.732 187.093 492.362 187.13 491.988 187.13C491.308 187.13 490.688 187.013 490.128 186.78C489.568 186.54 489.088 186.193 488.688 185.74C488.288 185.287 487.978 184.733 487.758 184.08C487.545 183.42 487.438 182.667 487.438 181.82C487.438 181.107 487.538 180.45 487.738 179.85C487.945 179.243 488.238 178.723 488.618 178.29C489.005 177.85 489.475 177.507 490.028 177.26C490.588 177.013 491.222 176.89 491.928 176.89C492.488 176.89 493.008 176.987 493.488 177.18C493.968 177.373 494.385 177.657 494.738 178.03C495.092 178.397 495.368 178.85 495.568 179.39C495.775 179.93 495.878 180.55 495.878 181.25C495.878 181.397 495.858 181.497 495.818 181.55C495.778 181.603 495.712 181.63 495.618 181.63H488.378ZM499.378 179.45C499.531 179.043 499.705 178.683 499.898 178.37C500.098 178.05 500.325 177.78 500.578 177.56C500.838 177.34 501.125 177.173 501.438 177.06C501.758 176.94 502.111 176.88 502.498 176.88C502.705 176.88 502.908 176.9 503.108 176.94C503.308 176.973 503.485 177.037 503.638 177.13L503.558 177.79C503.525 177.897 503.461 177.95 503.368 177.95C503.288 177.95 503.165 177.927 502.998 177.88C502.838 177.833 502.625 177.81 502.358 177.81C501.971 177.81 501.628 177.87 501.328 177.99C501.035 178.103 500.768 178.277 500.528 178.51C500.295 178.743 500.088 179.033 499.908 179.38C499.735 179.72 499.575 180.113 499.428 180.56V187H498.468V177.05H498.978C499.091 177.05 499.171 177.073 499.218 177.12C499.265 177.167 499.295 177.247 499.308 177.36L499.378 179.45ZM511.952 181.02C511.952 180.487 511.875 180.01 511.722 179.59C511.575 179.163 511.365 178.803 511.092 178.51C510.819 178.217 510.492 177.993 510.112 177.84C509.739 177.68 509.325 177.6 508.872 177.6C508.359 177.6 507.899 177.68 507.492 177.84C507.085 178 506.732 178.23 506.432 178.53C506.139 178.83 505.902 179.19 505.722 179.61C505.542 180.03 505.422 180.5 505.362 181.02H511.952ZM505.312 181.63V181.82C505.312 182.567 505.399 183.223 505.572 183.79C505.745 184.357 505.992 184.833 506.312 185.22C506.632 185.6 507.019 185.887 507.472 186.08C507.925 186.273 508.432 186.37 508.992 186.37C509.492 186.37 509.925 186.317 510.292 186.21C510.659 186.097 510.965 185.973 511.212 185.84C511.465 185.7 511.665 185.577 511.812 185.47C511.959 185.357 512.065 185.3 512.132 185.3C512.219 185.3 512.285 185.333 512.332 185.4L512.592 185.72C512.432 185.92 512.219 186.107 511.952 186.28C511.692 186.453 511.399 186.603 511.072 186.73C510.752 186.85 510.405 186.947 510.032 187.02C509.665 187.093 509.295 187.13 508.922 187.13C508.242 187.13 507.622 187.013 507.062 186.78C506.502 186.54 506.022 186.193 505.622 185.74C505.222 185.287 504.912 184.733 504.692 184.08C504.479 183.42 504.372 182.667 504.372 181.82C504.372 181.107 504.472 180.45 504.672 179.85C504.879 179.243 505.172 178.723 505.552 178.29C505.939 177.85 506.409 177.507 506.962 177.26C507.522 177.013 508.155 176.89 508.862 176.89C509.422 176.89 509.942 176.987 510.422 177.18C510.902 177.373 511.319 177.657 511.672 178.03C512.025 178.397 512.302 178.85 512.502 179.39C512.709 179.93 512.812 180.55 512.812 181.25C512.812 181.397 512.792 181.497 512.752 181.55C512.712 181.603 512.645 181.63 512.552 181.63H505.312ZM533.552 177.05L530.232 187H529.522C529.408 187 529.332 186.93 529.292 186.79L526.572 178.71C526.538 178.61 526.508 178.51 526.482 178.41C526.455 178.31 526.432 178.21 526.412 178.11C526.378 178.31 526.328 178.51 526.262 178.71L523.502 186.79C523.462 186.93 523.382 187 523.262 187H522.582L519.262 177.05H519.982C520.075 177.05 520.152 177.077 520.212 177.13C520.272 177.177 520.312 177.23 520.332 177.29L522.842 185.14C522.882 185.293 522.918 185.443 522.952 185.59C522.985 185.73 523.012 185.87 523.032 186.01C523.072 185.87 523.112 185.73 523.152 185.59C523.192 185.443 523.238 185.293 523.292 185.14L525.952 177.22C525.998 177.073 526.092 177 526.232 177H526.622C526.768 177 526.865 177.073 526.912 177.22L529.552 185.14C529.598 185.293 529.642 185.44 529.682 185.58C529.722 185.72 529.758 185.86 529.792 186C529.818 185.86 529.845 185.72 529.872 185.58C529.905 185.44 529.945 185.293 529.992 185.14L532.522 177.29C532.548 177.217 532.592 177.16 532.652 177.12C532.712 177.073 532.782 177.05 532.862 177.05H533.552ZM536.655 178.73C537.115 178.17 537.638 177.723 538.225 177.39C538.818 177.057 539.481 176.89 540.215 176.89C540.761 176.89 541.241 176.977 541.655 177.15C542.075 177.323 542.421 177.573 542.695 177.9C542.968 178.227 543.175 178.62 543.315 179.08C543.455 179.54 543.525 180.06 543.525 180.64V187H542.565V180.64C542.565 179.707 542.351 178.977 541.925 178.45C541.498 177.917 540.848 177.65 539.975 177.65C539.328 177.65 538.721 177.817 538.155 178.15C537.595 178.477 537.095 178.933 536.655 179.52V187H535.695V172.45H536.655V178.73ZM553.671 181.02C553.671 180.487 553.594 180.01 553.441 179.59C553.294 179.163 553.084 178.803 552.811 178.51C552.537 178.217 552.211 177.993 551.831 177.84C551.457 177.68 551.044 177.6 550.591 177.6C550.077 177.6 549.617 177.68 549.211 177.84C548.804 178 548.451 178.23 548.151 178.53C547.857 178.83 547.621 179.19 547.441 179.61C547.261 180.03 547.141 180.5 547.081 181.02H553.671ZM547.031 181.63V181.82C547.031 182.567 547.117 183.223 547.291 183.79C547.464 184.357 547.711 184.833 548.031 185.22C548.351 185.6 548.737 185.887 549.191 186.08C549.644 186.273 550.151 186.37 550.711 186.37C551.211 186.37 551.644 186.317 552.011 186.21C552.377 186.097 552.684 185.973 552.931 185.84C553.184 185.7 553.384 185.577 553.531 185.47C553.677 185.357 553.784 185.3 553.851 185.3C553.937 185.3 554.004 185.333 554.051 185.4L554.311 185.72C554.151 185.92 553.937 186.107 553.671 186.28C553.411 186.453 553.117 186.603 552.791 186.73C552.471 186.85 552.124 186.947 551.751 187.02C551.384 187.093 551.014 187.13 550.641 187.13C549.961 187.13 549.341 187.013 548.781 186.78C548.221 186.54 547.741 186.193 547.341 185.74C546.941 185.287 546.631 184.733 546.411 184.08C546.197 183.42 546.091 182.667 546.091 181.82C546.091 181.107 546.191 180.45 546.391 179.85C546.597 179.243 546.891 178.723 547.271 178.29C547.657 177.85 548.127 177.507 548.681 177.26C549.241 177.013 549.874 176.89 550.581 176.89C551.141 176.89 551.661 176.987 552.141 177.18C552.621 177.373 553.037 177.657 553.391 178.03C553.744 178.397 554.021 178.85 554.221 179.39C554.427 179.93 554.531 180.55 554.531 181.25C554.531 181.397 554.511 181.497 554.471 181.55C554.431 181.603 554.364 181.63 554.271 181.63H547.031ZM558.03 178.79C558.49 178.217 559.02 177.757 559.62 177.41C560.227 177.063 560.9 176.89 561.64 176.89C562.187 176.89 562.667 176.977 563.08 177.15C563.5 177.323 563.847 177.573 564.12 177.9C564.394 178.227 564.6 178.62 564.74 179.08C564.88 179.54 564.95 180.06 564.95 180.64V187H563.99V180.64C563.99 179.707 563.777 178.977 563.35 178.45C562.924 177.917 562.274 177.65 561.4 177.65C560.754 177.65 560.147 177.817 559.58 178.15C559.02 178.477 558.52 178.933 558.08 179.52V187H557.12V177.05H557.65C557.817 177.05 557.914 177.133 557.94 177.3L558.03 178.79ZM177.68 213.05L171.96 226.2C171.92 226.293 171.867 226.37 171.8 226.43C171.74 226.49 171.65 226.52 171.53 226.52H170.85L172.6 222.63L168.39 213.05H169.18C169.28 213.05 169.36 213.077 169.42 213.13C169.48 213.177 169.52 213.23 169.54 213.29L172.89 221.03C172.93 221.13 172.963 221.233 172.99 221.34C173.023 221.44 173.053 221.543 173.08 221.65C173.113 221.543 173.147 221.44 173.18 221.34C173.22 221.233 173.26 221.13 173.3 221.03L176.61 213.29C176.643 213.217 176.69 213.16 176.75 213.12C176.81 213.073 176.877 213.05 176.95 213.05H177.68ZM183.385 212.89C184.098 212.89 184.735 213.013 185.295 213.26C185.861 213.5 186.338 213.843 186.725 214.29C187.111 214.737 187.405 215.277 187.605 215.91C187.811 216.537 187.915 217.24 187.915 218.02C187.915 218.8 187.811 219.503 187.605 220.13C187.405 220.757 187.111 221.293 186.725 221.74C186.338 222.187 185.861 222.53 185.295 222.77C184.735 223.01 184.098 223.13 183.385 223.13C182.671 223.13 182.031 223.01 181.465 222.77C180.905 222.53 180.428 222.187 180.035 221.74C179.648 221.293 179.351 220.757 179.145 220.13C178.945 219.503 178.845 218.8 178.845 218.02C178.845 217.24 178.945 216.537 179.145 215.91C179.351 215.277 179.648 214.737 180.035 214.29C180.428 213.843 180.905 213.5 181.465 213.26C182.031 213.013 182.671 212.89 183.385 212.89ZM183.385 222.38C183.978 222.38 184.495 222.28 184.935 222.08C185.381 221.873 185.751 221.58 186.045 221.2C186.345 220.82 186.568 220.363 186.715 219.83C186.861 219.29 186.935 218.687 186.935 218.02C186.935 217.36 186.861 216.76 186.715 216.22C186.568 215.68 186.345 215.22 186.045 214.84C185.751 214.453 185.381 214.157 184.935 213.95C184.495 213.743 183.978 213.64 183.385 213.64C182.791 213.64 182.271 213.743 181.825 213.95C181.385 214.157 181.015 214.453 180.715 214.84C180.421 215.22 180.198 215.68 180.045 216.22C179.898 216.76 179.825 217.36 179.825 218.02C179.825 218.687 179.898 219.29 180.045 219.83C180.198 220.363 180.421 220.82 180.715 221.2C181.015 221.58 181.385 221.873 181.825 222.08C182.271 222.28 182.791 222.38 183.385 222.38ZM198.317 213.05V223H197.787C197.62 223 197.524 222.913 197.497 222.74L197.407 221.26C196.947 221.833 196.414 222.293 195.807 222.64C195.207 222.987 194.537 223.16 193.797 223.16C193.244 223.16 192.76 223.073 192.347 222.9C191.934 222.727 191.59 222.477 191.317 222.15C191.044 221.823 190.837 221.43 190.697 220.97C190.557 220.51 190.487 219.99 190.487 219.41V213.05H191.447V219.41C191.447 220.343 191.66 221.077 192.087 221.61C192.514 222.137 193.164 222.4 194.037 222.4C194.684 222.4 195.287 222.237 195.847 221.91C196.414 221.577 196.917 221.117 197.357 220.53V213.05H198.317ZM207.933 214.79C208.393 214.217 208.923 213.757 209.523 213.41C210.129 213.063 210.803 212.89 211.543 212.89C212.089 212.89 212.569 212.977 212.983 213.15C213.403 213.323 213.749 213.573 214.023 213.9C214.296 214.227 214.503 214.62 214.643 215.08C214.783 215.54 214.853 216.06 214.853 216.64V223H213.893V216.64C213.893 215.707 213.679 214.977 213.253 214.45C212.826 213.917 212.176 213.65 211.303 213.65C210.656 213.65 210.049 213.817 209.483 214.15C208.923 214.477 208.423 214.933 207.983 215.52V223H207.023V213.05H207.553C207.719 213.05 207.816 213.133 207.843 213.3L207.933 214.79ZM224.999 217.02C224.999 216.487 224.922 216.01 224.769 215.59C224.622 215.163 224.412 214.803 224.139 214.51C223.866 214.217 223.539 213.993 223.159 213.84C222.786 213.68 222.372 213.6 221.919 213.6C221.406 213.6 220.946 213.68 220.539 213.84C220.132 214 219.779 214.23 219.479 214.53C219.186 214.83 218.949 215.19 218.769 215.61C218.589 216.03 218.469 216.5 218.409 217.02H224.999ZM218.359 217.63V217.82C218.359 218.567 218.446 219.223 218.619 219.79C218.792 220.357 219.039 220.833 219.359 221.22C219.679 221.6 220.066 221.887 220.519 222.08C220.972 222.273 221.479 222.37 222.039 222.37C222.539 222.37 222.972 222.317 223.339 222.21C223.706 222.097 224.012 221.973 224.259 221.84C224.512 221.7 224.712 221.577 224.859 221.47C225.006 221.357 225.112 221.3 225.179 221.3C225.266 221.3 225.332 221.333 225.379 221.4L225.639 221.72C225.479 221.92 225.266 222.107 224.999 222.28C224.739 222.453 224.446 222.603 224.119 222.73C223.799 222.85 223.452 222.947 223.079 223.02C222.712 223.093 222.342 223.13 221.969 223.13C221.289 223.13 220.669 223.013 220.109 222.78C219.549 222.54 219.069 222.193 218.669 221.74C218.269 221.287 217.959 220.733 217.739 220.08C217.526 219.42 217.419 218.667 217.419 217.82C217.419 217.107 217.519 216.45 217.719 215.85C217.926 215.243 218.219 214.723 218.599 214.29C218.986 213.85 219.456 213.507 220.009 213.26C220.569 213.013 221.202 212.89 221.909 212.89C222.469 212.89 222.989 212.987 223.469 213.18C223.949 213.373 224.366 213.657 224.719 214.03C225.072 214.397 225.349 214.85 225.549 215.39C225.756 215.93 225.859 216.55 225.859 217.25C225.859 217.397 225.839 217.497 225.799 217.55C225.759 217.603 225.692 217.63 225.599 217.63H218.359ZM235.429 217.02C235.429 216.487 235.352 216.01 235.199 215.59C235.052 215.163 234.842 214.803 234.569 214.51C234.295 214.217 233.969 213.993 233.589 213.84C233.215 213.68 232.802 213.6 232.349 213.6C231.835 213.6 231.375 213.68 230.969 213.84C230.562 214 230.209 214.23 229.909 214.53C229.615 214.83 229.379 215.19 229.199 215.61C229.019 216.03 228.899 216.5 228.839 217.02H235.429ZM228.789 217.63V217.82C228.789 218.567 228.875 219.223 229.049 219.79C229.222 220.357 229.469 220.833 229.789 221.22C230.109 221.6 230.495 221.887 230.949 222.08C231.402 222.273 231.909 222.37 232.469 222.37C232.969 222.37 233.402 222.317 233.769 222.21C234.135 222.097 234.442 221.973 234.689 221.84C234.942 221.7 235.142 221.577 235.289 221.47C235.435 221.357 235.542 221.3 235.609 221.3C235.695 221.3 235.762 221.333 235.809 221.4L236.069 221.72C235.909 221.92 235.695 222.107 235.429 222.28C235.169 222.453 234.875 222.603 234.549 222.73C234.229 222.85 233.882 222.947 233.509 223.02C233.142 223.093 232.772 223.13 232.399 223.13C231.719 223.13 231.099 223.013 230.539 222.78C229.979 222.54 229.499 222.193 229.099 221.74C228.699 221.287 228.389 220.733 228.169 220.08C227.955 219.42 227.849 218.667 227.849 217.82C227.849 217.107 227.949 216.45 228.149 215.85C228.355 215.243 228.649 214.723 229.029 214.29C229.415 213.85 229.885 213.507 230.439 213.26C230.999 213.013 231.632 212.89 232.339 212.89C232.899 212.89 233.419 212.987 233.899 213.18C234.379 213.373 234.795 213.657 235.149 214.03C235.502 214.397 235.779 214.85 235.979 215.39C236.185 215.93 236.289 216.55 236.289 217.25C236.289 217.397 236.269 217.497 236.229 217.55C236.189 217.603 236.122 217.63 236.029 217.63H228.789ZM245.668 215.19C245.288 214.617 244.865 214.213 244.398 213.98C243.938 213.747 243.412 213.63 242.818 213.63C242.232 213.63 241.718 213.737 241.278 213.95C240.838 214.163 240.468 214.467 240.168 214.86C239.875 215.247 239.652 215.713 239.498 216.26C239.352 216.8 239.278 217.397 239.278 218.05C239.278 219.53 239.548 220.62 240.088 221.32C240.635 222.013 241.422 222.36 242.448 222.36C243.102 222.36 243.698 222.19 244.238 221.85C244.778 221.51 245.255 221.033 245.668 220.42V215.19ZM246.618 208.45V223H246.098C245.925 223 245.825 222.913 245.798 222.74L245.698 221.17C245.258 221.77 244.745 222.247 244.158 222.6C243.572 222.953 242.912 223.13 242.178 223.13C240.952 223.13 239.998 222.707 239.318 221.86C238.638 221.013 238.298 219.743 238.298 218.05C238.298 217.323 238.392 216.647 238.578 216.02C238.772 215.387 239.052 214.84 239.418 214.38C239.785 213.913 240.235 213.547 240.768 213.28C241.308 213.013 241.928 212.88 242.628 212.88C243.302 212.88 243.885 213.003 244.378 213.25C244.872 213.497 245.302 213.863 245.668 214.35V208.45H246.618ZM258.044 223.16C257.37 223.16 256.844 222.973 256.464 222.6C256.09 222.227 255.904 221.65 255.904 220.87V214.07H254.474C254.4 214.07 254.34 214.05 254.294 214.01C254.247 213.97 254.224 213.913 254.224 213.84V213.47L255.924 213.35L256.164 209.79C256.177 209.73 256.204 209.677 256.244 209.63C256.284 209.583 256.34 209.56 256.414 209.56H256.864V213.36H260.004V214.07H256.864V220.82C256.864 221.093 256.897 221.33 256.964 221.53C257.037 221.723 257.134 221.883 257.254 222.01C257.38 222.137 257.527 222.23 257.694 222.29C257.86 222.35 258.04 222.38 258.234 222.38C258.474 222.38 258.68 222.347 258.854 222.28C259.027 222.207 259.177 222.13 259.304 222.05C259.43 221.963 259.534 221.887 259.614 221.82C259.694 221.747 259.757 221.71 259.804 221.71C259.857 221.71 259.91 221.743 259.964 221.81L260.224 222.23C259.97 222.51 259.647 222.737 259.254 222.91C258.867 223.077 258.464 223.16 258.044 223.16ZM263.139 214.73C263.599 214.17 264.122 213.723 264.709 213.39C265.302 213.057 265.966 212.89 266.699 212.89C267.246 212.89 267.726 212.977 268.139 213.15C268.559 213.323 268.906 213.573 269.179 213.9C269.452 214.227 269.659 214.62 269.799 215.08C269.939 215.54 270.009 216.06 270.009 216.64V223H269.049V216.64C269.049 215.707 268.836 214.977 268.409 214.45C267.982 213.917 267.332 213.65 266.459 213.65C265.812 213.65 265.206 213.817 264.639 214.15C264.079 214.477 263.579 214.933 263.139 215.52V223H262.179V208.45H263.139V214.73ZM280.155 217.02C280.155 216.487 280.078 216.01 279.925 215.59C279.778 215.163 279.568 214.803 279.295 214.51C279.022 214.217 278.695 213.993 278.315 213.84C277.942 213.68 277.528 213.6 277.075 213.6C276.562 213.6 276.102 213.68 275.695 213.84C275.288 214 274.935 214.23 274.635 214.53C274.342 214.83 274.105 215.19 273.925 215.61C273.745 216.03 273.625 216.5 273.565 217.02H280.155ZM273.515 217.63V217.82C273.515 218.567 273.602 219.223 273.775 219.79C273.948 220.357 274.195 220.833 274.515 221.22C274.835 221.6 275.222 221.887 275.675 222.08C276.128 222.273 276.635 222.37 277.195 222.37C277.695 222.37 278.128 222.317 278.495 222.21C278.862 222.097 279.168 221.973 279.415 221.84C279.668 221.7 279.868 221.577 280.015 221.47C280.162 221.357 280.268 221.3 280.335 221.3C280.422 221.3 280.488 221.333 280.535 221.4L280.795 221.72C280.635 221.92 280.422 222.107 280.155 222.28C279.895 222.453 279.602 222.603 279.275 222.73C278.955 222.85 278.608 222.947 278.235 223.02C277.868 223.093 277.498 223.13 277.125 223.13C276.445 223.13 275.825 223.013 275.265 222.78C274.705 222.54 274.225 222.193 273.825 221.74C273.425 221.287 273.115 220.733 272.895 220.08C272.682 219.42 272.575 218.667 272.575 217.82C272.575 217.107 272.675 216.45 272.875 215.85C273.082 215.243 273.375 214.723 273.755 214.29C274.142 213.85 274.612 213.507 275.165 213.26C275.725 213.013 276.358 212.89 277.065 212.89C277.625 212.89 278.145 212.987 278.625 213.18C279.105 213.373 279.522 213.657 279.875 214.03C280.228 214.397 280.505 214.85 280.705 215.39C280.912 215.93 281.015 216.55 281.015 217.25C281.015 217.397 280.995 217.497 280.955 217.55C280.915 217.603 280.848 217.63 280.755 217.63H273.515ZM283.605 223V213.05H284.135C284.302 213.05 284.398 213.133 284.425 213.3L284.515 214.74C284.902 214.187 285.345 213.74 285.845 213.4C286.345 213.06 286.908 212.89 287.535 212.89C288.262 212.89 288.842 213.1 289.275 213.52C289.715 213.94 290.012 214.523 290.165 215.27C290.285 214.863 290.452 214.51 290.665 214.21C290.885 213.91 291.135 213.663 291.415 213.47C291.695 213.27 291.998 213.123 292.325 213.03C292.658 212.937 292.998 212.89 293.345 212.89C293.838 212.89 294.282 212.973 294.675 213.14C295.068 213.3 295.402 213.54 295.675 213.86C295.948 214.18 296.158 214.573 296.305 215.04C296.452 215.507 296.525 216.04 296.525 216.64V223H295.575V216.64C295.575 215.667 295.365 214.927 294.945 214.42C294.525 213.907 293.925 213.65 293.145 213.65C292.798 213.65 292.465 213.713 292.145 213.84C291.832 213.967 291.552 214.157 291.305 214.41C291.065 214.657 290.872 214.967 290.725 215.34C290.585 215.713 290.515 216.147 290.515 216.64V223H289.555V216.64C289.555 215.673 289.362 214.933 288.975 214.42C288.595 213.907 288.035 213.65 287.295 213.65C286.755 213.65 286.255 213.81 285.795 214.13C285.335 214.45 284.925 214.893 284.565 215.46V223H283.605Z" fill="white"/>
<path opacity="0.1" d="M188.235 24.515V32.915C187.145 33.695 185.985 34.28 184.755 34.67C183.525 35.05 182.185 35.24 180.735 35.24C178.995 35.24 177.42 34.97 176.01 34.43C174.61 33.89 173.415 33.135 172.425 32.165C171.435 31.195 170.67 30.035 170.13 28.685C169.6 27.335 169.335 25.85 169.335 24.23C169.335 22.6 169.59 21.11 170.1 19.76C170.62 18.4 171.36 17.24 172.32 16.28C173.28 15.31 174.44 14.56 175.8 14.03C177.17 13.49 178.705 13.22 180.405 13.22C181.265 13.22 182.06 13.285 182.79 13.415C183.53 13.545 184.215 13.73 184.845 13.97C185.475 14.21 186.055 14.5 186.585 14.84C187.125 15.17 187.625 15.545 188.085 15.965L187.17 17.405C187.03 17.635 186.845 17.78 186.615 17.84C186.385 17.9 186.135 17.845 185.865 17.675C185.605 17.525 185.315 17.35 184.995 17.15C184.685 16.95 184.31 16.765 183.87 16.595C183.44 16.425 182.935 16.28 182.355 16.16C181.775 16.04 181.09 15.98 180.3 15.98C179.12 15.98 178.055 16.175 177.105 16.565C176.155 16.945 175.345 17.495 174.675 18.215C174.005 18.935 173.49 19.805 173.13 20.825C172.77 21.835 172.59 22.97 172.59 24.23C172.59 25.55 172.78 26.735 173.16 27.785C173.54 28.825 174.075 29.71 174.765 30.44C175.465 31.16 176.31 31.71 177.3 32.09C178.3 32.47 179.415 32.66 180.645 32.66C181.125 32.66 181.57 32.635 181.98 32.585C182.4 32.525 182.8 32.445 183.18 32.345C183.56 32.245 183.925 32.12 184.275 31.97C184.635 31.82 184.99 31.655 185.34 31.475V26.96H182.16C181.96 26.96 181.795 26.9 181.665 26.78C181.545 26.66 181.485 26.51 181.485 26.33V24.515H188.235ZM208.305 32.405L208.29 35H194.94V13.46H208.29V16.055H198.15V22.88H206.31V25.385H198.15V32.405H208.305ZM229.339 16.13H222.499V35H219.319V16.13H212.449V13.46H229.339V16.13ZM249.522 16.13H242.682V35H239.502V16.13H232.632V13.46H249.522V16.13ZM258.231 35H255.021V13.46H258.231V35ZM283.586 13.46V35H281.966C281.716 35 281.506 34.955 281.336 34.865C281.176 34.775 281.011 34.63 280.841 34.43L268.676 18.695C268.696 18.965 268.711 19.23 268.721 19.49C268.741 19.75 268.751 19.995 268.751 20.225V35H265.946V13.46H267.596C267.876 13.46 268.086 13.495 268.226 13.565C268.366 13.625 268.521 13.77 268.691 14L280.886 29.75C280.856 29.46 280.831 29.18 280.811 28.91C280.801 28.63 280.796 28.37 280.796 28.13V13.46H283.586ZM308.895 24.515V32.915C307.805 33.695 306.645 34.28 305.415 34.67C304.185 35.05 302.845 35.24 301.395 35.24C299.655 35.24 298.08 34.97 296.67 34.43C295.27 33.89 294.075 33.135 293.085 32.165C292.095 31.195 291.33 30.035 290.79 28.685C290.26 27.335 289.995 25.85 289.995 24.23C289.995 22.6 290.25 21.11 290.76 19.76C291.28 18.4 292.02 17.24 292.98 16.28C293.94 15.31 295.1 14.56 296.46 14.03C297.83 13.49 299.365 13.22 301.065 13.22C301.925 13.22 302.72 13.285 303.45 13.415C304.19 13.545 304.875 13.73 305.505 13.97C306.135 14.21 306.715 14.5 307.245 14.84C307.785 15.17 308.285 15.545 308.745 15.965L307.83 17.405C307.69 17.635 307.505 17.78 307.275 17.84C307.045 17.9 306.795 17.845 306.525 17.675C306.265 17.525 305.975 17.35 305.655 17.15C305.345 16.95 304.97 16.765 304.53 16.595C304.1 16.425 303.595 16.28 303.015 16.16C302.435 16.04 301.75 15.98 300.96 15.98C299.78 15.98 298.715 16.175 297.765 16.565C296.815 16.945 296.005 17.495 295.335 18.215C294.665 18.935 294.15 19.805 293.79 20.825C293.43 21.835 293.25 22.97 293.25 24.23C293.25 25.55 293.44 26.735 293.82 27.785C294.2 28.825 294.735 29.71 295.425 30.44C296.125 31.16 296.97 31.71 297.96 32.09C298.96 32.47 300.075 32.66 301.305 32.66C301.785 32.66 302.23 32.635 302.64 32.585C303.06 32.525 303.46 32.445 303.84 32.345C304.22 32.245 304.585 32.12 304.935 31.97C305.295 31.82 305.65 31.655 306 31.475V26.96H302.82C302.62 26.96 302.455 26.9 302.325 26.78C302.205 26.66 302.145 26.51 302.145 26.33V24.515H308.895ZM339.364 16.13H332.524V35H329.344V16.13H322.474V13.46H339.364V16.13ZM362.502 13.46V35H359.307V25.295H348.072V35H344.862V13.46H348.072V22.97H359.307V13.46H362.502ZM383.596 32.405L383.581 35H370.231V13.46H383.581V16.055H373.441V22.88H381.601V25.385H373.441V32.405H383.596ZM396.051 23.84C396.871 23.84 397.591 23.74 398.211 23.54C398.841 23.34 399.366 23.06 399.786 22.7C400.206 22.33 400.521 21.895 400.731 21.395C400.941 20.885 401.046 20.325 401.046 19.715C401.046 18.475 400.636 17.54 399.816 16.91C399.006 16.28 397.786 15.965 396.156 15.965H393.141V23.84H396.051ZM406.101 35H403.251C402.681 35 402.266 34.775 402.006 34.325L396.681 26.855C396.511 26.605 396.326 26.43 396.126 26.33C395.926 26.22 395.626 26.165 395.226 26.165H393.141V35H389.946V13.46H396.156C397.546 13.46 398.741 13.605 399.741 13.895C400.751 14.175 401.581 14.58 402.231 15.11C402.891 15.63 403.376 16.26 403.686 17C404.006 17.74 404.166 18.57 404.166 19.49C404.166 20.24 404.051 20.945 403.821 21.605C403.591 22.265 403.251 22.86 402.801 23.39C402.361 23.91 401.821 24.36 401.181 24.74C400.541 25.12 399.816 25.41 399.006 25.61C399.406 25.85 399.751 26.185 400.041 26.615L406.101 35ZM424.636 32.405L424.621 35H411.271V13.46H424.621V16.055H414.481V22.88H422.641V25.385H414.481V32.405H424.636ZM445.519 24.53C444.529 25.08 443.789 25.74 443.299 26.51C442.819 27.27 442.579 28.09 442.579 28.97C442.579 29.59 442.689 30.145 442.909 30.635C443.139 31.115 443.439 31.52 443.809 31.85C444.189 32.18 444.619 32.43 445.099 32.6C445.589 32.77 446.089 32.855 446.599 32.855C447.659 32.855 448.614 32.67 449.464 32.3C450.314 31.92 451.069 31.415 451.729 30.785L445.519 24.53ZM459.544 35H456.694C456.374 35 456.119 34.965 455.929 34.895C455.749 34.815 455.544 34.655 455.314 34.415L453.319 32.405C452.379 33.285 451.299 33.98 450.079 34.49C448.869 34.99 447.539 35.24 446.089 35.24C445.279 35.24 444.484 35.105 443.704 34.835C442.934 34.555 442.244 34.155 441.634 33.635C441.024 33.115 440.529 32.485 440.149 31.745C439.779 30.995 439.594 30.15 439.594 29.21C439.594 28.52 439.709 27.865 439.939 27.245C440.169 26.615 440.489 26.04 440.899 25.52C441.309 24.99 441.794 24.515 442.354 24.095C442.924 23.675 443.539 23.315 444.199 23.015C443.609 22.245 443.174 21.5 442.894 20.78C442.624 20.05 442.489 19.305 442.489 18.545C442.489 17.815 442.624 17.125 442.894 16.475C443.164 15.825 443.549 15.26 444.049 14.78C444.549 14.3 445.159 13.92 445.879 13.64C446.609 13.36 447.429 13.22 448.339 13.22C449.149 13.22 449.884 13.35 450.544 13.61C451.214 13.86 451.789 14.2 452.269 14.63C452.749 15.06 453.124 15.555 453.394 16.115C453.674 16.675 453.834 17.26 453.874 17.87L452.044 18.245C451.674 18.325 451.404 18.16 451.234 17.75C451.154 17.49 451.039 17.225 450.889 16.955C450.749 16.685 450.559 16.445 450.319 16.235C450.089 16.015 449.809 15.835 449.479 15.695C449.149 15.555 448.769 15.485 448.339 15.485C447.859 15.485 447.424 15.565 447.034 15.725C446.654 15.885 446.329 16.105 446.059 16.385C445.789 16.655 445.579 16.975 445.429 17.345C445.289 17.715 445.219 18.11 445.219 18.53C445.219 18.86 445.259 19.185 445.339 19.505C445.419 19.815 445.539 20.13 445.699 20.45C445.869 20.76 446.084 21.08 446.344 21.41C446.604 21.73 446.914 22.075 447.274 22.445L453.349 28.67C453.719 28.01 454.014 27.315 454.234 26.585C454.454 25.855 454.599 25.125 454.669 24.395C454.689 24.195 454.749 24.035 454.849 23.915C454.959 23.795 455.114 23.735 455.314 23.735H457.129C457.119 24.935 456.934 26.105 456.574 27.245C456.214 28.375 455.704 29.425 455.044 30.395L459.544 35ZM488.377 32.405L488.362 35H475.012V13.46H488.362V16.055H478.222V22.88H486.382V25.385H478.222V32.405H488.377ZM511.436 35H508.271C508.041 35 507.856 34.94 507.716 34.82C507.576 34.69 507.466 34.555 507.386 34.415L501.821 25.55C501.741 25.8 501.646 26.015 501.536 26.195L496.121 34.415C496.021 34.555 495.906 34.69 495.776 34.82C495.646 34.94 495.481 35 495.281 35H492.296L499.661 23.915L492.611 13.46H495.776C496.006 13.46 496.176 13.495 496.286 13.565C496.396 13.635 496.491 13.74 496.571 13.88L502.016 22.325C502.096 22.065 502.206 21.825 502.346 21.605L507.446 13.94C507.536 13.78 507.636 13.66 507.746 13.58C507.856 13.5 507.996 13.46 508.166 13.46H511.211L504.116 23.78L511.436 35ZM530.12 32.405L530.105 35H516.755V13.46H530.105V16.055H519.965V22.88H528.125V25.385H519.965V32.405H530.12ZM551.046 30.38C551.226 30.38 551.381 30.45 551.511 30.59L552.771 31.97C551.891 33.01 550.816 33.815 549.546 34.385C548.286 34.955 546.766 35.24 544.986 35.24C543.426 35.24 542.011 34.97 540.741 34.43C539.481 33.89 538.401 33.135 537.501 32.165C536.611 31.195 535.921 30.035 535.431 28.685C534.941 27.335 534.696 25.85 534.696 24.23C534.696 22.61 534.951 21.125 535.461 19.775C535.981 18.425 536.706 17.265 537.636 16.295C538.566 15.325 539.676 14.57 540.966 14.03C542.266 13.49 543.701 13.22 545.271 13.22C546.801 13.22 548.161 13.47 549.351 13.97C550.541 14.47 551.576 15.135 552.456 15.965L551.406 17.45C551.336 17.56 551.246 17.65 551.136 17.72C551.036 17.79 550.901 17.825 550.731 17.825C550.541 17.825 550.316 17.73 550.056 17.54C549.806 17.35 549.471 17.14 549.051 16.91C548.641 16.67 548.131 16.455 547.521 16.265C546.911 16.075 546.151 15.98 545.241 15.98C544.171 15.98 543.191 16.17 542.301 16.55C541.411 16.92 540.641 17.46 539.991 18.17C539.351 18.87 538.851 19.735 538.491 20.765C538.141 21.785 537.966 22.94 537.966 24.23C537.966 25.54 538.151 26.705 538.521 27.725C538.891 28.745 539.401 29.61 540.051 30.32C540.701 31.03 541.466 31.57 542.346 31.94C543.226 32.31 544.176 32.495 545.196 32.495C545.816 32.495 546.371 32.46 546.861 32.39C547.361 32.31 547.816 32.195 548.226 32.045C548.646 31.895 549.041 31.705 549.411 31.475C549.781 31.235 550.146 30.95 550.506 30.62C550.586 30.55 550.671 30.495 550.761 30.455C550.851 30.405 550.946 30.38 551.046 30.38ZM566.782 32.435C567.642 32.435 568.412 32.29 569.092 32C569.772 31.71 570.347 31.305 570.817 30.785C571.287 30.255 571.647 29.63 571.897 28.91C572.147 28.18 572.272 27.375 572.272 26.495V13.46H575.452V26.495C575.452 27.755 575.252 28.92 574.852 29.99C574.452 31.06 573.877 31.985 573.127 32.765C572.377 33.545 571.467 34.155 570.397 34.595C569.327 35.035 568.122 35.255 566.782 35.255C565.442 35.255 564.237 35.035 563.167 34.595C562.097 34.155 561.187 33.545 560.437 32.765C559.687 31.985 559.112 31.06 558.712 29.99C558.312 28.92 558.112 27.755 558.112 26.495V13.46H561.307V26.48C561.307 27.36 561.427 28.165 561.667 28.895C561.917 29.625 562.277 30.255 562.747 30.785C563.217 31.305 563.792 31.71 564.472 32C565.152 32.29 565.922 32.435 566.782 32.435ZM597.586 16.13H590.746V35H587.566V16.13H580.696V13.46H597.586V16.13ZM606.294 35H603.084V13.46H606.294V35ZM634.079 24.23C634.079 25.84 633.819 27.32 633.299 28.67C632.789 30.01 632.064 31.17 631.124 32.15C630.184 33.12 629.059 33.875 627.749 34.415C626.439 34.955 624.984 35.225 623.384 35.225C621.794 35.225 620.339 34.955 619.019 34.415C617.709 33.875 616.584 33.12 615.644 32.15C614.714 31.17 613.989 30.01 613.469 28.67C612.949 27.32 612.689 25.84 612.689 24.23C612.689 22.63 612.949 21.155 613.469 19.805C613.989 18.455 614.714 17.295 615.644 16.325C616.584 15.345 617.709 14.585 619.019 14.045C620.339 13.495 621.794 13.22 623.384 13.22C624.984 13.22 626.439 13.495 627.749 14.045C629.059 14.585 630.184 15.345 631.124 16.325C632.064 17.295 632.789 18.455 633.299 19.805C633.819 21.155 634.079 22.63 634.079 24.23ZM630.809 24.23C630.809 22.95 630.634 21.8 630.284 20.78C629.934 19.76 629.434 18.895 628.784 18.185C628.144 17.475 627.364 16.93 626.444 16.55C625.534 16.17 624.514 15.98 623.384 15.98C622.254 15.98 621.229 16.17 620.309 16.55C619.399 16.93 618.619 17.475 617.969 18.185C617.319 18.895 616.819 19.76 616.469 20.78C616.119 21.8 615.944 22.95 615.944 24.23C615.944 25.52 616.119 26.675 616.469 27.695C616.819 28.705 617.319 29.565 617.969 30.275C618.619 30.985 619.399 31.53 620.309 31.91C621.229 32.28 622.254 32.465 623.384 32.465C624.514 32.465 625.534 32.28 626.444 31.91C627.364 31.53 628.144 30.985 628.784 30.275C629.434 29.565 629.934 28.705 630.284 27.695C630.634 26.675 630.809 25.52 630.809 24.23ZM658.131 13.46V35H656.511C656.261 35 656.051 34.955 655.881 34.865C655.721 34.775 655.556 34.63 655.386 34.43L643.221 18.695C643.241 18.965 643.256 19.23 643.266 19.49C643.286 19.75 643.296 19.995 643.296 20.225V35H640.491V13.46H642.141C642.421 13.46 642.631 13.495 642.771 13.565C642.911 13.625 643.066 13.77 643.236 14L655.431 29.75C655.401 29.46 655.376 29.18 655.356 28.91C655.346 28.63 655.341 28.37 655.341 28.13V13.46H658.131Z" fill="white"/>
<path opacity="0.3" d="M188.235 76.515V84.915C187.145 85.695 185.985 86.28 184.755 86.67C183.525 87.05 182.185 87.24 180.735 87.24C178.995 87.24 177.42 86.97 176.01 86.43C174.61 85.89 173.415 85.135 172.425 84.165C171.435 83.195 170.67 82.035 170.13 80.685C169.6 79.335 169.335 77.85 169.335 76.23C169.335 74.6 169.59 73.11 170.1 71.76C170.62 70.4 171.36 69.24 172.32 68.28C173.28 67.31 174.44 66.56 175.8 66.03C177.17 65.49 178.705 65.22 180.405 65.22C181.265 65.22 182.06 65.285 182.79 65.415C183.53 65.545 184.215 65.73 184.845 65.97C185.475 66.21 186.055 66.5 186.585 66.84C187.125 67.17 187.625 67.545 188.085 67.965L187.17 69.405C187.03 69.635 186.845 69.78 186.615 69.84C186.385 69.9 186.135 69.845 185.865 69.675C185.605 69.525 185.315 69.35 184.995 69.15C184.685 68.95 184.31 68.765 183.87 68.595C183.44 68.425 182.935 68.28 182.355 68.16C181.775 68.04 181.09 67.98 180.3 67.98C179.12 67.98 178.055 68.175 177.105 68.565C176.155 68.945 175.345 69.495 174.675 70.215C174.005 70.935 173.49 71.805 173.13 72.825C172.77 73.835 172.59 74.97 172.59 76.23C172.59 77.55 172.78 78.735 173.16 79.785C173.54 80.825 174.075 81.71 174.765 82.44C175.465 83.16 176.31 83.71 177.3 84.09C178.3 84.47 179.415 84.66 180.645 84.66C181.125 84.66 181.57 84.635 181.98 84.585C182.4 84.525 182.8 84.445 183.18 84.345C183.56 84.245 183.925 84.12 184.275 83.97C184.635 83.82 184.99 83.655 185.34 83.475V78.96H182.16C181.96 78.96 181.795 78.9 181.665 78.78C181.545 78.66 181.485 78.51 181.485 78.33V76.515H188.235ZM208.305 84.405L208.29 87H194.94V65.46H208.29V68.055H198.15V74.88H206.31V77.385H198.15V84.405H208.305ZM229.339 68.13H222.499V87H219.319V68.13H212.449V65.46H229.339V68.13ZM249.522 68.13H242.682V87H239.502V68.13H232.632V65.46H249.522V68.13ZM258.231 87H255.021V65.46H258.231V87ZM283.586 65.46V87H281.966C281.716 87 281.506 86.955 281.336 86.865C281.176 86.775 281.011 86.63 280.841 86.43L268.676 70.695C268.696 70.965 268.711 71.23 268.721 71.49C268.741 71.75 268.751 71.995 268.751 72.225V87H265.946V65.46H267.596C267.876 65.46 268.086 65.495 268.226 65.565C268.366 65.625 268.521 65.77 268.691 66L280.886 81.75C280.856 81.46 280.831 81.18 280.811 80.91C280.801 80.63 280.796 80.37 280.796 80.13V65.46H283.586ZM308.895 76.515V84.915C307.805 85.695 306.645 86.28 305.415 86.67C304.185 87.05 302.845 87.24 301.395 87.24C299.655 87.24 298.08 86.97 296.67 86.43C295.27 85.89 294.075 85.135 293.085 84.165C292.095 83.195 291.33 82.035 290.79 80.685C290.26 79.335 289.995 77.85 289.995 76.23C289.995 74.6 290.25 73.11 290.76 71.76C291.28 70.4 292.02 69.24 292.98 68.28C293.94 67.31 295.1 66.56 296.46 66.03C297.83 65.49 299.365 65.22 301.065 65.22C301.925 65.22 302.72 65.285 303.45 65.415C304.19 65.545 304.875 65.73 305.505 65.97C306.135 66.21 306.715 66.5 307.245 66.84C307.785 67.17 308.285 67.545 308.745 67.965L307.83 69.405C307.69 69.635 307.505 69.78 307.275 69.84C307.045 69.9 306.795 69.845 306.525 69.675C306.265 69.525 305.975 69.35 305.655 69.15C305.345 68.95 304.97 68.765 304.53 68.595C304.1 68.425 303.595 68.28 303.015 68.16C302.435 68.04 301.75 67.98 300.96 67.98C299.78 67.98 298.715 68.175 297.765 68.565C296.815 68.945 296.005 69.495 295.335 70.215C294.665 70.935 294.15 71.805 293.79 72.825C293.43 73.835 293.25 74.97 293.25 76.23C293.25 77.55 293.44 78.735 293.82 79.785C294.2 80.825 294.735 81.71 295.425 82.44C296.125 83.16 296.97 83.71 297.96 84.09C298.96 84.47 300.075 84.66 301.305 84.66C301.785 84.66 302.23 84.635 302.64 84.585C303.06 84.525 303.46 84.445 303.84 84.345C304.22 84.245 304.585 84.12 304.935 83.97C305.295 83.82 305.65 83.655 306 83.475V78.96H302.82C302.62 78.96 302.455 78.9 302.325 78.78C302.205 78.66 302.145 78.51 302.145 78.33V76.515H308.895ZM339.364 68.13H332.524V87H329.344V68.13H322.474V65.46H339.364V68.13ZM362.502 65.46V87H359.307V77.295H348.072V87H344.862V65.46H348.072V74.97H359.307V65.46H362.502ZM383.596 84.405L383.581 87H370.231V65.46H383.581V68.055H373.441V74.88H381.601V77.385H373.441V84.405H383.596ZM396.051 75.84C396.871 75.84 397.591 75.74 398.211 75.54C398.841 75.34 399.366 75.06 399.786 74.7C400.206 74.33 400.521 73.895 400.731 73.395C400.941 72.885 401.046 72.325 401.046 71.715C401.046 70.475 400.636 69.54 399.816 68.91C399.006 68.28 397.786 67.965 396.156 67.965H393.141V75.84H396.051ZM406.101 87H403.251C402.681 87 402.266 86.775 402.006 86.325L396.681 78.855C396.511 78.605 396.326 78.43 396.126 78.33C395.926 78.22 395.626 78.165 395.226 78.165H393.141V87H389.946V65.46H396.156C397.546 65.46 398.741 65.605 399.741 65.895C400.751 66.175 401.581 66.58 402.231 67.11C402.891 67.63 403.376 68.26 403.686 69C404.006 69.74 404.166 70.57 404.166 71.49C404.166 72.24 404.051 72.945 403.821 73.605C403.591 74.265 403.251 74.86 402.801 75.39C402.361 75.91 401.821 76.36 401.181 76.74C400.541 77.12 399.816 77.41 399.006 77.61C399.406 77.85 399.751 78.185 400.041 78.615L406.101 87ZM424.636 84.405L424.621 87H411.271V65.46H424.621V68.055H414.481V74.88H422.641V77.385H414.481V84.405H424.636ZM445.519 76.53C444.529 77.08 443.789 77.74 443.299 78.51C442.819 79.27 442.579 80.09 442.579 80.97C442.579 81.59 442.689 82.145 442.909 82.635C443.139 83.115 443.439 83.52 443.809 83.85C444.189 84.18 444.619 84.43 445.099 84.6C445.589 84.77 446.089 84.855 446.599 84.855C447.659 84.855 448.614 84.67 449.464 84.3C450.314 83.92 451.069 83.415 451.729 82.785L445.519 76.53ZM459.544 87H456.694C456.374 87 456.119 86.965 455.929 86.895C455.749 86.815 455.544 86.655 455.314 86.415L453.319 84.405C452.379 85.285 451.299 85.98 450.079 86.49C448.869 86.99 447.539 87.24 446.089 87.24C445.279 87.24 444.484 87.105 443.704 86.835C442.934 86.555 442.244 86.155 441.634 85.635C441.024 85.115 440.529 84.485 440.149 83.745C439.779 82.995 439.594 82.15 439.594 81.21C439.594 80.52 439.709 79.865 439.939 79.245C440.169 78.615 440.489 78.04 440.899 77.52C441.309 76.99 441.794 76.515 442.354 76.095C442.924 75.675 443.539 75.315 444.199 75.015C443.609 74.245 443.174 73.5 442.894 72.78C442.624 72.05 442.489 71.305 442.489 70.545C442.489 69.815 442.624 69.125 442.894 68.475C443.164 67.825 443.549 67.26 444.049 66.78C444.549 66.3 445.159 65.92 445.879 65.64C446.609 65.36 447.429 65.22 448.339 65.22C449.149 65.22 449.884 65.35 450.544 65.61C451.214 65.86 451.789 66.2 452.269 66.63C452.749 67.06 453.124 67.555 453.394 68.115C453.674 68.675 453.834 69.26 453.874 69.87L452.044 70.245C451.674 70.325 451.404 70.16 451.234 69.75C451.154 69.49 451.039 69.225 450.889 68.955C450.749 68.685 450.559 68.445 450.319 68.235C450.089 68.015 449.809 67.835 449.479 67.695C449.149 67.555 448.769 67.485 448.339 67.485C447.859 67.485 447.424 67.565 447.034 67.725C446.654 67.885 446.329 68.105 446.059 68.385C445.789 68.655 445.579 68.975 445.429 69.345C445.289 69.715 445.219 70.11 445.219 70.53C445.219 70.86 445.259 71.185 445.339 71.505C445.419 71.815 445.539 72.13 445.699 72.45C445.869 72.76 446.084 73.08 446.344 73.41C446.604 73.73 446.914 74.075 447.274 74.445L453.349 80.67C453.719 80.01 454.014 79.315 454.234 78.585C454.454 77.855 454.599 77.125 454.669 76.395C454.689 76.195 454.749 76.035 454.849 75.915C454.959 75.795 455.114 75.735 455.314 75.735H457.129C457.119 76.935 456.934 78.105 456.574 79.245C456.214 80.375 455.704 81.425 455.044 82.395L459.544 87ZM488.377 84.405L488.362 87H475.012V65.46H488.362V68.055H478.222V74.88H486.382V77.385H478.222V84.405H488.377ZM511.436 87H508.271C508.041 87 507.856 86.94 507.716 86.82C507.576 86.69 507.466 86.555 507.386 86.415L501.821 77.55C501.741 77.8 501.646 78.015 501.536 78.195L496.121 86.415C496.021 86.555 495.906 86.69 495.776 86.82C495.646 86.94 495.481 87 495.281 87H492.296L499.661 75.915L492.611 65.46H495.776C496.006 65.46 496.176 65.495 496.286 65.565C496.396 65.635 496.491 65.74 496.571 65.88L502.016 74.325C502.096 74.065 502.206 73.825 502.346 73.605L507.446 65.94C507.536 65.78 507.636 65.66 507.746 65.58C507.856 65.5 507.996 65.46 508.166 65.46H511.211L504.116 75.78L511.436 87ZM530.12 84.405L530.105 87H516.755V65.46H530.105V68.055H519.965V74.88H528.125V77.385H519.965V84.405H530.12ZM551.046 82.38C551.226 82.38 551.381 82.45 551.511 82.59L552.771 83.97C551.891 85.01 550.816 85.815 549.546 86.385C548.286 86.955 546.766 87.24 544.986 87.24C543.426 87.24 542.011 86.97 540.741 86.43C539.481 85.89 538.401 85.135 537.501 84.165C536.611 83.195 535.921 82.035 535.431 80.685C534.941 79.335 534.696 77.85 534.696 76.23C534.696 74.61 534.951 73.125 535.461 71.775C535.981 70.425 536.706 69.265 537.636 68.295C538.566 67.325 539.676 66.57 540.966 66.03C542.266 65.49 543.701 65.22 545.271 65.22C546.801 65.22 548.161 65.47 549.351 65.97C550.541 66.47 551.576 67.135 552.456 67.965L551.406 69.45C551.336 69.56 551.246 69.65 551.136 69.72C551.036 69.79 550.901 69.825 550.731 69.825C550.541 69.825 550.316 69.73 550.056 69.54C549.806 69.35 549.471 69.14 549.051 68.91C548.641 68.67 548.131 68.455 547.521 68.265C546.911 68.075 546.151 67.98 545.241 67.98C544.171 67.98 543.191 68.17 542.301 68.55C541.411 68.92 540.641 69.46 539.991 70.17C539.351 70.87 538.851 71.735 538.491 72.765C538.141 73.785 537.966 74.94 537.966 76.23C537.966 77.54 538.151 78.705 538.521 79.725C538.891 80.745 539.401 81.61 540.051 82.32C540.701 83.03 541.466 83.57 542.346 83.94C543.226 84.31 544.176 84.495 545.196 84.495C545.816 84.495 546.371 84.46 546.861 84.39C547.361 84.31 547.816 84.195 548.226 84.045C548.646 83.895 549.041 83.705 549.411 83.475C549.781 83.235 550.146 82.95 550.506 82.62C550.586 82.55 550.671 82.495 550.761 82.455C550.851 82.405 550.946 82.38 551.046 82.38ZM566.782 84.435C567.642 84.435 568.412 84.29 569.092 84C569.772 83.71 570.347 83.305 570.817 82.785C571.287 82.255 571.647 81.63 571.897 80.91C572.147 80.18 572.272 79.375 572.272 78.495V65.46H575.452V78.495C575.452 79.755 575.252 80.92 574.852 81.99C574.452 83.06 573.877 83.985 573.127 84.765C572.377 85.545 571.467 86.155 570.397 86.595C569.327 87.035 568.122 87.255 566.782 87.255C565.442 87.255 564.237 87.035 563.167 86.595C562.097 86.155 561.187 85.545 560.437 84.765C559.687 83.985 559.112 83.06 558.712 81.99C558.312 80.92 558.112 79.755 558.112 78.495V65.46H561.307V78.48C561.307 79.36 561.427 80.165 561.667 80.895C561.917 81.625 562.277 82.255 562.747 82.785C563.217 83.305 563.792 83.71 564.472 84C565.152 84.29 565.922 84.435 566.782 84.435ZM597.586 68.13H590.746V87H587.566V68.13H580.696V65.46H597.586V68.13ZM606.294 87H603.084V65.46H606.294V87ZM634.079 76.23C634.079 77.84 633.819 79.32 633.299 80.67C632.789 82.01 632.064 83.17 631.124 84.15C630.184 85.12 629.059 85.875 627.749 86.415C626.439 86.955 624.984 87.225 623.384 87.225C621.794 87.225 620.339 86.955 619.019 86.415C617.709 85.875 616.584 85.12 615.644 84.15C614.714 83.17 613.989 82.01 613.469 80.67C612.949 79.32 612.689 77.84 612.689 76.23C612.689 74.63 612.949 73.155 613.469 71.805C613.989 70.455 614.714 69.295 615.644 68.325C616.584 67.345 617.709 66.585 619.019 66.045C620.339 65.495 621.794 65.22 623.384 65.22C624.984 65.22 626.439 65.495 627.749 66.045C629.059 66.585 630.184 67.345 631.124 68.325C632.064 69.295 632.789 70.455 633.299 71.805C633.819 73.155 634.079 74.63 634.079 76.23ZM630.809 76.23C630.809 74.95 630.634 73.8 630.284 72.78C629.934 71.76 629.434 70.895 628.784 70.185C628.144 69.475 627.364 68.93 626.444 68.55C625.534 68.17 624.514 67.98 623.384 67.98C622.254 67.98 621.229 68.17 620.309 68.55C619.399 68.93 618.619 69.475 617.969 70.185C617.319 70.895 616.819 71.76 616.469 72.78C616.119 73.8 615.944 74.95 615.944 76.23C615.944 77.52 616.119 78.675 616.469 79.695C616.819 80.705 617.319 81.565 617.969 82.275C618.619 82.985 619.399 83.53 620.309 83.91C621.229 84.28 622.254 84.465 623.384 84.465C624.514 84.465 625.534 84.28 626.444 83.91C627.364 83.53 628.144 82.985 628.784 82.275C629.434 81.565 629.934 80.705 630.284 79.695C630.634 78.675 630.809 77.52 630.809 76.23ZM658.131 65.46V87H656.511C656.261 87 656.051 86.955 655.881 86.865C655.721 86.775 655.556 86.63 655.386 86.43L643.221 70.695C643.241 70.965 643.256 71.23 643.266 71.49C643.286 71.75 643.296 71.995 643.296 72.225V87H640.491V65.46H642.141C642.421 65.46 642.631 65.495 642.771 65.565C642.911 65.625 643.066 65.77 643.236 66L655.431 81.75C655.401 81.46 655.376 81.18 655.356 80.91C655.346 80.63 655.341 80.37 655.341 80.13V65.46H658.131Z" fill="white"/>
<path d="M188.235 128.515V136.915C187.145 137.695 185.985 138.28 184.755 138.67C183.525 139.05 182.185 139.24 180.735 139.24C178.995 139.24 177.42 138.97 176.01 138.43C174.61 137.89 173.415 137.135 172.425 136.165C171.435 135.195 170.67 134.035 170.13 132.685C169.6 131.335 169.335 129.85 169.335 128.23C169.335 126.6 169.59 125.11 170.1 123.76C170.62 122.4 171.36 121.24 172.32 120.28C173.28 119.31 174.44 118.56 175.8 118.03C177.17 117.49 178.705 117.22 180.405 117.22C181.265 117.22 182.06 117.285 182.79 117.415C183.53 117.545 184.215 117.73 184.845 117.97C185.475 118.21 186.055 118.5 186.585 118.84C187.125 119.17 187.625 119.545 188.085 119.965L187.17 121.405C187.03 121.635 186.845 121.78 186.615 121.84C186.385 121.9 186.135 121.845 185.865 121.675C185.605 121.525 185.315 121.35 184.995 121.15C184.685 120.95 184.31 120.765 183.87 120.595C183.44 120.425 182.935 120.28 182.355 120.16C181.775 120.04 181.09 119.98 180.3 119.98C179.12 119.98 178.055 120.175 177.105 120.565C176.155 120.945 175.345 121.495 174.675 122.215C174.005 122.935 173.49 123.805 173.13 124.825C172.77 125.835 172.59 126.97 172.59 128.23C172.59 129.55 172.78 130.735 173.16 131.785C173.54 132.825 174.075 133.71 174.765 134.44C175.465 135.16 176.31 135.71 177.3 136.09C178.3 136.47 179.415 136.66 180.645 136.66C181.125 136.66 181.57 136.635 181.98 136.585C182.4 136.525 182.8 136.445 183.18 136.345C183.56 136.245 183.925 136.12 184.275 135.97C184.635 135.82 184.99 135.655 185.34 135.475V130.96H182.16C181.96 130.96 181.795 130.9 181.665 130.78C181.545 130.66 181.485 130.51 181.485 130.33V128.515H188.235ZM208.305 136.405L208.29 139H194.94V117.46H208.29V120.055H198.15V126.88H206.31V129.385H198.15V136.405H208.305ZM229.339 120.13H222.499V139H219.319V120.13H212.449V117.46H229.339V120.13ZM249.522 120.13H242.682V139H239.502V120.13H232.632V117.46H249.522V120.13ZM258.231 139H255.021V117.46H258.231V139ZM283.586 117.46V139H281.966C281.716 139 281.506 138.955 281.336 138.865C281.176 138.775 281.011 138.63 280.841 138.43L268.676 122.695C268.696 122.965 268.711 123.23 268.721 123.49C268.741 123.75 268.751 123.995 268.751 124.225V139H265.946V117.46H267.596C267.876 117.46 268.086 117.495 268.226 117.565C268.366 117.625 268.521 117.77 268.691 118L280.886 133.75C280.856 133.46 280.831 133.18 280.811 132.91C280.801 132.63 280.796 132.37 280.796 132.13V117.46H283.586ZM308.895 128.515V136.915C307.805 137.695 306.645 138.28 305.415 138.67C304.185 139.05 302.845 139.24 301.395 139.24C299.655 139.24 298.08 138.97 296.67 138.43C295.27 137.89 294.075 137.135 293.085 136.165C292.095 135.195 291.33 134.035 290.79 132.685C290.26 131.335 289.995 129.85 289.995 128.23C289.995 126.6 290.25 125.11 290.76 123.76C291.28 122.4 292.02 121.24 292.98 120.28C293.94 119.31 295.1 118.56 296.46 118.03C297.83 117.49 299.365 117.22 301.065 117.22C301.925 117.22 302.72 117.285 303.45 117.415C304.19 117.545 304.875 117.73 305.505 117.97C306.135 118.21 306.715 118.5 307.245 118.84C307.785 119.17 308.285 119.545 308.745 119.965L307.83 121.405C307.69 121.635 307.505 121.78 307.275 121.84C307.045 121.9 306.795 121.845 306.525 121.675C306.265 121.525 305.975 121.35 305.655 121.15C305.345 120.95 304.97 120.765 304.53 120.595C304.1 120.425 303.595 120.28 303.015 120.16C302.435 120.04 301.75 119.98 300.96 119.98C299.78 119.98 298.715 120.175 297.765 120.565C296.815 120.945 296.005 121.495 295.335 122.215C294.665 122.935 294.15 123.805 293.79 124.825C293.43 125.835 293.25 126.97 293.25 128.23C293.25 129.55 293.44 130.735 293.82 131.785C294.2 132.825 294.735 133.71 295.425 134.44C296.125 135.16 296.97 135.71 297.96 136.09C298.96 136.47 300.075 136.66 301.305 136.66C301.785 136.66 302.23 136.635 302.64 136.585C303.06 136.525 303.46 136.445 303.84 136.345C304.22 136.245 304.585 136.12 304.935 135.97C305.295 135.82 305.65 135.655 306 135.475V130.96H302.82C302.62 130.96 302.455 130.9 302.325 130.78C302.205 130.66 302.145 130.51 302.145 130.33V128.515H308.895ZM339.364 120.13H332.524V139H329.344V120.13H322.474V117.46H339.364V120.13ZM362.502 117.46V139H359.307V129.295H348.072V139H344.862V117.46H348.072V126.97H359.307V117.46H362.502ZM383.596 136.405L383.581 139H370.231V117.46H383.581V120.055H373.441V126.88H381.601V129.385H373.441V136.405H383.596ZM396.051 127.84C396.871 127.84 397.591 127.74 398.211 127.54C398.841 127.34 399.366 127.06 399.786 126.7C400.206 126.33 400.521 125.895 400.731 125.395C400.941 124.885 401.046 124.325 401.046 123.715C401.046 122.475 400.636 121.54 399.816 120.91C399.006 120.28 397.786 119.965 396.156 119.965H393.141V127.84H396.051ZM406.101 139H403.251C402.681 139 402.266 138.775 402.006 138.325L396.681 130.855C396.511 130.605 396.326 130.43 396.126 130.33C395.926 130.22 395.626 130.165 395.226 130.165H393.141V139H389.946V117.46H396.156C397.546 117.46 398.741 117.605 399.741 117.895C400.751 118.175 401.581 118.58 402.231 119.11C402.891 119.63 403.376 120.26 403.686 121C404.006 121.74 404.166 122.57 404.166 123.49C404.166 124.24 404.051 124.945 403.821 125.605C403.591 126.265 403.251 126.86 402.801 127.39C402.361 127.91 401.821 128.36 401.181 128.74C400.541 129.12 399.816 129.41 399.006 129.61C399.406 129.85 399.751 130.185 400.041 130.615L406.101 139ZM424.636 136.405L424.621 139H411.271V117.46H424.621V120.055H414.481V126.88H422.641V129.385H414.481V136.405H424.636ZM445.519 128.53C444.529 129.08 443.789 129.74 443.299 130.51C442.819 131.27 442.579 132.09 442.579 132.97C442.579 133.59 442.689 134.145 442.909 134.635C443.139 135.115 443.439 135.52 443.809 135.85C444.189 136.18 444.619 136.43 445.099 136.6C445.589 136.77 446.089 136.855 446.599 136.855C447.659 136.855 448.614 136.67 449.464 136.3C450.314 135.92 451.069 135.415 451.729 134.785L445.519 128.53ZM459.544 139H456.694C456.374 139 456.119 138.965 455.929 138.895C455.749 138.815 455.544 138.655 455.314 138.415L453.319 136.405C452.379 137.285 451.299 137.98 450.079 138.49C448.869 138.99 447.539 139.24 446.089 139.24C445.279 139.24 444.484 139.105 443.704 138.835C442.934 138.555 442.244 138.155 441.634 137.635C441.024 137.115 440.529 136.485 440.149 135.745C439.779 134.995 439.594 134.15 439.594 133.21C439.594 132.52 439.709 131.865 439.939 131.245C440.169 130.615 440.489 130.04 440.899 129.52C441.309 128.99 441.794 128.515 442.354 128.095C442.924 127.675 443.539 127.315 444.199 127.015C443.609 126.245 443.174 125.5 442.894 124.78C442.624 124.05 442.489 123.305 442.489 122.545C442.489 121.815 442.624 121.125 442.894 120.475C443.164 119.825 443.549 119.26 444.049 118.78C444.549 118.3 445.159 117.92 445.879 117.64C446.609 117.36 447.429 117.22 448.339 117.22C449.149 117.22 449.884 117.35 450.544 117.61C451.214 117.86 451.789 118.2 452.269 118.63C452.749 119.06 453.124 119.555 453.394 120.115C453.674 120.675 453.834 121.26 453.874 121.87L452.044 122.245C451.674 122.325 451.404 122.16 451.234 121.75C451.154 121.49 451.039 121.225 450.889 120.955C450.749 120.685 450.559 120.445 450.319 120.235C450.089 120.015 449.809 119.835 449.479 119.695C449.149 119.555 448.769 119.485 448.339 119.485C447.859 119.485 447.424 119.565 447.034 119.725C446.654 119.885 446.329 120.105 446.059 120.385C445.789 120.655 445.579 120.975 445.429 121.345C445.289 121.715 445.219 122.11 445.219 122.53C445.219 122.86 445.259 123.185 445.339 123.505C445.419 123.815 445.539 124.13 445.699 124.45C445.869 124.76 446.084 125.08 446.344 125.41C446.604 125.73 446.914 126.075 447.274 126.445L453.349 132.67C453.719 132.01 454.014 131.315 454.234 130.585C454.454 129.855 454.599 129.125 454.669 128.395C454.689 128.195 454.749 128.035 454.849 127.915C454.959 127.795 455.114 127.735 455.314 127.735H457.129C457.119 128.935 456.934 130.105 456.574 131.245C456.214 132.375 455.704 133.425 455.044 134.395L459.544 139ZM488.377 136.405L488.362 139H475.012V117.46H488.362V120.055H478.222V126.88H486.382V129.385H478.222V136.405H488.377ZM511.436 139H508.271C508.041 139 507.856 138.94 507.716 138.82C507.576 138.69 507.466 138.555 507.386 138.415L501.821 129.55C501.741 129.8 501.646 130.015 501.536 130.195L496.121 138.415C496.021 138.555 495.906 138.69 495.776 138.82C495.646 138.94 495.481 139 495.281 139H492.296L499.661 127.915L492.611 117.46H495.776C496.006 117.46 496.176 117.495 496.286 117.565C496.396 117.635 496.491 117.74 496.571 117.88L502.016 126.325C502.096 126.065 502.206 125.825 502.346 125.605L507.446 117.94C507.536 117.78 507.636 117.66 507.746 117.58C507.856 117.5 507.996 117.46 508.166 117.46H511.211L504.116 127.78L511.436 139ZM530.12 136.405L530.105 139H516.755V117.46H530.105V120.055H519.965V126.88H528.125V129.385H519.965V136.405H530.12ZM551.046 134.38C551.226 134.38 551.381 134.45 551.511 134.59L552.771 135.97C551.891 137.01 550.816 137.815 549.546 138.385C548.286 138.955 546.766 139.24 544.986 139.24C543.426 139.24 542.011 138.97 540.741 138.43C539.481 137.89 538.401 137.135 537.501 136.165C536.611 135.195 535.921 134.035 535.431 132.685C534.941 131.335 534.696 129.85 534.696 128.23C534.696 126.61 534.951 125.125 535.461 123.775C535.981 122.425 536.706 121.265 537.636 120.295C538.566 119.325 539.676 118.57 540.966 118.03C542.266 117.49 543.701 117.22 545.271 117.22C546.801 117.22 548.161 117.47 549.351 117.97C550.541 118.47 551.576 119.135 552.456 119.965L551.406 121.45C551.336 121.56 551.246 121.65 551.136 121.72C551.036 121.79 550.901 121.825 550.731 121.825C550.541 121.825 550.316 121.73 550.056 121.54C549.806 121.35 549.471 121.14 549.051 120.91C548.641 120.67 548.131 120.455 547.521 120.265C546.911 120.075 546.151 119.98 545.241 119.98C544.171 119.98 543.191 120.17 542.301 120.55C541.411 120.92 540.641 121.46 539.991 122.17C539.351 122.87 538.851 123.735 538.491 124.765C538.141 125.785 537.966 126.94 537.966 128.23C537.966 129.54 538.151 130.705 538.521 131.725C538.891 132.745 539.401 133.61 540.051 134.32C540.701 135.03 541.466 135.57 542.346 135.94C543.226 136.31 544.176 136.495 545.196 136.495C545.816 136.495 546.371 136.46 546.861 136.39C547.361 136.31 547.816 136.195 548.226 136.045C548.646 135.895 549.041 135.705 549.411 135.475C549.781 135.235 550.146 134.95 550.506 134.62C550.586 134.55 550.671 134.495 550.761 134.455C550.851 134.405 550.946 134.38 551.046 134.38ZM566.782 136.435C567.642 136.435 568.412 136.29 569.092 136C569.772 135.71 570.347 135.305 570.817 134.785C571.287 134.255 571.647 133.63 571.897 132.91C572.147 132.18 572.272 131.375 572.272 130.495V117.46H575.452V130.495C575.452 131.755 575.252 132.92 574.852 133.99C574.452 135.06 573.877 135.985 573.127 136.765C572.377 137.545 571.467 138.155 570.397 138.595C569.327 139.035 568.122 139.255 566.782 139.255C565.442 139.255 564.237 139.035 563.167 138.595C562.097 138.155 561.187 137.545 560.437 136.765C559.687 135.985 559.112 135.06 558.712 133.99C558.312 132.92 558.112 131.755 558.112 130.495V117.46H561.307V130.48C561.307 131.36 561.427 132.165 561.667 132.895C561.917 133.625 562.277 134.255 562.747 134.785C563.217 135.305 563.792 135.71 564.472 136C565.152 136.29 565.922 136.435 566.782 136.435ZM597.586 120.13H590.746V139H587.566V120.13H580.696V117.46H597.586V120.13ZM606.294 139H603.084V117.46H606.294V139ZM634.079 128.23C634.079 129.84 633.819 131.32 633.299 132.67C632.789 134.01 632.064 135.17 631.124 136.15C630.184 137.12 629.059 137.875 627.749 138.415C626.439 138.955 624.984 139.225 623.384 139.225C621.794 139.225 620.339 138.955 619.019 138.415C617.709 137.875 616.584 137.12 615.644 136.15C614.714 135.17 613.989 134.01 613.469 132.67C612.949 131.32 612.689 129.84 612.689 128.23C612.689 126.63 612.949 125.155 613.469 123.805C613.989 122.455 614.714 121.295 615.644 120.325C616.584 119.345 617.709 118.585 619.019 118.045C620.339 117.495 621.794 117.22 623.384 117.22C624.984 117.22 626.439 117.495 627.749 118.045C629.059 118.585 630.184 119.345 631.124 120.325C632.064 121.295 632.789 122.455 633.299 123.805C633.819 125.155 634.079 126.63 634.079 128.23ZM630.809 128.23C630.809 126.95 630.634 125.8 630.284 124.78C629.934 123.76 629.434 122.895 628.784 122.185C628.144 121.475 627.364 120.93 626.444 120.55C625.534 120.17 624.514 119.98 623.384 119.98C622.254 119.98 621.229 120.17 620.309 120.55C619.399 120.93 618.619 121.475 617.969 122.185C617.319 122.895 616.819 123.76 616.469 124.78C616.119 125.8 615.944 126.95 615.944 128.23C615.944 129.52 616.119 130.675 616.469 131.695C616.819 132.705 617.319 133.565 617.969 134.275C618.619 134.985 619.399 135.53 620.309 135.91C621.229 136.28 622.254 136.465 623.384 136.465C624.514 136.465 625.534 136.28 626.444 135.91C627.364 135.53 628.144 134.985 628.784 134.275C629.434 133.565 629.934 132.705 630.284 131.695C630.634 130.675 630.809 129.52 630.809 128.23ZM658.131 117.46V139H656.511C656.261 139 656.051 138.955 655.881 138.865C655.721 138.775 655.556 138.63 655.386 138.43L643.221 122.695C643.241 122.965 643.256 123.23 643.266 123.49C643.286 123.75 643.296 123.995 643.296 124.225V139H640.491V117.46H642.141C642.421 117.46 642.631 117.495 642.771 117.565C642.911 117.625 643.066 117.77 643.236 118L655.431 133.75C655.401 133.46 655.376 133.18 655.356 132.91C655.346 132.63 655.341 132.37 655.341 132.13V117.46H658.131Z" fill="white"/>
<path d="M68.7 236C63.5 236 58.5 235.5 53.7 234.5C49.1 233.7 44.1 231.9 38.7 229.1C33.5 226.3 28.9 222.7 24.9 218.3C21.1 213.7 17.7 207.6 14.7 200C11.9 192.4 10.2 183.6 9.6 173.6C9.4 171.2 9.8 169.6 10.8 168.8C11.8 167.8 13.5 167.3 15.9 167.3H47.4C49 167.3 50.2 167.5 51 167.9C51.8 168.3 52.4 169 52.8 170C53.4 170.8 53.7 172 53.7 173.6C53.9 177.8 54.5 181.2 55.5 183.8C56.5 186.2 57.9 188 59.7 189.2C61.7 190.4 64.3 191 67.5 191C72.1 191 75.4 189.6 77.4 186.8C79.6 184 80.7 179.6 80.7 173.6V159.8C80.7 155.8 79.9 152.4 78.3 149.6C76.9 146.8 75.1 144.9 72.9 143.9C70.9 142.9 68.7 142.4 66.3 142.4H54C49.8 142.4 47.7 140.3 47.7 136.1V100.7C47.7 96.5 49.8 94.4 54 94.4H66.3C70.1 94.4 73.4 93 76.2 90.2C79.2 87.4 80.7 83 80.7 77V67.4C80.7 61.4 79.7 57 77.7 54.2C75.7 51.4 72.4 50 67.8 50C64.6 50 62 50.6 60 51.8C58.2 53 56.8 54.9 55.8 57.5C54.8 59.9 54.2 63.2 54 67.4C53.8 69.6 53.2 71.2 52.2 72.2C51.4 73.2 49.9 73.7 47.7 73.7H16.2C14.6 73.7 13.3 73.5 12.3 73.1C11.5 72.7 10.9 72.1 10.5 71.3C10.1 70.3 9.9 69 9.9 67.4C10.5 57.4 12.2 48.6 15 41C18 33.4 21.4 27.4 25.2 23C29.2 18.4 33.8 14.7 39 11.9C44.2 9.09999 49.1 7.29999 53.7 6.49998C58.5 5.49998 63.5 4.99998 68.7 4.99998C77.3 4.99998 85.2 6.29999 92.4 8.89999C99.6 11.3 106.2 15.2 112.2 20.6C118.4 25.8 123.2 33.1 126.6 42.5C130 51.9 131.7 63 131.7 75.8V78.8C131.7 92.4 127.8 104.2 120 114.2C117.8 117.2 117.8 120.2 120 123.2C127.8 133.4 131.7 145.4 131.7 159.2V165.2C131.7 178 130 189.1 126.6 198.5C123.2 207.9 118.4 215.3 112.2 220.7C106.2 225.9 99.6 229.8 92.4 232.4C85.2 234.8 77.3 236 68.7 236Z" fill="#031A27"/>
</svg>
