<svg width="711" height="300" viewBox="0 0 711 300" fill="none" xmlns="http://www.w3.org/2000/svg">
<path d="M177.72 181.86L174.84 174.71C174.74 174.477 174.643 174.197 174.55 173.87C174.51 174.03 174.467 174.183 174.42 174.33C174.373 174.47 174.323 174.6 174.27 174.72L171.39 181.86H177.72ZM180.85 187H180.06C179.967 187 179.89 186.977 179.83 186.93C179.77 186.877 179.723 186.81 179.69 186.73L178.03 182.62H171.08L169.42 186.73C169.393 186.803 169.347 186.867 169.28 186.92C169.213 186.973 169.133 187 169.04 187H168.26L174.05 172.85H175.06L180.85 187ZM190.136 178.07V184.82C190.136 185.093 190.169 185.33 190.236 185.53C190.309 185.723 190.406 185.883 190.526 186.01C190.652 186.137 190.799 186.23 190.966 186.29C191.132 186.35 191.312 186.38 191.506 186.38C191.746 186.38 191.952 186.347 192.126 186.28C192.299 186.207 192.449 186.13 192.576 186.05C192.702 185.963 192.806 185.887 192.886 185.82C192.966 185.747 193.029 185.71 193.076 185.71C193.129 185.71 193.182 185.743 193.236 185.81L193.496 186.23C193.242 186.51 192.919 186.737 192.526 186.91C192.139 187.077 191.736 187.16 191.316 187.16C190.642 187.16 190.116 186.973 189.736 186.6C189.362 186.227 189.176 185.65 189.176 184.87V178.07H183.866V187H182.906V178.09L181.506 178C181.319 177.98 181.226 177.897 181.226 177.75V177.36H182.906V176.1C182.906 175.533 182.979 175.037 183.126 174.61C183.272 174.177 183.479 173.817 183.746 173.53C184.012 173.243 184.332 173.03 184.706 172.89C185.079 172.743 185.492 172.67 185.946 172.67C186.152 172.67 186.359 172.69 186.566 172.73C186.779 172.763 186.969 172.813 187.136 172.88L187.106 173.34C187.092 173.4 187.062 173.44 187.016 173.46C186.976 173.473 186.916 173.48 186.836 173.48C186.756 173.473 186.652 173.463 186.526 173.45C186.399 173.43 186.252 173.42 186.086 173.42C185.759 173.42 185.456 173.47 185.176 173.57C184.902 173.663 184.666 173.817 184.466 174.03C184.266 174.243 184.109 174.523 183.996 174.87C183.889 175.21 183.836 175.63 183.836 176.13V177.36H189.196L189.436 173.79C189.449 173.73 189.476 173.677 189.516 173.63C189.556 173.583 189.612 173.56 189.686 173.56H190.136V177.36H193.286V178.07H190.136ZM202.382 181.02C202.382 180.487 202.305 180.01 202.152 179.59C202.005 179.163 201.795 178.803 201.522 178.51C201.248 178.217 200.922 177.993 200.542 177.84C200.168 177.68 199.755 177.6 199.302 177.6C198.788 177.6 198.328 177.68 197.922 177.84C197.515 178 197.162 178.23 196.862 178.53C196.568 178.83 196.332 179.19 196.152 179.61C195.972 180.03 195.852 180.5 195.792 181.02H202.382ZM195.742 181.63V181.82C195.742 182.567 195.828 183.223 196.002 183.79C196.175 184.357 196.422 184.833 196.742 185.22C197.062 185.6 197.448 185.887 197.902 186.08C198.355 186.273 198.862 186.37 199.422 186.37C199.922 186.37 200.355 186.317 200.722 186.21C201.088 186.097 201.395 185.973 201.642 185.84C201.895 185.7 202.095 185.577 202.242 185.47C202.388 185.357 202.495 185.3 202.562 185.3C202.648 185.3 202.715 185.333 202.762 185.4L203.022 185.72C202.862 185.92 202.648 186.107 202.382 186.28C202.122 186.453 201.828 186.603 201.502 186.73C201.182 186.85 200.835 186.947 200.462 187.02C200.095 187.093 199.725 187.13 199.352 187.13C198.672 187.13 198.052 187.013 197.492 186.78C196.932 186.54 196.452 186.193 196.052 185.74C195.652 185.287 195.342 184.733 195.122 184.08C194.908 183.42 194.802 182.667 194.802 181.82C194.802 181.107 194.902 180.45 195.102 179.85C195.308 179.243 195.602 178.723 195.982 178.29C196.368 177.85 196.838 177.507 197.392 177.26C197.952 177.013 198.585 176.89 199.292 176.89C199.852 176.89 200.372 176.987 200.852 177.18C201.332 177.373 201.748 177.657 202.102 178.03C202.455 178.397 202.732 178.85 202.932 179.39C203.138 179.93 203.242 180.55 203.242 181.25C203.242 181.397 203.222 181.497 203.182 181.55C203.142 181.603 203.075 181.63 202.982 181.63H195.742ZM206.741 179.45C206.895 179.043 207.068 178.683 207.261 178.37C207.461 178.05 207.688 177.78 207.941 177.56C208.201 177.34 208.488 177.173 208.801 177.06C209.121 176.94 209.475 176.88 209.861 176.88C210.068 176.88 210.271 176.9 210.471 176.94C210.671 176.973 210.848 177.037 211.001 177.13L210.921 177.79C210.888 177.897 210.825 177.95 210.731 177.95C210.651 177.95 210.528 177.927 210.361 177.88C210.201 177.833 209.988 177.81 209.721 177.81C209.335 177.81 208.991 177.87 208.691 177.99C208.398 178.103 208.131 178.277 207.891 178.51C207.658 178.743 207.451 179.033 207.271 179.38C207.098 179.72 206.938 180.113 206.791 180.56V187H205.831V177.05H206.341C206.455 177.05 206.535 177.073 206.581 177.12C206.628 177.167 206.658 177.247 206.671 177.36L206.741 179.45ZM220.622 187.16C219.948 187.16 219.422 186.973 219.042 186.6C218.668 186.227 218.482 185.65 218.482 184.87V178.07H217.052C216.978 178.07 216.918 178.05 216.872 178.01C216.825 177.97 216.802 177.913 216.802 177.84V177.47L218.502 177.35L218.742 173.79C218.755 173.73 218.782 173.677 218.822 173.63C218.862 173.583 218.918 173.56 218.992 173.56H219.442V177.36H222.582V178.07H219.442V184.82C219.442 185.093 219.475 185.33 219.542 185.53C219.615 185.723 219.712 185.883 219.832 186.01C219.958 186.137 220.105 186.23 220.272 186.29C220.438 186.35 220.618 186.38 220.812 186.38C221.052 186.38 221.258 186.347 221.432 186.28C221.605 186.207 221.755 186.13 221.882 186.05C222.008 185.963 222.112 185.887 222.192 185.82C222.272 185.747 222.335 185.71 222.382 185.71C222.435 185.71 222.488 185.743 222.542 185.81L222.802 186.23C222.548 186.51 222.225 186.737 221.832 186.91C221.445 187.077 221.042 187.16 220.622 187.16ZM225.717 178.73C226.177 178.17 226.701 177.723 227.287 177.39C227.881 177.057 228.544 176.89 229.277 176.89C229.824 176.89 230.304 176.977 230.717 177.15C231.137 177.323 231.484 177.573 231.757 177.9C232.031 178.227 232.237 178.62 232.377 179.08C232.517 179.54 232.587 180.06 232.587 180.64V187H231.627V180.64C231.627 179.707 231.414 178.977 230.987 178.45C230.561 177.917 229.911 177.65 229.037 177.65C228.391 177.65 227.784 177.817 227.217 178.15C226.657 178.477 226.157 178.933 225.717 179.52V187H224.757V172.45H225.717V178.73ZM242.733 181.02C242.733 180.487 242.657 180.01 242.503 179.59C242.357 179.163 242.147 178.803 241.873 178.51C241.6 178.217 241.273 177.993 240.893 177.84C240.52 177.68 240.107 177.6 239.653 177.6C239.14 177.6 238.68 177.68 238.273 177.84C237.867 178 237.513 178.23 237.213 178.53C236.92 178.83 236.683 179.19 236.503 179.61C236.323 180.03 236.203 180.5 236.143 181.02H242.733ZM236.093 181.63V181.82C236.093 182.567 236.18 183.223 236.353 183.79C236.527 184.357 236.773 184.833 237.093 185.22C237.413 185.6 237.8 185.887 238.253 186.08C238.707 186.273 239.213 186.37 239.773 186.37C240.273 186.37 240.707 186.317 241.073 186.21C241.44 186.097 241.747 185.973 241.993 185.84C242.247 185.7 242.447 185.577 242.593 185.47C242.74 185.357 242.847 185.3 242.913 185.3C243 185.3 243.067 185.333 243.113 185.4L243.373 185.72C243.213 185.92 243 186.107 242.733 186.28C242.473 186.453 242.18 186.603 241.853 186.73C241.533 186.85 241.187 186.947 240.813 187.02C240.447 187.093 240.077 187.13 239.703 187.13C239.023 187.13 238.403 187.013 237.843 186.78C237.283 186.54 236.803 186.193 236.403 185.74C236.003 185.287 235.693 184.733 235.473 184.08C235.26 183.42 235.153 182.667 235.153 181.82C235.153 181.107 235.253 180.45 235.453 179.85C235.66 179.243 235.953 178.723 236.333 178.29C236.72 177.85 237.19 177.507 237.743 177.26C238.303 177.013 238.937 176.89 239.643 176.89C240.203 176.89 240.723 176.987 241.203 177.18C241.683 177.373 242.1 177.657 242.453 178.03C242.807 178.397 243.083 178.85 243.283 179.39C243.49 179.93 243.593 180.55 243.593 181.25C243.593 181.397 243.573 181.497 243.533 181.55C243.493 181.603 243.427 181.63 243.333 181.63H236.093ZM252.573 184.83C252.959 185.403 253.383 185.807 253.843 186.04C254.309 186.267 254.833 186.38 255.413 186.38C256.006 186.38 256.523 186.273 256.963 186.06C257.409 185.847 257.779 185.543 258.073 185.15C258.373 184.75 258.596 184.267 258.743 183.7C258.889 183.133 258.963 182.497 258.963 181.79C258.963 180.417 258.689 179.383 258.143 178.69C257.596 177.997 256.829 177.65 255.843 177.65C255.136 177.65 254.519 177.82 253.993 178.16C253.466 178.5 252.993 178.973 252.573 179.58V184.83ZM252.573 178.78C253.006 178.193 253.513 177.733 254.093 177.4C254.673 177.06 255.346 176.89 256.113 176.89C256.713 176.89 257.249 177 257.723 177.22C258.196 177.44 258.596 177.757 258.923 178.17C259.256 178.583 259.509 179.093 259.683 179.7C259.856 180.3 259.943 180.983 259.943 181.75C259.943 182.557 259.846 183.293 259.653 183.96C259.459 184.62 259.176 185.187 258.803 185.66C258.436 186.127 257.986 186.49 257.453 186.75C256.919 187.003 256.309 187.13 255.623 187.13C254.916 187.13 254.313 186.997 253.813 186.73C253.319 186.457 252.893 186.053 252.533 185.52L252.463 186.75C252.443 186.917 252.353 187 252.193 187H251.613V172.45H252.573V178.78ZM266.568 176.89C267.282 176.89 267.918 177.013 268.478 177.26C269.045 177.5 269.522 177.843 269.908 178.29C270.295 178.737 270.588 179.277 270.788 179.91C270.995 180.537 271.098 181.24 271.098 182.02C271.098 182.8 270.995 183.503 270.788 184.13C270.588 184.757 270.295 185.293 269.908 185.74C269.522 186.187 269.045 186.53 268.478 186.77C267.918 187.01 267.282 187.13 266.568 187.13C265.855 187.13 265.215 187.01 264.648 186.77C264.088 186.53 263.612 186.187 263.218 185.74C262.832 185.293 262.535 184.757 262.328 184.13C262.128 183.503 262.028 182.8 262.028 182.02C262.028 181.24 262.128 180.537 262.328 179.91C262.535 179.277 262.832 178.737 263.218 178.29C263.612 177.843 264.088 177.5 264.648 177.26C265.215 177.013 265.855 176.89 266.568 176.89ZM266.568 186.38C267.162 186.38 267.678 186.28 268.118 186.08C268.565 185.873 268.935 185.58 269.228 185.2C269.528 184.82 269.752 184.363 269.898 183.83C270.045 183.29 270.118 182.687 270.118 182.02C270.118 181.36 270.045 180.76 269.898 180.22C269.752 179.68 269.528 179.22 269.228 178.84C268.935 178.453 268.565 178.157 268.118 177.95C267.678 177.743 267.162 177.64 266.568 177.64C265.975 177.64 265.455 177.743 265.008 177.95C264.568 178.157 264.198 178.453 263.898 178.84C263.605 179.22 263.382 179.68 263.228 180.22C263.082 180.76 263.008 181.36 263.008 182.02C263.008 182.687 263.082 183.29 263.228 183.83C263.382 184.363 263.605 184.82 263.898 185.2C264.198 185.58 264.568 185.873 265.008 186.08C265.455 186.28 265.975 186.38 266.568 186.38ZM277.721 176.89C278.434 176.89 279.071 177.013 279.631 177.26C280.197 177.5 280.674 177.843 281.061 178.29C281.447 178.737 281.741 179.277 281.941 179.91C282.147 180.537 282.251 181.24 282.251 182.02C282.251 182.8 282.147 183.503 281.941 184.13C281.741 184.757 281.447 185.293 281.061 185.74C280.674 186.187 280.197 186.53 279.631 186.77C279.071 187.01 278.434 187.13 277.721 187.13C277.007 187.13 276.367 187.01 275.801 186.77C275.241 186.53 274.764 186.187 274.371 185.74C273.984 185.293 273.687 184.757 273.481 184.13C273.281 183.503 273.181 182.8 273.181 182.02C273.181 181.24 273.281 180.537 273.481 179.91C273.687 179.277 273.984 178.737 274.371 178.29C274.764 177.843 275.241 177.5 275.801 177.26C276.367 177.013 277.007 176.89 277.721 176.89ZM277.721 186.38C278.314 186.38 278.831 186.28 279.271 186.08C279.717 185.873 280.087 185.58 280.381 185.2C280.681 184.82 280.904 184.363 281.051 183.83C281.197 183.29 281.271 182.687 281.271 182.02C281.271 181.36 281.197 180.76 281.051 180.22C280.904 179.68 280.681 179.22 280.381 178.84C280.087 178.453 279.717 178.157 279.271 177.95C278.831 177.743 278.314 177.64 277.721 177.64C277.127 177.64 276.607 177.743 276.161 177.95C275.721 178.157 275.351 178.453 275.051 178.84C274.757 179.22 274.534 179.68 274.381 180.22C274.234 180.76 274.161 181.36 274.161 182.02C274.161 182.687 274.234 183.29 274.381 183.83C274.534 184.363 274.757 184.82 275.051 185.2C275.351 185.58 275.721 185.873 276.161 186.08C276.607 186.28 277.127 186.38 277.721 186.38ZM285.893 172.45V181.32H286.353C286.446 181.32 286.533 181.307 286.613 181.28C286.7 181.253 286.793 181.19 286.893 181.09L290.883 177.3C290.95 177.22 291.023 177.16 291.103 177.12C291.183 177.073 291.283 177.05 291.403 177.05H292.243L287.853 181.22C287.733 181.36 287.603 181.47 287.463 181.55C287.57 181.603 287.66 181.667 287.733 181.74C287.813 181.807 287.89 181.887 287.963 181.98L292.573 187H291.743C291.65 187 291.563 186.987 291.483 186.96C291.41 186.927 291.34 186.863 291.273 186.77L287.093 182.29C287.04 182.23 286.986 182.18 286.933 182.14C286.886 182.1 286.836 182.07 286.783 182.05C286.73 182.023 286.666 182.007 286.593 182C286.526 181.987 286.443 181.98 286.343 181.98H285.893V187H284.933V172.45H285.893ZM295.505 177.05V187H294.555V177.05H295.505ZM295.915 173.62C295.915 173.74 295.888 173.853 295.835 173.96C295.788 174.06 295.725 174.15 295.645 174.23C295.565 174.31 295.471 174.373 295.365 174.42C295.258 174.467 295.145 174.49 295.025 174.49C294.905 174.49 294.791 174.467 294.685 174.42C294.578 174.373 294.485 174.31 294.405 174.23C294.325 174.15 294.261 174.06 294.215 173.96C294.168 173.853 294.145 173.74 294.145 173.62C294.145 173.5 294.168 173.387 294.215 173.28C294.261 173.167 294.325 173.07 294.405 172.99C294.485 172.91 294.578 172.847 294.685 172.8C294.791 172.753 294.905 172.73 295.025 172.73C295.145 172.73 295.258 172.753 295.365 172.8C295.471 172.847 295.565 172.91 295.645 172.99C295.725 173.07 295.788 173.167 295.835 173.28C295.888 173.387 295.915 173.5 295.915 173.62ZM299.808 178.79C300.268 178.217 300.798 177.757 301.398 177.41C302.004 177.063 302.678 176.89 303.418 176.89C303.964 176.89 304.444 176.977 304.858 177.15C305.278 177.323 305.624 177.573 305.898 177.9C306.171 178.227 306.378 178.62 306.518 179.08C306.658 179.54 306.728 180.06 306.728 180.64V187H305.768V180.64C305.768 179.707 305.554 178.977 305.128 178.45C304.701 177.917 304.051 177.65 303.178 177.65C302.531 177.65 301.924 177.817 301.358 178.15C300.798 178.477 300.298 178.933 299.858 179.52V187H298.898V177.05H299.428C299.594 177.05 299.691 177.133 299.718 177.3L299.808 178.79ZM313.144 182.6C313.571 182.6 313.951 182.54 314.284 182.42C314.617 182.293 314.897 182.12 315.124 181.9C315.351 181.68 315.524 181.417 315.644 181.11C315.764 180.803 315.824 180.463 315.824 180.09C315.824 179.717 315.761 179.377 315.634 179.07C315.514 178.757 315.337 178.49 315.104 178.27C314.877 178.05 314.597 177.88 314.264 177.76C313.937 177.64 313.564 177.58 313.144 177.58C312.724 177.58 312.347 177.64 312.014 177.76C311.687 177.88 311.407 178.05 311.174 178.27C310.947 178.49 310.774 178.757 310.654 179.07C310.534 179.377 310.474 179.717 310.474 180.09C310.474 180.463 310.534 180.803 310.654 181.11C310.774 181.417 310.947 181.68 311.174 181.9C311.407 182.12 311.687 182.293 312.014 182.42C312.347 182.54 312.724 182.6 313.144 182.6ZM316.864 187.67C316.864 187.357 316.781 187.107 316.614 186.92C316.454 186.727 316.237 186.577 315.964 186.47C315.691 186.363 315.374 186.29 315.014 186.25C314.661 186.203 314.287 186.17 313.894 186.15C313.507 186.13 313.117 186.11 312.724 186.09C312.331 186.07 311.961 186.03 311.614 185.97C311.361 186.07 311.127 186.187 310.914 186.32C310.701 186.447 310.517 186.593 310.364 186.76C310.211 186.927 310.091 187.107 310.004 187.3C309.917 187.5 309.874 187.713 309.874 187.94C309.874 188.233 309.947 188.503 310.094 188.75C310.247 189.003 310.467 189.22 310.754 189.4C311.047 189.587 311.404 189.733 311.824 189.84C312.244 189.947 312.727 190 313.274 190C313.781 190 314.251 189.943 314.684 189.83C315.124 189.717 315.504 189.557 315.824 189.35C316.151 189.143 316.404 188.897 316.584 188.61C316.771 188.323 316.864 188.01 316.864 187.67ZM317.904 177.49V177.82C317.904 177.967 317.811 178.057 317.624 178.09L316.104 178.2C316.291 178.453 316.434 178.737 316.534 179.05C316.634 179.363 316.684 179.703 316.684 180.07C316.684 180.55 316.597 180.987 316.424 181.38C316.257 181.767 316.017 182.1 315.704 182.38C315.397 182.653 315.024 182.867 314.584 183.02C314.151 183.173 313.671 183.25 313.144 183.25C312.577 183.25 312.061 183.163 311.594 182.99C311.314 183.15 311.091 183.34 310.924 183.56C310.764 183.773 310.684 183.987 310.684 184.2C310.684 184.487 310.784 184.707 310.984 184.86C311.191 185.013 311.457 185.127 311.784 185.2C312.117 185.267 312.494 185.31 312.914 185.33C313.341 185.35 313.774 185.373 314.214 185.4C314.654 185.42 315.084 185.46 315.504 185.52C315.931 185.58 316.307 185.687 316.634 185.84C316.967 185.987 317.234 186.197 317.434 186.47C317.641 186.737 317.744 187.093 317.744 187.54C317.744 187.953 317.641 188.35 317.434 188.73C317.227 189.11 316.927 189.447 316.534 189.74C316.147 190.033 315.677 190.267 315.124 190.44C314.571 190.62 313.951 190.71 313.264 190.71C312.564 190.71 311.951 190.637 311.424 190.49C310.897 190.35 310.454 190.157 310.094 189.91C309.741 189.67 309.474 189.39 309.294 189.07C309.114 188.75 309.024 188.41 309.024 188.05C309.024 187.523 309.197 187.073 309.544 186.7C309.891 186.32 310.364 186.023 310.964 185.81C310.631 185.697 310.361 185.533 310.154 185.32C309.954 185.1 309.854 184.803 309.854 184.43C309.854 184.29 309.881 184.143 309.934 183.99C309.987 183.837 310.067 183.687 310.174 183.54C310.281 183.387 310.411 183.243 310.564 183.11C310.717 182.977 310.891 182.857 311.084 182.75C310.611 182.477 310.241 182.113 309.974 181.66C309.714 181.207 309.584 180.677 309.584 180.07C309.584 179.59 309.667 179.157 309.834 178.77C310.007 178.377 310.251 178.04 310.564 177.76C310.877 177.48 311.251 177.263 311.684 177.11C312.124 176.957 312.611 176.88 313.144 176.88C313.584 176.88 313.987 176.933 314.354 177.04C314.727 177.147 315.061 177.297 315.354 177.49H317.904ZM333.071 177.05L327.351 190.2C327.311 190.293 327.257 190.37 327.191 190.43C327.131 190.49 327.041 190.52 326.921 190.52H326.241L327.991 186.63L323.781 177.05H324.571C324.671 177.05 324.751 177.077 324.811 177.13C324.871 177.177 324.911 177.23 324.931 177.29L328.281 185.03C328.321 185.13 328.354 185.233 328.381 185.34C328.414 185.44 328.444 185.543 328.471 185.65C328.504 185.543 328.537 185.44 328.571 185.34C328.611 185.233 328.651 185.13 328.691 185.03L332.001 177.29C332.034 177.217 332.081 177.16 332.141 177.12C332.201 177.073 332.267 177.05 332.341 177.05H333.071ZM338.775 176.89C339.489 176.89 340.125 177.013 340.685 177.26C341.252 177.5 341.729 177.843 342.115 178.29C342.502 178.737 342.795 179.277 342.995 179.91C343.202 180.537 343.305 181.24 343.305 182.02C343.305 182.8 343.202 183.503 342.995 184.13C342.795 184.757 342.502 185.293 342.115 185.74C341.729 186.187 341.252 186.53 340.685 186.77C340.125 187.01 339.489 187.13 338.775 187.13C338.062 187.13 337.422 187.01 336.855 186.77C336.295 186.53 335.819 186.187 335.425 185.74C335.039 185.293 334.742 184.757 334.535 184.13C334.335 183.503 334.235 182.8 334.235 182.02C334.235 181.24 334.335 180.537 334.535 179.91C334.742 179.277 335.039 178.737 335.425 178.29C335.819 177.843 336.295 177.5 336.855 177.26C337.422 177.013 338.062 176.89 338.775 176.89ZM338.775 186.38C339.369 186.38 339.885 186.28 340.325 186.08C340.772 185.873 341.142 185.58 341.435 185.2C341.735 184.82 341.959 184.363 342.105 183.83C342.252 183.29 342.325 182.687 342.325 182.02C342.325 181.36 342.252 180.76 342.105 180.22C341.959 179.68 341.735 179.22 341.435 178.84C341.142 178.453 340.772 178.157 340.325 177.95C339.885 177.743 339.369 177.64 338.775 177.64C338.182 177.64 337.662 177.743 337.215 177.95C336.775 178.157 336.405 178.453 336.105 178.84C335.812 179.22 335.589 179.68 335.435 180.22C335.289 180.76 335.215 181.36 335.215 182.02C335.215 182.687 335.289 183.29 335.435 183.83C335.589 184.363 335.812 184.82 336.105 185.2C336.405 185.58 336.775 185.873 337.215 186.08C337.662 186.28 338.182 186.38 338.775 186.38ZM353.708 177.05V187H353.178C353.011 187 352.914 186.913 352.888 186.74L352.798 185.26C352.338 185.833 351.804 186.293 351.198 186.64C350.598 186.987 349.928 187.16 349.188 187.16C348.634 187.16 348.151 187.073 347.738 186.9C347.324 186.727 346.981 186.477 346.708 186.15C346.434 185.823 346.228 185.43 346.088 184.97C345.948 184.51 345.878 183.99 345.878 183.41V177.05H346.838V183.41C346.838 184.343 347.051 185.077 347.478 185.61C347.904 186.137 348.554 186.4 349.428 186.4C350.074 186.4 350.678 186.237 351.238 185.91C351.804 185.577 352.308 185.117 352.748 184.53V177.05H353.708ZM375.134 177.05L371.814 187H371.104C370.99 187 370.914 186.93 370.874 186.79L368.154 178.71C368.12 178.61 368.09 178.51 368.064 178.41C368.037 178.31 368.014 178.21 367.994 178.11C367.96 178.31 367.91 178.51 367.844 178.71L365.084 186.79C365.044 186.93 364.964 187 364.844 187H364.164L360.844 177.05H361.564C361.657 177.05 361.734 177.077 361.794 177.13C361.854 177.177 361.894 177.23 361.914 177.29L364.424 185.14C364.464 185.293 364.5 185.443 364.534 185.59C364.567 185.73 364.594 185.87 364.614 186.01C364.654 185.87 364.694 185.73 364.734 185.59C364.774 185.443 364.82 185.293 364.874 185.14L367.534 177.22C367.58 177.073 367.674 177 367.814 177H368.204C368.35 177 368.447 177.073 368.494 177.22L371.134 185.14C371.18 185.293 371.224 185.44 371.264 185.58C371.304 185.72 371.34 185.86 371.374 186C371.4 185.86 371.427 185.72 371.454 185.58C371.487 185.44 371.527 185.293 371.574 185.14L374.104 177.29C374.13 177.217 374.174 177.16 374.234 177.12C374.294 177.073 374.364 177.05 374.444 177.05H375.134ZM378.337 177.05V187H377.387V177.05H378.337ZM378.747 173.62C378.747 173.74 378.72 173.853 378.667 173.96C378.62 174.06 378.557 174.15 378.477 174.23C378.397 174.31 378.303 174.373 378.197 174.42C378.09 174.467 377.977 174.49 377.857 174.49C377.737 174.49 377.623 174.467 377.517 174.42C377.41 174.373 377.317 174.31 377.237 174.23C377.157 174.15 377.093 174.06 377.047 173.96C377 173.853 376.977 173.74 376.977 173.62C376.977 173.5 377 173.387 377.047 173.28C377.093 173.167 377.157 173.07 377.237 172.99C377.317 172.91 377.41 172.847 377.517 172.8C377.623 172.753 377.737 172.73 377.857 172.73C377.977 172.73 378.09 172.753 378.197 172.8C378.303 172.847 378.397 172.91 378.477 172.99C378.557 173.07 378.62 173.167 378.667 173.28C378.72 173.387 378.747 173.5 378.747 173.62ZM382.78 172.45V187H381.82V172.45H382.78ZM387.194 172.45V187H386.234V172.45H387.194ZM396.898 179.45C397.051 179.043 397.224 178.683 397.418 178.37C397.618 178.05 397.844 177.78 398.098 177.56C398.358 177.34 398.644 177.173 398.958 177.06C399.278 176.94 399.631 176.88 400.018 176.88C400.224 176.88 400.428 176.9 400.628 176.94C400.828 176.973 401.004 177.037 401.158 177.13L401.078 177.79C401.044 177.897 400.981 177.95 400.888 177.95C400.808 177.95 400.684 177.927 400.518 177.88C400.358 177.833 400.144 177.81 399.878 177.81C399.491 177.81 399.148 177.87 398.848 177.99C398.554 178.103 398.288 178.277 398.048 178.51C397.814 178.743 397.608 179.033 397.428 179.38C397.254 179.72 397.094 180.113 396.948 180.56V187H395.988V177.05H396.498C396.611 177.05 396.691 177.073 396.738 177.12C396.784 177.167 396.814 177.247 396.828 177.36L396.898 179.45ZM409.472 181.02C409.472 180.487 409.395 180.01 409.242 179.59C409.095 179.163 408.885 178.803 408.612 178.51C408.338 178.217 408.012 177.993 407.632 177.84C407.258 177.68 406.845 177.6 406.392 177.6C405.878 177.6 405.418 177.68 405.012 177.84C404.605 178 404.252 178.23 403.952 178.53C403.658 178.83 403.422 179.19 403.242 179.61C403.062 180.03 402.942 180.5 402.882 181.02H409.472ZM402.832 181.63V181.82C402.832 182.567 402.918 183.223 403.092 183.79C403.265 184.357 403.512 184.833 403.832 185.22C404.152 185.6 404.538 185.887 404.992 186.08C405.445 186.273 405.952 186.37 406.512 186.37C407.012 186.37 407.445 186.317 407.812 186.21C408.178 186.097 408.485 185.973 408.732 185.84C408.985 185.7 409.185 185.577 409.332 185.47C409.478 185.357 409.585 185.3 409.652 185.3C409.738 185.3 409.805 185.333 409.852 185.4L410.112 185.72C409.952 185.92 409.738 186.107 409.472 186.28C409.212 186.453 408.918 186.603 408.592 186.73C408.272 186.85 407.925 186.947 407.552 187.02C407.185 187.093 406.815 187.13 406.442 187.13C405.762 187.13 405.142 187.013 404.582 186.78C404.022 186.54 403.542 186.193 403.142 185.74C402.742 185.287 402.432 184.733 402.212 184.08C401.998 183.42 401.892 182.667 401.892 181.82C401.892 181.107 401.992 180.45 402.192 179.85C402.398 179.243 402.692 178.723 403.072 178.29C403.458 177.85 403.928 177.507 404.482 177.26C405.042 177.013 405.675 176.89 406.382 176.89C406.942 176.89 407.462 176.987 407.942 177.18C408.422 177.373 408.838 177.657 409.192 178.03C409.545 178.397 409.822 178.85 410.022 179.39C410.228 179.93 410.332 180.55 410.332 181.25C410.332 181.397 410.312 181.497 410.272 181.55C410.232 181.603 410.165 181.63 410.072 181.63H402.832ZM419.611 178.38C419.578 178.413 419.545 178.443 419.511 178.47C419.485 178.49 419.445 178.5 419.391 178.5C419.325 178.5 419.235 178.457 419.121 178.37C419.008 178.277 418.855 178.177 418.661 178.07C418.468 177.963 418.225 177.867 417.931 177.78C417.645 177.687 417.295 177.64 416.881 177.64C416.308 177.64 415.798 177.743 415.351 177.95C414.911 178.15 414.538 178.44 414.231 178.82C413.925 179.2 413.691 179.66 413.531 180.2C413.378 180.74 413.301 181.347 413.301 182.02C413.301 182.72 413.381 183.34 413.541 183.88C413.708 184.42 413.941 184.877 414.241 185.25C414.541 185.617 414.905 185.897 415.331 186.09C415.758 186.283 416.231 186.38 416.751 186.38C417.231 186.38 417.631 186.323 417.951 186.21C418.278 186.097 418.545 185.973 418.751 185.84C418.965 185.707 419.131 185.583 419.251 185.47C419.371 185.357 419.471 185.3 419.551 185.3C419.631 185.3 419.698 185.333 419.751 185.4L420.001 185.72C419.848 185.92 419.655 186.107 419.421 186.28C419.188 186.453 418.925 186.603 418.631 186.73C418.338 186.857 418.018 186.953 417.671 187.02C417.331 187.093 416.975 187.13 416.601 187.13C415.968 187.13 415.388 187.017 414.861 186.79C414.341 186.557 413.891 186.223 413.511 185.79C413.138 185.35 412.845 184.813 412.631 184.18C412.425 183.547 412.321 182.827 412.321 182.02C412.321 181.26 412.421 180.567 412.621 179.94C412.821 179.313 413.115 178.773 413.501 178.32C413.888 177.867 414.358 177.517 414.911 177.27C415.471 177.017 416.111 176.89 416.831 176.89C417.478 176.89 418.051 176.993 418.551 177.2C419.051 177.407 419.488 177.687 419.861 178.04L419.611 178.38ZM429.14 181.02C429.14 180.487 429.063 180.01 428.91 179.59C428.763 179.163 428.553 178.803 428.28 178.51C428.006 178.217 427.68 177.993 427.3 177.84C426.926 177.68 426.513 177.6 426.06 177.6C425.546 177.6 425.086 177.68 424.68 177.84C424.273 178 423.92 178.23 423.62 178.53C423.326 178.83 423.09 179.19 422.91 179.61C422.73 180.03 422.61 180.5 422.55 181.02H429.14ZM422.5 181.63V181.82C422.5 182.567 422.586 183.223 422.76 183.79C422.933 184.357 423.18 184.833 423.5 185.22C423.82 185.6 424.206 185.887 424.66 186.08C425.113 186.273 425.62 186.37 426.18 186.37C426.68 186.37 427.113 186.317 427.48 186.21C427.846 186.097 428.153 185.973 428.4 185.84C428.653 185.7 428.853 185.577 429 185.47C429.146 185.357 429.253 185.3 429.32 185.3C429.406 185.3 429.473 185.333 429.52 185.4L429.78 185.72C429.62 185.92 429.406 186.107 429.14 186.28C428.88 186.453 428.586 186.603 428.26 186.73C427.94 186.85 427.593 186.947 427.22 187.02C426.853 187.093 426.483 187.13 426.11 187.13C425.43 187.13 424.81 187.013 424.25 186.78C423.69 186.54 423.21 186.193 422.81 185.74C422.41 185.287 422.1 184.733 421.88 184.08C421.666 183.42 421.56 182.667 421.56 181.82C421.56 181.107 421.66 180.45 421.86 179.85C422.066 179.243 422.36 178.723 422.74 178.29C423.126 177.85 423.596 177.507 424.15 177.26C424.71 177.013 425.343 176.89 426.05 176.89C426.61 176.89 427.13 176.987 427.61 177.18C428.09 177.373 428.506 177.657 428.86 178.03C429.213 178.397 429.49 178.85 429.69 179.39C429.896 179.93 430 180.55 430 181.25C430 181.397 429.98 181.497 429.94 181.55C429.9 181.603 429.833 181.63 429.74 181.63H422.5ZM433.649 177.05V187H432.699V177.05H433.649ZM434.059 173.62C434.059 173.74 434.033 173.853 433.979 173.96C433.933 174.06 433.869 174.15 433.789 174.23C433.709 174.31 433.616 174.373 433.509 174.42C433.403 174.467 433.289 174.49 433.169 174.49C433.049 174.49 432.936 174.467 432.829 174.42C432.723 174.373 432.629 174.31 432.549 174.23C432.469 174.15 432.406 174.06 432.359 173.96C432.313 173.853 432.289 173.74 432.289 173.62C432.289 173.5 432.313 173.387 432.359 173.28C432.406 173.167 432.469 173.07 432.549 172.99C432.629 172.91 432.723 172.847 432.829 172.8C432.936 172.753 433.049 172.73 433.169 172.73C433.289 172.73 433.403 172.753 433.509 172.8C433.616 172.847 433.709 172.91 433.789 172.99C433.869 173.07 433.933 173.167 433.979 173.28C434.033 173.387 434.059 173.5 434.059 173.62ZM445.032 177.05L440.832 187H439.992L435.792 177.05H436.542C436.636 177.05 436.712 177.077 436.772 177.13C436.832 177.177 436.872 177.23 436.892 177.29L440.182 185.14C440.282 185.433 440.362 185.723 440.422 186.01C440.482 185.723 440.566 185.433 440.672 185.14L443.972 177.29C444.006 177.217 444.049 177.16 444.102 177.12C444.162 177.073 444.232 177.05 444.312 177.05H445.032ZM453.827 181.02C453.827 180.487 453.75 180.01 453.597 179.59C453.45 179.163 453.24 178.803 452.967 178.51C452.694 178.217 452.367 177.993 451.987 177.84C451.614 177.68 451.2 177.6 450.747 177.6C450.234 177.6 449.774 177.68 449.367 177.84C448.96 178 448.607 178.23 448.307 178.53C448.014 178.83 447.777 179.19 447.597 179.61C447.417 180.03 447.297 180.5 447.237 181.02H453.827ZM447.187 181.63V181.82C447.187 182.567 447.274 183.223 447.447 183.79C447.62 184.357 447.867 184.833 448.187 185.22C448.507 185.6 448.894 185.887 449.347 186.08C449.8 186.273 450.307 186.37 450.867 186.37C451.367 186.37 451.8 186.317 452.167 186.21C452.534 186.097 452.84 185.973 453.087 185.84C453.34 185.7 453.54 185.577 453.687 185.47C453.834 185.357 453.94 185.3 454.007 185.3C454.094 185.3 454.16 185.333 454.207 185.4L454.467 185.72C454.307 185.92 454.094 186.107 453.827 186.28C453.567 186.453 453.274 186.603 452.947 186.73C452.627 186.85 452.28 186.947 451.907 187.02C451.54 187.093 451.17 187.13 450.797 187.13C450.117 187.13 449.497 187.013 448.937 186.78C448.377 186.54 447.897 186.193 447.497 185.74C447.097 185.287 446.787 184.733 446.567 184.08C446.354 183.42 446.247 182.667 446.247 181.82C446.247 181.107 446.347 180.45 446.547 179.85C446.754 179.243 447.047 178.723 447.427 178.29C447.814 177.85 448.284 177.507 448.837 177.26C449.397 177.013 450.03 176.89 450.737 176.89C451.297 176.89 451.817 176.987 452.297 177.18C452.777 177.373 453.194 177.657 453.547 178.03C453.9 178.397 454.177 178.85 454.377 179.39C454.584 179.93 454.687 180.55 454.687 181.25C454.687 181.397 454.667 181.497 454.627 181.55C454.587 181.603 454.52 181.63 454.427 181.63H447.187ZM468.276 182.19C467.33 182.223 466.513 182.3 465.826 182.42C465.146 182.533 464.583 182.69 464.136 182.89C463.696 183.09 463.37 183.33 463.156 183.61C462.943 183.883 462.836 184.197 462.836 184.55C462.836 184.883 462.89 185.173 462.996 185.42C463.11 185.66 463.256 185.86 463.436 186.02C463.623 186.173 463.836 186.287 464.076 186.36C464.316 186.433 464.566 186.47 464.826 186.47C465.213 186.47 465.566 186.43 465.886 186.35C466.213 186.263 466.513 186.147 466.786 186C467.066 185.847 467.326 185.667 467.566 185.46C467.806 185.253 468.043 185.03 468.276 184.79V182.19ZM462.426 178.46C462.946 177.94 463.493 177.547 464.066 177.28C464.64 177.013 465.29 176.88 466.016 176.88C466.55 176.88 467.016 176.967 467.416 177.14C467.816 177.307 468.146 177.55 468.406 177.87C468.673 178.183 468.873 178.567 469.006 179.02C469.14 179.467 469.206 179.967 469.206 180.52V187H468.826C468.626 187 468.503 186.907 468.456 186.72L468.316 185.44C468.043 185.707 467.77 185.947 467.496 186.16C467.23 186.373 466.95 186.553 466.656 186.7C466.363 186.847 466.046 186.96 465.706 187.04C465.366 187.12 464.993 187.16 464.586 187.16C464.246 187.16 463.916 187.11 463.596 187.01C463.276 186.91 462.99 186.757 462.736 186.55C462.49 186.343 462.29 186.08 462.136 185.76C461.99 185.433 461.916 185.043 461.916 184.59C461.916 184.17 462.036 183.78 462.276 183.42C462.516 183.06 462.893 182.747 463.406 182.48C463.92 182.213 464.576 182 465.376 181.84C466.183 181.68 467.15 181.587 468.276 181.56V180.52C468.276 179.6 468.076 178.893 467.676 178.4C467.283 177.9 466.696 177.65 465.916 177.65C465.436 177.65 465.026 177.717 464.686 177.85C464.353 177.983 464.07 178.13 463.836 178.29C463.603 178.45 463.413 178.597 463.266 178.73C463.12 178.863 462.996 178.93 462.896 178.93C462.823 178.93 462.763 178.913 462.716 178.88C462.67 178.847 462.63 178.803 462.596 178.75L462.426 178.46ZM473.304 178.79C473.764 178.217 474.294 177.757 474.894 177.41C475.501 177.063 476.174 176.89 476.914 176.89C477.461 176.89 477.941 176.977 478.354 177.15C478.774 177.323 479.121 177.573 479.394 177.9C479.667 178.227 479.874 178.62 480.014 179.08C480.154 179.54 480.224 180.06 480.224 180.64V187H479.264V180.64C479.264 179.707 479.051 178.977 478.624 178.45C478.197 177.917 477.547 177.65 476.674 177.65C476.027 177.65 475.421 177.817 474.854 178.15C474.294 178.477 473.794 178.933 473.354 179.52V187H472.394V177.05H472.924C473.091 177.05 473.187 177.133 473.214 177.3L473.304 178.79ZM170.7 213.05V223H169.75V213.05H170.7ZM171.11 209.62C171.11 209.74 171.083 209.853 171.03 209.96C170.983 210.06 170.92 210.15 170.84 210.23C170.76 210.31 170.667 210.373 170.56 210.42C170.453 210.467 170.34 210.49 170.22 210.49C170.1 210.49 169.987 210.467 169.88 210.42C169.773 210.373 169.68 210.31 169.6 210.23C169.52 210.15 169.457 210.06 169.41 209.96C169.363 209.853 169.34 209.74 169.34 209.62C169.34 209.5 169.363 209.387 169.41 209.28C169.457 209.167 169.52 209.07 169.6 208.99C169.68 208.91 169.773 208.847 169.88 208.8C169.987 208.753 170.1 208.73 170.22 208.73C170.34 208.73 170.453 208.753 170.56 208.8C170.667 208.847 170.76 208.91 170.84 208.99C170.92 209.07 170.983 209.167 171.03 209.28C171.083 209.387 171.11 209.5 171.11 209.62ZM175.003 214.79C175.463 214.217 175.993 213.757 176.593 213.41C177.2 213.063 177.873 212.89 178.613 212.89C179.16 212.89 179.64 212.977 180.053 213.15C180.473 213.323 180.82 213.573 181.093 213.9C181.366 214.227 181.573 214.62 181.713 215.08C181.853 215.54 181.923 216.06 181.923 216.64V223H180.963V216.64C180.963 215.707 180.75 214.977 180.323 214.45C179.896 213.917 179.246 213.65 178.373 213.65C177.726 213.65 177.12 213.817 176.553 214.15C175.993 214.477 175.493 214.933 175.053 215.52V223H174.093V213.05H174.623C174.79 213.05 174.886 213.133 174.913 213.3L175.003 214.79ZM192.884 213.05L188.684 223H187.844L183.644 213.05H184.394C184.487 213.05 184.564 213.077 184.624 213.13C184.684 213.177 184.724 213.23 184.744 213.29L188.034 221.14C188.134 221.433 188.214 221.723 188.274 222.01C188.334 221.723 188.417 221.433 188.524 221.14L191.824 213.29C191.857 213.217 191.901 213.16 191.954 213.12C192.014 213.073 192.084 213.05 192.164 213.05H192.884ZM198.639 212.89C199.352 212.89 199.989 213.013 200.549 213.26C201.115 213.5 201.592 213.843 201.979 214.29C202.365 214.737 202.659 215.277 202.859 215.91C203.065 216.537 203.169 217.24 203.169 218.02C203.169 218.8 203.065 219.503 202.859 220.13C202.659 220.757 202.365 221.293 201.979 221.74C201.592 222.187 201.115 222.53 200.549 222.77C199.989 223.01 199.352 223.13 198.639 223.13C197.925 223.13 197.285 223.01 196.719 222.77C196.159 222.53 195.682 222.187 195.289 221.74C194.902 221.293 194.605 220.757 194.399 220.13C194.199 219.503 194.099 218.8 194.099 218.02C194.099 217.24 194.199 216.537 194.399 215.91C194.605 215.277 194.902 214.737 195.289 214.29C195.682 213.843 196.159 213.5 196.719 213.26C197.285 213.013 197.925 212.89 198.639 212.89ZM198.639 222.38C199.232 222.38 199.749 222.28 200.189 222.08C200.635 221.873 201.005 221.58 201.299 221.2C201.599 220.82 201.822 220.363 201.969 219.83C202.115 219.29 202.189 218.687 202.189 218.02C202.189 217.36 202.115 216.76 201.969 216.22C201.822 215.68 201.599 215.22 201.299 214.84C201.005 214.453 200.635 214.157 200.189 213.95C199.749 213.743 199.232 213.64 198.639 213.64C198.045 213.64 197.525 213.743 197.079 213.95C196.639 214.157 196.269 214.453 195.969 214.84C195.675 215.22 195.452 215.68 195.299 216.22C195.152 216.76 195.079 217.36 195.079 218.02C195.079 218.687 195.152 219.29 195.299 219.83C195.452 220.363 195.675 220.82 195.969 221.2C196.269 221.58 196.639 221.873 197.079 222.08C197.525 222.28 198.045 222.38 198.639 222.38ZM206.911 213.05V223H205.961V213.05H206.911ZM207.321 209.62C207.321 209.74 207.294 209.853 207.241 209.96C207.194 210.06 207.131 210.15 207.051 210.23C206.971 210.31 206.878 210.373 206.771 210.42C206.664 210.467 206.551 210.49 206.431 210.49C206.311 210.49 206.198 210.467 206.091 210.42C205.984 210.373 205.891 210.31 205.811 210.23C205.731 210.15 205.668 210.06 205.621 209.96C205.574 209.853 205.551 209.74 205.551 209.62C205.551 209.5 205.574 209.387 205.621 209.28C205.668 209.167 205.731 209.07 205.811 208.99C205.891 208.91 205.984 208.847 206.091 208.8C206.198 208.753 206.311 208.73 206.431 208.73C206.551 208.73 206.664 208.753 206.771 208.8C206.878 208.847 206.971 208.91 207.051 208.99C207.131 209.07 207.194 209.167 207.241 209.28C207.294 209.387 207.321 209.5 207.321 209.62ZM216.994 214.38C216.961 214.413 216.927 214.443 216.894 214.47C216.867 214.49 216.827 214.5 216.774 214.5C216.707 214.5 216.617 214.457 216.504 214.37C216.391 214.277 216.237 214.177 216.044 214.07C215.851 213.963 215.607 213.867 215.314 213.78C215.027 213.687 214.677 213.64 214.264 213.64C213.691 213.64 213.181 213.743 212.734 213.95C212.294 214.15 211.921 214.44 211.614 214.82C211.307 215.2 211.074 215.66 210.914 216.2C210.761 216.74 210.684 217.347 210.684 218.02C210.684 218.72 210.764 219.34 210.924 219.88C211.091 220.42 211.324 220.877 211.624 221.25C211.924 221.617 212.287 221.897 212.714 222.09C213.141 222.283 213.614 222.38 214.134 222.38C214.614 222.38 215.014 222.323 215.334 222.21C215.661 222.097 215.927 221.973 216.134 221.84C216.347 221.707 216.514 221.583 216.634 221.47C216.754 221.357 216.854 221.3 216.934 221.3C217.014 221.3 217.081 221.333 217.134 221.4L217.384 221.72C217.231 221.92 217.037 222.107 216.804 222.28C216.571 222.453 216.307 222.603 216.014 222.73C215.721 222.857 215.401 222.953 215.054 223.02C214.714 223.093 214.357 223.13 213.984 223.13C213.351 223.13 212.771 223.017 212.244 222.79C211.724 222.557 211.274 222.223 210.894 221.79C210.521 221.35 210.227 220.813 210.014 220.18C209.807 219.547 209.704 218.827 209.704 218.02C209.704 217.26 209.804 216.567 210.004 215.94C210.204 215.313 210.497 214.773 210.884 214.32C211.271 213.867 211.741 213.517 212.294 213.27C212.854 213.017 213.494 212.89 214.214 212.89C214.861 212.89 215.434 212.993 215.934 213.2C216.434 213.407 216.871 213.687 217.244 214.04L216.994 214.38ZM226.522 217.02C226.522 216.487 226.446 216.01 226.292 215.59C226.146 215.163 225.936 214.803 225.662 214.51C225.389 214.217 225.062 213.993 224.682 213.84C224.309 213.68 223.896 213.6 223.442 213.6C222.929 213.6 222.469 213.68 222.062 213.84C221.656 214 221.302 214.23 221.002 214.53C220.709 214.83 220.472 215.19 220.292 215.61C220.112 216.03 219.992 216.5 219.932 217.02H226.522ZM219.882 217.63V217.82C219.882 218.567 219.969 219.223 220.142 219.79C220.316 220.357 220.562 220.833 220.882 221.22C221.202 221.6 221.589 221.887 222.042 222.08C222.496 222.273 223.002 222.37 223.562 222.37C224.062 222.37 224.496 222.317 224.862 222.21C225.229 222.097 225.536 221.973 225.782 221.84C226.036 221.7 226.236 221.577 226.382 221.47C226.529 221.357 226.636 221.3 226.702 221.3C226.789 221.3 226.856 221.333 226.902 221.4L227.162 221.72C227.002 221.92 226.789 222.107 226.522 222.28C226.262 222.453 225.969 222.603 225.642 222.73C225.322 222.85 224.976 222.947 224.602 223.02C224.236 223.093 223.866 223.13 223.492 223.13C222.812 223.13 222.192 223.013 221.632 222.78C221.072 222.54 220.592 222.193 220.192 221.74C219.792 221.287 219.482 220.733 219.262 220.08C219.049 219.42 218.942 218.667 218.942 217.82C218.942 217.107 219.042 216.45 219.242 215.85C219.449 215.243 219.742 214.723 220.122 214.29C220.509 213.85 220.979 213.507 221.532 213.26C222.092 213.013 222.726 212.89 223.432 212.89C223.992 212.89 224.512 212.987 224.992 213.18C225.472 213.373 225.889 213.657 226.242 214.03C226.596 214.397 226.872 214.85 227.072 215.39C227.279 215.93 227.382 216.55 227.382 217.25C227.382 217.397 227.362 217.497 227.322 217.55C227.282 217.603 227.216 217.63 227.122 217.63H219.882ZM235.992 223V214.09L234.592 214C234.405 213.98 234.312 213.897 234.312 213.75V213.36H235.992V212.1C235.992 211.533 236.065 211.037 236.212 210.61C236.358 210.177 236.565 209.817 236.832 209.53C237.098 209.243 237.418 209.03 237.792 208.89C238.165 208.743 238.578 208.67 239.032 208.67C239.238 208.67 239.445 208.69 239.652 208.73C239.865 208.763 240.055 208.813 240.222 208.88L240.192 209.34C240.178 209.4 240.148 209.44 240.102 209.46C240.062 209.473 240.002 209.48 239.922 209.48C239.842 209.473 239.738 209.463 239.612 209.45C239.485 209.43 239.338 209.42 239.172 209.42C238.845 209.42 238.542 209.47 238.262 209.57C237.988 209.663 237.752 209.817 237.552 210.03C237.352 210.243 237.195 210.523 237.082 210.87C236.975 211.21 236.922 211.63 236.922 212.13V213.36H240.152V214.07H236.952V223H235.992ZM243.128 215.45C243.281 215.043 243.455 214.683 243.648 214.37C243.848 214.05 244.075 213.78 244.328 213.56C244.588 213.34 244.875 213.173 245.188 213.06C245.508 212.94 245.861 212.88 246.248 212.88C246.455 212.88 246.658 212.9 246.858 212.94C247.058 212.973 247.235 213.037 247.388 213.13L247.308 213.79C247.275 213.897 247.211 213.95 247.118 213.95C247.038 213.95 246.915 213.927 246.748 213.88C246.588 213.833 246.375 213.81 246.108 213.81C245.721 213.81 245.378 213.87 245.078 213.99C244.785 214.103 244.518 214.277 244.278 214.51C244.045 214.743 243.838 215.033 243.658 215.38C243.485 215.72 243.325 216.113 243.178 216.56V223H242.218V213.05H242.728C242.841 213.05 242.921 213.073 242.968 213.12C243.015 213.167 243.045 213.247 243.058 213.36L243.128 215.45ZM252.662 212.89C253.375 212.89 254.012 213.013 254.572 213.26C255.139 213.5 255.615 213.843 256.002 214.29C256.389 214.737 256.682 215.277 256.882 215.91C257.089 216.537 257.192 217.24 257.192 218.02C257.192 218.8 257.089 219.503 256.882 220.13C256.682 220.757 256.389 221.293 256.002 221.74C255.615 222.187 255.139 222.53 254.572 222.77C254.012 223.01 253.375 223.13 252.662 223.13C251.949 223.13 251.309 223.01 250.742 222.77C250.182 222.53 249.705 222.187 249.312 221.74C248.925 221.293 248.629 220.757 248.422 220.13C248.222 219.503 248.122 218.8 248.122 218.02C248.122 217.24 248.222 216.537 248.422 215.91C248.629 215.277 248.925 214.737 249.312 214.29C249.705 213.843 250.182 213.5 250.742 213.26C251.309 213.013 251.949 212.89 252.662 212.89ZM252.662 222.38C253.255 222.38 253.772 222.28 254.212 222.08C254.659 221.873 255.029 221.58 255.322 221.2C255.622 220.82 255.845 220.363 255.992 219.83C256.139 219.29 256.212 218.687 256.212 218.02C256.212 217.36 256.139 216.76 255.992 216.22C255.845 215.68 255.622 215.22 255.322 214.84C255.029 214.453 254.659 214.157 254.212 213.95C253.772 213.743 253.255 213.64 252.662 213.64C252.069 213.64 251.549 213.743 251.102 213.95C250.662 214.157 250.292 214.453 249.992 214.84C249.699 215.22 249.475 215.68 249.322 216.22C249.175 216.76 249.102 217.36 249.102 218.02C249.102 218.687 249.175 219.29 249.322 219.83C249.475 220.363 249.699 220.82 249.992 221.2C250.292 221.58 250.662 221.873 251.102 222.08C251.549 222.28 252.069 222.38 252.662 222.38ZM259.874 223V213.05H260.404C260.571 213.05 260.668 213.133 260.694 213.3L260.784 214.74C261.171 214.187 261.614 213.74 262.114 213.4C262.614 213.06 263.178 212.89 263.804 212.89C264.531 212.89 265.111 213.1 265.544 213.52C265.984 213.94 266.281 214.523 266.434 215.27C266.554 214.863 266.721 214.51 266.934 214.21C267.154 213.91 267.404 213.663 267.684 213.47C267.964 213.27 268.268 213.123 268.594 213.03C268.928 212.937 269.268 212.89 269.614 212.89C270.108 212.89 270.551 212.973 270.944 213.14C271.338 213.3 271.671 213.54 271.944 213.86C272.218 214.18 272.428 214.573 272.574 215.04C272.721 215.507 272.794 216.04 272.794 216.64V223H271.844V216.64C271.844 215.667 271.634 214.927 271.214 214.42C270.794 213.907 270.194 213.65 269.414 213.65C269.068 213.65 268.734 213.713 268.414 213.84C268.101 213.967 267.821 214.157 267.574 214.41C267.334 214.657 267.141 214.967 266.994 215.34C266.854 215.713 266.784 216.147 266.784 216.64V223H265.824V216.64C265.824 215.673 265.631 214.933 265.244 214.42C264.864 213.907 264.304 213.65 263.564 213.65C263.024 213.65 262.524 213.81 262.064 214.13C261.604 214.45 261.194 214.893 260.834 215.46V223H259.874ZM289.118 213.05V223H288.588C288.421 223 288.324 222.913 288.298 222.74L288.208 221.26C287.748 221.833 287.214 222.293 286.608 222.64C286.008 222.987 285.338 223.16 284.598 223.16C284.044 223.16 283.561 223.073 283.148 222.9C282.734 222.727 282.391 222.477 282.118 222.15C281.844 221.823 281.638 221.43 281.498 220.97C281.358 220.51 281.288 219.99 281.288 219.41V213.05H282.248V219.41C282.248 220.343 282.461 221.077 282.888 221.61C283.314 222.137 283.964 222.4 284.838 222.4C285.484 222.4 286.088 222.237 286.648 221.91C287.214 221.577 287.718 221.117 288.158 220.53V213.05H289.118ZM297.864 214.28C297.811 214.373 297.734 214.42 297.634 214.42C297.561 214.42 297.467 214.38 297.354 214.3C297.241 214.213 297.087 214.12 296.894 214.02C296.707 213.913 296.474 213.82 296.194 213.74C295.914 213.653 295.574 213.61 295.174 213.61C294.814 213.61 294.484 213.663 294.184 213.77C293.891 213.87 293.637 214.007 293.424 214.18C293.217 214.353 293.057 214.557 292.944 214.79C292.831 215.017 292.774 215.257 292.774 215.51C292.774 215.823 292.854 216.083 293.014 216.29C293.174 216.497 293.381 216.673 293.634 216.82C293.894 216.967 294.191 217.093 294.524 217.2C294.857 217.307 295.194 217.413 295.534 217.52C295.881 217.627 296.221 217.747 296.554 217.88C296.887 218.007 297.181 218.167 297.434 218.36C297.694 218.553 297.904 218.79 298.064 219.07C298.224 219.35 298.304 219.69 298.304 220.09C298.304 220.523 298.227 220.927 298.074 221.3C297.921 221.673 297.694 221.997 297.394 222.27C297.101 222.543 296.737 222.76 296.304 222.92C295.871 223.08 295.374 223.16 294.814 223.16C294.114 223.16 293.511 223.05 293.004 222.83C292.497 222.603 292.044 222.31 291.644 221.95L291.864 221.61C291.897 221.557 291.934 221.517 291.974 221.49C292.021 221.463 292.081 221.45 292.154 221.45C292.241 221.45 292.344 221.503 292.464 221.61C292.591 221.717 292.757 221.833 292.964 221.96C293.171 222.08 293.424 222.193 293.724 222.3C294.031 222.407 294.407 222.46 294.854 222.46C295.274 222.46 295.644 222.403 295.964 222.29C296.284 222.17 296.551 222.01 296.764 221.81C296.977 221.61 297.137 221.377 297.244 221.11C297.357 220.837 297.414 220.55 297.414 220.25C297.414 219.917 297.334 219.64 297.174 219.42C297.014 219.2 296.804 219.013 296.544 218.86C296.284 218.707 295.987 218.577 295.654 218.47C295.327 218.363 294.991 218.257 294.644 218.15C294.297 218.043 293.957 217.927 293.624 217.8C293.297 217.673 293.004 217.513 292.744 217.32C292.484 217.127 292.274 216.893 292.114 216.62C291.954 216.34 291.874 215.993 291.874 215.58C291.874 215.227 291.951 214.887 292.104 214.56C292.257 214.233 292.474 213.947 292.754 213.7C293.041 213.453 293.387 213.257 293.794 213.11C294.201 212.963 294.657 212.89 295.164 212.89C295.771 212.89 296.307 212.977 296.774 213.15C297.247 213.323 297.677 213.59 298.064 213.95L297.864 214.28Z" fill="white"/>
<path opacity="0.1" d="M173.865 35H170.655V13.46H173.865V35ZM199.22 13.46V35H197.6C197.35 35 197.14 34.955 196.97 34.865C196.81 34.775 196.645 34.63 196.475 34.43L184.31 18.695C184.33 18.965 184.345 19.23 184.355 19.49C184.375 19.75 184.385 19.995 184.385 20.225V35H181.58V13.46H183.23C183.51 13.46 183.72 13.495 183.86 13.565C184 13.625 184.155 13.77 184.325 14L196.52 29.75C196.49 29.46 196.465 29.18 196.445 28.91C196.435 28.63 196.43 28.37 196.43 28.13V13.46H199.22ZM224.709 13.46L215.949 35H213.084L204.324 13.46H206.874C207.154 13.46 207.379 13.53 207.549 13.67C207.729 13.81 207.864 13.99 207.954 14.21L213.774 28.85C213.914 29.21 214.049 29.605 214.179 30.035C214.319 30.465 214.444 30.915 214.554 31.385C214.654 30.915 214.764 30.465 214.884 30.035C215.004 29.605 215.134 29.21 215.274 28.85L221.079 14.21C221.149 14.01 221.274 13.835 221.454 13.685C221.644 13.535 221.874 13.46 222.144 13.46H224.709ZM249.224 24.23C249.224 25.84 248.964 27.32 248.444 28.67C247.934 30.01 247.209 31.17 246.269 32.15C245.329 33.12 244.204 33.875 242.894 34.415C241.584 34.955 240.129 35.225 238.529 35.225C236.939 35.225 235.484 34.955 234.164 34.415C232.854 33.875 231.729 33.12 230.789 32.15C229.859 31.17 229.134 30.01 228.614 28.67C228.094 27.32 227.834 25.84 227.834 24.23C227.834 22.63 228.094 21.155 228.614 19.805C229.134 18.455 229.859 17.295 230.789 16.325C231.729 15.345 232.854 14.585 234.164 14.045C235.484 13.495 236.939 13.22 238.529 13.22C240.129 13.22 241.584 13.495 242.894 14.045C244.204 14.585 245.329 15.345 246.269 16.325C247.209 17.295 247.934 18.455 248.444 19.805C248.964 21.155 249.224 22.63 249.224 24.23ZM245.954 24.23C245.954 22.95 245.779 21.8 245.429 20.78C245.079 19.76 244.579 18.895 243.929 18.185C243.289 17.475 242.509 16.93 241.589 16.55C240.679 16.17 239.659 15.98 238.529 15.98C237.399 15.98 236.374 16.17 235.454 16.55C234.544 16.93 233.764 17.475 233.114 18.185C232.464 18.895 231.964 19.76 231.614 20.78C231.264 21.8 231.089 22.95 231.089 24.23C231.089 25.52 231.264 26.675 231.614 27.695C231.964 28.705 232.464 29.565 233.114 30.275C233.764 30.985 234.544 31.53 235.454 31.91C236.374 32.28 237.399 32.465 238.529 32.465C239.659 32.465 240.679 32.28 241.589 31.91C242.509 31.53 243.289 30.985 243.929 30.275C244.579 29.565 245.079 28.705 245.429 27.695C245.779 26.675 245.954 25.52 245.954 24.23ZM258.846 35H255.636V13.46H258.846V35ZM281.606 30.38C281.786 30.38 281.941 30.45 282.071 30.59L283.331 31.97C282.451 33.01 281.376 33.815 280.106 34.385C278.846 34.955 277.326 35.24 275.546 35.24C273.986 35.24 272.571 34.97 271.301 34.43C270.041 33.89 268.961 33.135 268.061 32.165C267.171 31.195 266.481 30.035 265.991 28.685C265.501 27.335 265.256 25.85 265.256 24.23C265.256 22.61 265.511 21.125 266.021 19.775C266.541 18.425 267.266 17.265 268.196 16.295C269.126 15.325 270.236 14.57 271.526 14.03C272.826 13.49 274.261 13.22 275.831 13.22C277.361 13.22 278.721 13.47 279.911 13.97C281.101 14.47 282.136 15.135 283.016 15.965L281.966 17.45C281.896 17.56 281.806 17.65 281.696 17.72C281.596 17.79 281.461 17.825 281.291 17.825C281.101 17.825 280.876 17.73 280.616 17.54C280.366 17.35 280.031 17.14 279.611 16.91C279.201 16.67 278.691 16.455 278.081 16.265C277.471 16.075 276.711 15.98 275.801 15.98C274.731 15.98 273.751 16.17 272.861 16.55C271.971 16.92 271.201 17.46 270.551 18.17C269.911 18.87 269.411 19.735 269.051 20.765C268.701 21.785 268.526 22.94 268.526 24.23C268.526 25.54 268.711 26.705 269.081 27.725C269.451 28.745 269.961 29.61 270.611 30.32C271.261 31.03 272.026 31.57 272.906 31.94C273.786 32.31 274.736 32.495 275.756 32.495C276.376 32.495 276.931 32.46 277.421 32.39C277.921 32.31 278.376 32.195 278.786 32.045C279.206 31.895 279.601 31.705 279.971 31.475C280.341 31.235 280.706 30.95 281.066 30.62C281.146 30.55 281.231 30.495 281.321 30.455C281.411 30.405 281.506 30.38 281.606 30.38ZM292.152 35H288.942V13.46H292.152V35ZM317.507 13.46V35H315.887C315.637 35 315.427 34.955 315.257 34.865C315.097 34.775 314.932 34.63 314.762 34.43L302.597 18.695C302.617 18.965 302.632 19.23 302.642 19.49C302.662 19.75 302.672 19.995 302.672 20.225V35H299.867V13.46H301.517C301.797 13.46 302.007 13.495 302.147 13.565C302.287 13.625 302.442 13.77 302.612 14L314.807 29.75C314.777 29.46 314.752 29.18 314.732 28.91C314.722 28.63 314.717 28.37 314.717 28.13V13.46H317.507ZM342.816 24.515V32.915C341.726 33.695 340.566 34.28 339.336 34.67C338.106 35.05 336.766 35.24 335.316 35.24C333.576 35.24 332.001 34.97 330.591 34.43C329.191 33.89 327.996 33.135 327.006 32.165C326.016 31.195 325.251 30.035 324.711 28.685C324.181 27.335 323.916 25.85 323.916 24.23C323.916 22.6 324.171 21.11 324.681 19.76C325.201 18.4 325.941 17.24 326.901 16.28C327.861 15.31 329.021 14.56 330.381 14.03C331.751 13.49 333.286 13.22 334.986 13.22C335.846 13.22 336.641 13.285 337.371 13.415C338.111 13.545 338.796 13.73 339.426 13.97C340.056 14.21 340.636 14.5 341.166 14.84C341.706 15.17 342.206 15.545 342.666 15.965L341.751 17.405C341.611 17.635 341.426 17.78 341.196 17.84C340.966 17.9 340.716 17.845 340.446 17.675C340.186 17.525 339.896 17.35 339.576 17.15C339.266 16.95 338.891 16.765 338.451 16.595C338.021 16.425 337.516 16.28 336.936 16.16C336.356 16.04 335.671 15.98 334.881 15.98C333.701 15.98 332.636 16.175 331.686 16.565C330.736 16.945 329.926 17.495 329.256 18.215C328.586 18.935 328.071 19.805 327.711 20.825C327.351 21.835 327.171 22.97 327.171 24.23C327.171 25.55 327.361 26.735 327.741 27.785C328.121 28.825 328.656 29.71 329.346 30.44C330.046 31.16 330.891 31.71 331.881 32.09C332.881 32.47 333.996 32.66 335.226 32.66C335.706 32.66 336.151 32.635 336.561 32.585C336.981 32.525 337.381 32.445 337.761 32.345C338.141 32.245 338.506 32.12 338.856 31.97C339.216 31.82 339.571 31.655 339.921 31.475V26.96H336.741C336.541 26.96 336.376 26.9 336.246 26.78C336.126 26.66 336.066 26.51 336.066 26.33V24.515H342.816Z" fill="white"/>
<path opacity="0.3" d="M173.865 87H170.655V65.46H173.865V87ZM199.22 65.46V87H197.6C197.35 87 197.14 86.955 196.97 86.865C196.81 86.775 196.645 86.63 196.475 86.43L184.31 70.695C184.33 70.965 184.345 71.23 184.355 71.49C184.375 71.75 184.385 71.995 184.385 72.225V87H181.58V65.46H183.23C183.51 65.46 183.72 65.495 183.86 65.565C184 65.625 184.155 65.77 184.325 66L196.52 81.75C196.49 81.46 196.465 81.18 196.445 80.91C196.435 80.63 196.43 80.37 196.43 80.13V65.46H199.22ZM224.709 65.46L215.949 87H213.084L204.324 65.46H206.874C207.154 65.46 207.379 65.53 207.549 65.67C207.729 65.81 207.864 65.99 207.954 66.21L213.774 80.85C213.914 81.21 214.049 81.605 214.179 82.035C214.319 82.465 214.444 82.915 214.554 83.385C214.654 82.915 214.764 82.465 214.884 82.035C215.004 81.605 215.134 81.21 215.274 80.85L221.079 66.21C221.149 66.01 221.274 65.835 221.454 65.685C221.644 65.535 221.874 65.46 222.144 65.46H224.709ZM249.224 76.23C249.224 77.84 248.964 79.32 248.444 80.67C247.934 82.01 247.209 83.17 246.269 84.15C245.329 85.12 244.204 85.875 242.894 86.415C241.584 86.955 240.129 87.225 238.529 87.225C236.939 87.225 235.484 86.955 234.164 86.415C232.854 85.875 231.729 85.12 230.789 84.15C229.859 83.17 229.134 82.01 228.614 80.67C228.094 79.32 227.834 77.84 227.834 76.23C227.834 74.63 228.094 73.155 228.614 71.805C229.134 70.455 229.859 69.295 230.789 68.325C231.729 67.345 232.854 66.585 234.164 66.045C235.484 65.495 236.939 65.22 238.529 65.22C240.129 65.22 241.584 65.495 242.894 66.045C244.204 66.585 245.329 67.345 246.269 68.325C247.209 69.295 247.934 70.455 248.444 71.805C248.964 73.155 249.224 74.63 249.224 76.23ZM245.954 76.23C245.954 74.95 245.779 73.8 245.429 72.78C245.079 71.76 244.579 70.895 243.929 70.185C243.289 69.475 242.509 68.93 241.589 68.55C240.679 68.17 239.659 67.98 238.529 67.98C237.399 67.98 236.374 68.17 235.454 68.55C234.544 68.93 233.764 69.475 233.114 70.185C232.464 70.895 231.964 71.76 231.614 72.78C231.264 73.8 231.089 74.95 231.089 76.23C231.089 77.52 231.264 78.675 231.614 79.695C231.964 80.705 232.464 81.565 233.114 82.275C233.764 82.985 234.544 83.53 235.454 83.91C236.374 84.28 237.399 84.465 238.529 84.465C239.659 84.465 240.679 84.28 241.589 83.91C242.509 83.53 243.289 82.985 243.929 82.275C244.579 81.565 245.079 80.705 245.429 79.695C245.779 78.675 245.954 77.52 245.954 76.23ZM258.846 87H255.636V65.46H258.846V87ZM281.606 82.38C281.786 82.38 281.941 82.45 282.071 82.59L283.331 83.97C282.451 85.01 281.376 85.815 280.106 86.385C278.846 86.955 277.326 87.24 275.546 87.24C273.986 87.24 272.571 86.97 271.301 86.43C270.041 85.89 268.961 85.135 268.061 84.165C267.171 83.195 266.481 82.035 265.991 80.685C265.501 79.335 265.256 77.85 265.256 76.23C265.256 74.61 265.511 73.125 266.021 71.775C266.541 70.425 267.266 69.265 268.196 68.295C269.126 67.325 270.236 66.57 271.526 66.03C272.826 65.49 274.261 65.22 275.831 65.22C277.361 65.22 278.721 65.47 279.911 65.97C281.101 66.47 282.136 67.135 283.016 67.965L281.966 69.45C281.896 69.56 281.806 69.65 281.696 69.72C281.596 69.79 281.461 69.825 281.291 69.825C281.101 69.825 280.876 69.73 280.616 69.54C280.366 69.35 280.031 69.14 279.611 68.91C279.201 68.67 278.691 68.455 278.081 68.265C277.471 68.075 276.711 67.98 275.801 67.98C274.731 67.98 273.751 68.17 272.861 68.55C271.971 68.92 271.201 69.46 270.551 70.17C269.911 70.87 269.411 71.735 269.051 72.765C268.701 73.785 268.526 74.94 268.526 76.23C268.526 77.54 268.711 78.705 269.081 79.725C269.451 80.745 269.961 81.61 270.611 82.32C271.261 83.03 272.026 83.57 272.906 83.94C273.786 84.31 274.736 84.495 275.756 84.495C276.376 84.495 276.931 84.46 277.421 84.39C277.921 84.31 278.376 84.195 278.786 84.045C279.206 83.895 279.601 83.705 279.971 83.475C280.341 83.235 280.706 82.95 281.066 82.62C281.146 82.55 281.231 82.495 281.321 82.455C281.411 82.405 281.506 82.38 281.606 82.38ZM292.152 87H288.942V65.46H292.152V87ZM317.507 65.46V87H315.887C315.637 87 315.427 86.955 315.257 86.865C315.097 86.775 314.932 86.63 314.762 86.43L302.597 70.695C302.617 70.965 302.632 71.23 302.642 71.49C302.662 71.75 302.672 71.995 302.672 72.225V87H299.867V65.46H301.517C301.797 65.46 302.007 65.495 302.147 65.565C302.287 65.625 302.442 65.77 302.612 66L314.807 81.75C314.777 81.46 314.752 81.18 314.732 80.91C314.722 80.63 314.717 80.37 314.717 80.13V65.46H317.507ZM342.816 76.515V84.915C341.726 85.695 340.566 86.28 339.336 86.67C338.106 87.05 336.766 87.24 335.316 87.24C333.576 87.24 332.001 86.97 330.591 86.43C329.191 85.89 327.996 85.135 327.006 84.165C326.016 83.195 325.251 82.035 324.711 80.685C324.181 79.335 323.916 77.85 323.916 76.23C323.916 74.6 324.171 73.11 324.681 71.76C325.201 70.4 325.941 69.24 326.901 68.28C327.861 67.31 329.021 66.56 330.381 66.03C331.751 65.49 333.286 65.22 334.986 65.22C335.846 65.22 336.641 65.285 337.371 65.415C338.111 65.545 338.796 65.73 339.426 65.97C340.056 66.21 340.636 66.5 341.166 66.84C341.706 67.17 342.206 67.545 342.666 67.965L341.751 69.405C341.611 69.635 341.426 69.78 341.196 69.84C340.966 69.9 340.716 69.845 340.446 69.675C340.186 69.525 339.896 69.35 339.576 69.15C339.266 68.95 338.891 68.765 338.451 68.595C338.021 68.425 337.516 68.28 336.936 68.16C336.356 68.04 335.671 67.98 334.881 67.98C333.701 67.98 332.636 68.175 331.686 68.565C330.736 68.945 329.926 69.495 329.256 70.215C328.586 70.935 328.071 71.805 327.711 72.825C327.351 73.835 327.171 74.97 327.171 76.23C327.171 77.55 327.361 78.735 327.741 79.785C328.121 80.825 328.656 81.71 329.346 82.44C330.046 83.16 330.891 83.71 331.881 84.09C332.881 84.47 333.996 84.66 335.226 84.66C335.706 84.66 336.151 84.635 336.561 84.585C336.981 84.525 337.381 84.445 337.761 84.345C338.141 84.245 338.506 84.12 338.856 83.97C339.216 83.82 339.571 83.655 339.921 83.475V78.96H336.741C336.541 78.96 336.376 78.9 336.246 78.78C336.126 78.66 336.066 78.51 336.066 78.33V76.515H342.816Z" fill="white"/>
<path d="M173.865 139H170.655V117.46H173.865V139ZM199.22 117.46V139H197.6C197.35 139 197.14 138.955 196.97 138.865C196.81 138.775 196.645 138.63 196.475 138.43L184.31 122.695C184.33 122.965 184.345 123.23 184.355 123.49C184.375 123.75 184.385 123.995 184.385 124.225V139H181.58V117.46H183.23C183.51 117.46 183.72 117.495 183.86 117.565C184 117.625 184.155 117.77 184.325 118L196.52 133.75C196.49 133.46 196.465 133.18 196.445 132.91C196.435 132.63 196.43 132.37 196.43 132.13V117.46H199.22ZM224.709 117.46L215.949 139H213.084L204.324 117.46H206.874C207.154 117.46 207.379 117.53 207.549 117.67C207.729 117.81 207.864 117.99 207.954 118.21L213.774 132.85C213.914 133.21 214.049 133.605 214.179 134.035C214.319 134.465 214.444 134.915 214.554 135.385C214.654 134.915 214.764 134.465 214.884 134.035C215.004 133.605 215.134 133.21 215.274 132.85L221.079 118.21C221.149 118.01 221.274 117.835 221.454 117.685C221.644 117.535 221.874 117.46 222.144 117.46H224.709ZM249.224 128.23C249.224 129.84 248.964 131.32 248.444 132.67C247.934 134.01 247.209 135.17 246.269 136.15C245.329 137.12 244.204 137.875 242.894 138.415C241.584 138.955 240.129 139.225 238.529 139.225C236.939 139.225 235.484 138.955 234.164 138.415C232.854 137.875 231.729 137.12 230.789 136.15C229.859 135.17 229.134 134.01 228.614 132.67C228.094 131.32 227.834 129.84 227.834 128.23C227.834 126.63 228.094 125.155 228.614 123.805C229.134 122.455 229.859 121.295 230.789 120.325C231.729 119.345 232.854 118.585 234.164 118.045C235.484 117.495 236.939 117.22 238.529 117.22C240.129 117.22 241.584 117.495 242.894 118.045C244.204 118.585 245.329 119.345 246.269 120.325C247.209 121.295 247.934 122.455 248.444 123.805C248.964 125.155 249.224 126.63 249.224 128.23ZM245.954 128.23C245.954 126.95 245.779 125.8 245.429 124.78C245.079 123.76 244.579 122.895 243.929 122.185C243.289 121.475 242.509 120.93 241.589 120.55C240.679 120.17 239.659 119.98 238.529 119.98C237.399 119.98 236.374 120.17 235.454 120.55C234.544 120.93 233.764 121.475 233.114 122.185C232.464 122.895 231.964 123.76 231.614 124.78C231.264 125.8 231.089 126.95 231.089 128.23C231.089 129.52 231.264 130.675 231.614 131.695C231.964 132.705 232.464 133.565 233.114 134.275C233.764 134.985 234.544 135.53 235.454 135.91C236.374 136.28 237.399 136.465 238.529 136.465C239.659 136.465 240.679 136.28 241.589 135.91C242.509 135.53 243.289 134.985 243.929 134.275C244.579 133.565 245.079 132.705 245.429 131.695C245.779 130.675 245.954 129.52 245.954 128.23ZM258.846 139H255.636V117.46H258.846V139ZM281.606 134.38C281.786 134.38 281.941 134.45 282.071 134.59L283.331 135.97C282.451 137.01 281.376 137.815 280.106 138.385C278.846 138.955 277.326 139.24 275.546 139.24C273.986 139.24 272.571 138.97 271.301 138.43C270.041 137.89 268.961 137.135 268.061 136.165C267.171 135.195 266.481 134.035 265.991 132.685C265.501 131.335 265.256 129.85 265.256 128.23C265.256 126.61 265.511 125.125 266.021 123.775C266.541 122.425 267.266 121.265 268.196 120.295C269.126 119.325 270.236 118.57 271.526 118.03C272.826 117.49 274.261 117.22 275.831 117.22C277.361 117.22 278.721 117.47 279.911 117.97C281.101 118.47 282.136 119.135 283.016 119.965L281.966 121.45C281.896 121.56 281.806 121.65 281.696 121.72C281.596 121.79 281.461 121.825 281.291 121.825C281.101 121.825 280.876 121.73 280.616 121.54C280.366 121.35 280.031 121.14 279.611 120.91C279.201 120.67 278.691 120.455 278.081 120.265C277.471 120.075 276.711 119.98 275.801 119.98C274.731 119.98 273.751 120.17 272.861 120.55C271.971 120.92 271.201 121.46 270.551 122.17C269.911 122.87 269.411 123.735 269.051 124.765C268.701 125.785 268.526 126.94 268.526 128.23C268.526 129.54 268.711 130.705 269.081 131.725C269.451 132.745 269.961 133.61 270.611 134.32C271.261 135.03 272.026 135.57 272.906 135.94C273.786 136.31 274.736 136.495 275.756 136.495C276.376 136.495 276.931 136.46 277.421 136.39C277.921 136.31 278.376 136.195 278.786 136.045C279.206 135.895 279.601 135.705 279.971 135.475C280.341 135.235 280.706 134.95 281.066 134.62C281.146 134.55 281.231 134.495 281.321 134.455C281.411 134.405 281.506 134.38 281.606 134.38ZM292.152 139H288.942V117.46H292.152V139ZM317.507 117.46V139H315.887C315.637 139 315.427 138.955 315.257 138.865C315.097 138.775 314.932 138.63 314.762 138.43L302.597 122.695C302.617 122.965 302.632 123.23 302.642 123.49C302.662 123.75 302.672 123.995 302.672 124.225V139H299.867V117.46H301.517C301.797 117.46 302.007 117.495 302.147 117.565C302.287 117.625 302.442 117.77 302.612 118L314.807 133.75C314.777 133.46 314.752 133.18 314.732 132.91C314.722 132.63 314.717 132.37 314.717 132.13V117.46H317.507ZM342.816 128.515V136.915C341.726 137.695 340.566 138.28 339.336 138.67C338.106 139.05 336.766 139.24 335.316 139.24C333.576 139.24 332.001 138.97 330.591 138.43C329.191 137.89 327.996 137.135 327.006 136.165C326.016 135.195 325.251 134.035 324.711 132.685C324.181 131.335 323.916 129.85 323.916 128.23C323.916 126.6 324.171 125.11 324.681 123.76C325.201 122.4 325.941 121.24 326.901 120.28C327.861 119.31 329.021 118.56 330.381 118.03C331.751 117.49 333.286 117.22 334.986 117.22C335.846 117.22 336.641 117.285 337.371 117.415C338.111 117.545 338.796 117.73 339.426 117.97C340.056 118.21 340.636 118.5 341.166 118.84C341.706 119.17 342.206 119.545 342.666 119.965L341.751 121.405C341.611 121.635 341.426 121.78 341.196 121.84C340.966 121.9 340.716 121.845 340.446 121.675C340.186 121.525 339.896 121.35 339.576 121.15C339.266 120.95 338.891 120.765 338.451 120.595C338.021 120.425 337.516 120.28 336.936 120.16C336.356 120.04 335.671 119.98 334.881 119.98C333.701 119.98 332.636 120.175 331.686 120.565C330.736 120.945 329.926 121.495 329.256 122.215C328.586 122.935 328.071 123.805 327.711 124.825C327.351 125.835 327.171 126.97 327.171 128.23C327.171 129.55 327.361 130.735 327.741 131.785C328.121 132.825 328.656 133.71 329.346 134.44C330.046 135.16 330.891 135.71 331.881 136.09C332.881 136.47 333.996 136.66 335.226 136.66C335.706 136.66 336.151 136.635 336.561 136.585C336.981 136.525 337.381 136.445 337.761 136.345C338.141 136.245 338.506 136.12 338.856 135.97C339.216 135.82 339.571 135.655 339.921 135.475V130.96H336.741C336.541 130.96 336.376 130.9 336.246 130.78C336.126 130.66 336.066 130.51 336.066 130.33V128.515H342.816Z" fill="white"/>
<path d="M82.8 233C78.6 233 76.5 230.9 76.5 226.7V189.5C76.5 186.5 75 185 72 185H7.8C3.6 185 1.5 182.9 1.5 178.7V147.5C1.5 142.9 2.8 138.4 5.4 134L80.1 11.9C81.7 9.29998 84.1 7.99998 87.3 7.99998H124.2C128.4 7.99998 130.5 10.1 130.5 14.3V132.5C130.5 135.5 132 137 135 137H139.2C143.4 137 145.5 139.1 145.5 143.3V178.7C145.5 182.9 143.4 185 139.2 185H135C132 185 130.5 186.5 130.5 189.5V226.7C130.5 230.9 128.4 233 124.2 233H82.8ZM60.3 137H72C75 137 76.5 135.5 76.5 132.5V110.6C76.5 108.6 75.8 107.4 74.4 107C73.2 106.6 72.1 107.3 71.1 109.1L57.3 131.6C56.3 133.2 56.1 134.5 56.7 135.5C57.3 136.5 58.5 137 60.3 137Z" fill="#031A27"/>
</svg>
